%FSTAX23Y23*%
%MOMM*%
%SFA1B1*%

%IPPOS*%
%ADD13C,0.100000*%
%ADD14C,0.152400*%
%ADD77C,0.050000*%
%LNpcb1_mechanical_15-1*%
%LPD*%
G36*
X01016Y01016D02*
X19304D01*
Y10414*
X01016*
Y01016*
G37*
G36*
X35217Y09271D02*
X35661D01*
Y04953*
X35217*
Y04343*
X2498*
Y04953*
X24536*
Y09271*
X2498*
Y0988*
X35217*
Y09271*
G37*
G36*
X10604Y27139D02*
Y26746D01*
X09207*
Y27139*
X08953*
Y29756*
X09207*
Y30149*
X10604*
Y29756*
X10858*
Y27139*
X10604*
G37*
G36*
X36004Y16802D02*
Y17195D01*
X37401*
Y16802*
X37655*
Y14185*
X37401*
Y13792*
X36004*
Y14185*
X3575*
Y16802*
X36004*
G37*
G36*
X2211Y52285D02*
X18783D01*
Y5414*
X2211*
Y52285*
G37*
G36*
X65976Y15659D02*
Y16052D01*
X67373*
Y15659*
X67627*
Y13042*
X67373*
Y12649*
X65976*
Y13042*
X65722*
Y15659*
X65976*
G37*
G36*
X68326Y01524D02*
X86614D01*
Y10922*
X68326*
Y01524*
G37*
G36*
X81851Y16725D02*
Y16332D01*
X80454*
Y16725*
X802*
Y19342*
X80454*
Y19735*
X81851*
Y19342*
X82105*
Y16725*
X81851*
G37*
G36*
X58356Y66636D02*
Y66243D01*
X56959*
Y66636*
X56705*
Y69253*
X56959*
Y69646*
X58356*
Y69253*
X5861*
Y66636*
X58356*
G37*
G36*
X77406Y66668D02*
Y67062D01*
X78803*
Y66668*
X79057*
Y64052*
X78803*
Y63658*
X77406*
Y64052*
X77152*
Y66668*
X77406*
G37*
G54D13*
X52705Y44584D02*
Y45584D01*
X52204Y45085D02*
X53204D01*
X7366Y78493D02*
Y79493D01*
X73159Y78994D02*
X74159D01*
X13596Y28448D02*
X14596D01*
X14097Y27947D02*
Y28947D01*
X20383Y4814D02*
Y4914D01*
X19883Y48641D02*
X20883D01*
X09405Y37019D02*
X10405D01*
X09906Y36519D02*
Y37519D01*
X47699Y76183D02*
Y77183D01*
X47199Y76683D02*
X48199D01*
X68714Y60879D02*
X69714D01*
X69215Y60379D02*
Y61379D01*
X54356Y33027D02*
Y34027D01*
X53855Y33528D02*
X54855D01*
X54737Y48267D02*
Y49267D01*
X54236Y48768D02*
X55236D01*
G54D14*
X18783Y52285D02*
Y5414D01*
X2211*
Y52285D02*
Y5414D01*
X18783Y52285D02*
X2211D01*
X35661Y04953D02*
Y09271D01*
X35217Y04953D02*
X35661D01*
X24536D02*
X2498D01*
X24536D02*
Y09271D01*
X2498*
X35217D02*
X35661D01*
X35217D02*
Y0988D01*
Y04343D02*
Y04953D01*
X2498Y04343D02*
X35217D01*
X2498D02*
Y04953D01*
Y09271D02*
Y0988D01*
X35217*
X65976Y16052D02*
X67373D01*
Y15659D02*
Y16052D01*
Y12649D02*
Y13042D01*
X65976Y12649D02*
X67373D01*
X65976D02*
Y13042D01*
Y15659D02*
Y16052D01*
X65722Y15659D02*
X65976D01*
X67373D02*
X67627D01*
Y13042D02*
Y15659D01*
X67373Y13042D02*
X67627D01*
X65722D02*
X65976D01*
X65722D02*
Y15659D01*
X77406Y67062D02*
X78803D01*
Y66668D02*
Y67062D01*
Y63658D02*
Y64052D01*
X77406Y63658D02*
X78803D01*
X77406D02*
Y64052D01*
Y66668D02*
Y67062D01*
X77152Y66668D02*
X77406D01*
X78803D02*
X79057D01*
Y64052D02*
Y66668D01*
X78803Y64052D02*
X79057D01*
X77152D02*
X77406D01*
X77152D02*
Y66668D01*
X09207Y26746D02*
X10604D01*
X09207D02*
Y27139D01*
Y29756D02*
Y30149D01*
X10604*
Y29756D02*
Y30149D01*
Y26746D02*
Y27139D01*
X10858*
X08953D02*
X09207D01*
X08953D02*
Y29756D01*
X09207*
X10604D02*
X10858D01*
Y27139D02*
Y29756D01*
X80454Y16332D02*
X81851D01*
X80454D02*
Y16725D01*
Y19342D02*
Y19735D01*
X81851*
Y19342D02*
Y19735D01*
Y16332D02*
Y16725D01*
X82105*
X802D02*
X80454D01*
X802D02*
Y19342D01*
X80454*
X81851D02*
X82105D01*
Y16725D02*
Y19342D01*
X36004Y17195D02*
X37401D01*
Y16802D02*
Y17195D01*
Y13792D02*
Y14185D01*
X36004Y13792D02*
X37401D01*
X36004D02*
Y14185D01*
Y16802D02*
Y17195D01*
X3575Y16802D02*
X36004D01*
X37401D02*
X37655D01*
Y14185D02*
Y16802D01*
X37401Y14185D02*
X37655D01*
X3575D02*
X36004D01*
X3575D02*
Y16802D01*
X56959Y66243D02*
X58356D01*
X56959D02*
Y66636D01*
Y69253D02*
Y69646D01*
X58356*
Y69253D02*
Y69646D01*
Y66243D02*
Y66636D01*
X5861*
X56705D02*
X56959D01*
X56705D02*
Y69253D01*
X56959*
X58356D02*
X5861D01*
Y66636D02*
Y69253D01*
X01016Y01016D02*
X19304D01*
X01016D02*
Y10414D01*
X19304*
Y01016D02*
Y10414D01*
X68326Y01524D02*
X86614D01*
X68326D02*
Y10922D01*
X86614*
Y01524D02*
Y10922D01*
G54D77*
X40434Y18404D02*
X57779D01*
Y00034D02*
Y18404D01*
X40434Y00034D02*
X57779D01*
X40434D02*
Y18404D01*
X51704Y43334D02*
X53704D01*
X51704Y46834D02*
X53704D01*
X51704Y43334D02*
Y46834D01*
X53704Y43334D02*
Y46834D01*
X67083Y49458D02*
X69313D01*
X67083Y45028D02*
X69313D01*
X67083D02*
Y49458D01*
X69313Y45028D02*
Y49458D01*
X1208Y43461D02*
Y46961D01*
X1408*
Y43461D02*
Y46961D01*
X1208Y43461D02*
X1408D01*
X60763Y77338D02*
X65473D01*
X60763Y80648D02*
X65473D01*
X60763Y77338D02*
Y80648D01*
X65473Y77338D02*
Y80648D01*
X47047Y57087D02*
X51757D01*
X47047Y59497D02*
X51757D01*
X47047Y57087D02*
Y59497D01*
X51757Y57087D02*
Y59497D01*
X67684Y73593D02*
X79634D01*
X67684Y84393D02*
X79634D01*
Y73593D02*
Y84393D01*
X67684Y73593D02*
Y84393D01*
X13096Y26697D02*
Y30197D01*
X15096Y26697D02*
Y30197D01*
X13096Y26697D02*
X15096D01*
X13096Y30197D02*
X15096D01*
X18633Y4764D02*
X22133D01*
X18633Y4964D02*
X22133D01*
Y4764D02*
Y4964D01*
X18633Y4764D02*
Y4964D01*
X10905Y35269D02*
Y38769D01*
X08905Y35269D02*
Y38769D01*
X10905*
X08905Y35269D02*
X10905D01*
X25568Y31277D02*
Y57777D01*
X45068*
Y31277D02*
Y57777D01*
X25568Y31277D02*
X45068D01*
X6029Y46808D02*
X6366D01*
X6029Y44884D02*
X6366D01*
Y46808*
X6029Y44884D02*
Y46808D01*
X42124Y67583D02*
X53274D01*
X42124Y85783D02*
X53274D01*
X42124Y67583D02*
Y85783D01*
X53274Y67583D02*
Y85783D01*
X70176Y66432D02*
Y69802D01*
X68252Y66432D02*
Y69802D01*
Y66432D02*
X70176D01*
X68252Y69802D02*
X70176D01*
X70164Y58629D02*
Y63129D01*
X68264Y58629D02*
Y63129D01*
X70164*
X68264Y58629D02*
X70164D01*
X52105Y34477D02*
X56605D01*
X52105Y32577D02*
X56605D01*
X52105D02*
Y34477D01*
X56605Y32577D02*
Y34477D01*
X46574Y32565D02*
X49944D01*
X46574Y34489D02*
X49944D01*
X46574Y32565D02*
Y34489D01*
X49944Y32565D02*
Y34489D01*
X52486Y49717D02*
X56986D01*
X52486Y47817D02*
X56986D01*
X52486D02*
Y49717D01*
X56986Y47817D02*
Y49717D01*
X46447Y47805D02*
X49817D01*
X46447Y49729D02*
X49817D01*
X46447Y47805D02*
Y49729D01*
X49817Y47805D02*
Y49729D01*
X17668Y43504D02*
Y47934D01*
X15438Y43504D02*
Y47934D01*
Y43504D02*
X17668D01*
X15438Y47934D02*
X17668D01*
M02*