%FSTAX23Y23*%
%MOMM*%
%SFA1B1*%

%IPPOS*%
%ADD61C,1.701797*%
%ADD70C,1.523997*%
%ADD71C,2.031996*%
%ADD72C,0.399999*%
%ADD73C,0.899998*%
%ADD74O,1.849996X0.899998*%
%ADD75C,0.749999*%
%LNpcb1_pads_bot-1*%
%LPD*%
G54D61*
X0635Y04445D03*
X0889D03*
X1143D03*
X1397D03*
X0635Y06985D03*
X0889D03*
X1143D03*
X1397D03*
X7366Y04953D03*
X762D03*
X7874D03*
X8128D03*
X7366Y07493D03*
X762D03*
X7874D03*
X8128D03*
G54D70*
X49784Y24003D03*
Y26543D03*
X61722Y23749D03*
Y26289D03*
X55753Y21717D03*
Y24257D03*
G54D71*
X37846Y67691D03*
Y70231D03*
X35306Y67691D03*
Y70231D03*
X32766Y67691D03*
Y70231D03*
X30226Y67691D03*
Y70231D03*
X27686Y67691D03*
Y70231D03*
X25146Y67691D03*
Y70231D03*
X22606Y67691D03*
Y70231D03*
X20066Y67691D03*
Y70231D03*
X17526Y67691D03*
Y70231D03*
X14986Y67691D03*
Y70231D03*
X12446Y67691D03*
Y70231D03*
X09906Y67691D03*
Y70231D03*
X07366Y67691D03*
Y70231D03*
X04826Y67691D03*
Y70231D03*
X02286Y67691D03*
Y70231D03*
G54D72*
X33818Y43017D03*
X32418D03*
X35218D03*
X32418Y41617D03*
X33818D03*
X35218D03*
X33118Y43717D03*
X34518D03*
X33118Y42317D03*
X34518D03*
X33118Y40917D03*
X34518D03*
G54D73*
X02286Y32893D03*
Y34192D03*
X03285Y32242D03*
Y33542D03*
Y34842D03*
G54D74*
X03065Y37117D03*
Y29967D03*
G54D75*
X80264Y4885D03*
Y46101D03*
M02*