%FSTAX23Y23*%
%MOMM*%
%SFA1B1*%

%IPPOS*%
%ADD17R,1.066798X1.346197*%
%ADD18R,4.241792X3.809992*%
%ADD19R,0.888998X0.952498*%
%ADD20R,3.299993X4.059992*%
%ADD21R,3.299993X6.349987*%
%ADD22R,3.809992X6.349987*%
%ADD23R,1.449997X1.349997*%
%ADD24R,1.729997X0.969998*%
%ADD25R,1.449997X1.149998*%
%ADD26R,1.369997X2.809994*%
%ADD27R,1.289997X1.909996*%
%ADD28R,2.699995X4.099992*%
%ADD29R,1.349997X1.449997*%
%ADD30R,0.899998X0.899998*%
%ADD31R,1.499997X0.899998*%
%ADD32R,0.899998X1.499997*%
%ADD33R,0.999998X1.419997*%
%ADD34R,0.999998X2.049996*%
%ADD35R,6.699987X9.699981*%
%ADD36R,1.419997X0.999998*%
%ADD37R,1.749997X1.499997*%
%ADD38R,1.499997X1.749997*%
%ADD39R,1.199998X0.999998*%
%ADD61C,1.701797*%
%ADD70C,1.523997*%
%ADD71C,2.031996*%
%ADD72C,0.399999*%
%ADD73C,0.899998*%
%ADD74O,1.849996X0.899998*%
%ADD75C,0.749999*%
%LNpcb1_pads_top-1*%
%LPD*%
G54D17*
X1957Y53213D03*
X21323D03*
G54D18*
X33286Y07112D03*
X26911D03*
G54D19*
X66675Y15322D03*
Y13379D03*
X78105Y66332D03*
Y64389D03*
X09906Y27476D03*
Y29419D03*
X81153Y17062D03*
Y19005D03*
X36703Y16465D03*
Y14522D03*
X57658Y66973D03*
Y68916D03*
G54D20*
X49779Y16124D03*
G54D21*
X5588Y06985D03*
G54D22*
X42589Y06985D03*
G54D23*
X52705Y44259D03*
Y45909D03*
X14097Y27622D03*
Y29272D03*
X09906Y37844D03*
Y36195D03*
G54D24*
X68199Y48723D03*
Y45763D03*
X16553Y44239D03*
Y47199D03*
G54D25*
X13081Y44311D03*
Y46111D03*
G54D26*
X61698Y78994D03*
X64538D03*
G54D27*
X47942Y58293D03*
X50862D03*
G54D28*
X78034Y78994D03*
X69284D03*
G54D29*
X21209Y48641D03*
X19558D03*
G54D30*
X33818Y42317D03*
X32418D03*
X35218D03*
X32418Y40917D03*
X33818D03*
X35218D03*
X32418Y43717D03*
X33818D03*
X35218D03*
G54D31*
X26568Y50038D03*
Y48768D03*
Y47498D03*
Y46228D03*
Y44958D03*
Y43688D03*
Y42418D03*
Y41148D03*
Y39878D03*
Y38608D03*
Y37338D03*
Y36068D03*
Y34798D03*
Y33528D03*
X44069D03*
Y34798D03*
Y36068D03*
Y37338D03*
Y38608D03*
Y39878D03*
Y41148D03*
Y42418D03*
Y43688D03*
Y44958D03*
Y46228D03*
Y47498D03*
Y48768D03*
Y50038D03*
G54D32*
X28333Y32277D03*
X29603D03*
X30873D03*
X32143D03*
X33413D03*
X34683D03*
X35953D03*
X37223D03*
X38493D03*
X39763D03*
X41033D03*
X42303D03*
G54D33*
X6291Y45847D03*
X6104D03*
X47324Y33528D03*
X49194D03*
X47197Y48768D03*
X49067D03*
G54D34*
X44039Y68834D03*
X45869D03*
X47699D03*
X4953D03*
X51359D03*
G54D35*
X47699Y80733D03*
G54D36*
X69215Y67183D03*
Y69052D03*
G54D37*
X69215Y6223D03*
Y59529D03*
G54D38*
X53005Y33528D03*
X55705D03*
X53386Y48768D03*
X56086D03*
G54D39*
X83063Y48325D03*
Y46625D03*
X77463Y48325D03*
Y46625D03*
G54D61*
X0635Y04445D03*
X0889D03*
X1143D03*
X1397D03*
X0635Y06985D03*
X0889D03*
X1143D03*
X1397D03*
X7366Y04953D03*
X762D03*
X7874D03*
X8128D03*
X7366Y07493D03*
X762D03*
X7874D03*
X8128D03*
G54D70*
X49784Y24003D03*
Y26543D03*
X61722Y23749D03*
Y26289D03*
X55753Y21717D03*
Y24257D03*
G54D71*
X37846Y67691D03*
Y70231D03*
X35306Y67691D03*
Y70231D03*
X32766Y67691D03*
Y70231D03*
X30226Y67691D03*
Y70231D03*
X27686Y67691D03*
Y70231D03*
X25146Y67691D03*
Y70231D03*
X22606Y67691D03*
Y70231D03*
X20066Y67691D03*
Y70231D03*
X17526Y67691D03*
Y70231D03*
X14986Y67691D03*
Y70231D03*
X12446Y67691D03*
Y70231D03*
X09906Y67691D03*
Y70231D03*
X07366Y67691D03*
Y70231D03*
X04826Y67691D03*
Y70231D03*
X02286Y67691D03*
Y70231D03*
G54D72*
X33818Y43017D03*
X32418D03*
X35218D03*
X32418Y41617D03*
X33818D03*
X35218D03*
X33118Y43717D03*
X34518D03*
X33118Y42317D03*
X34518D03*
X33118Y40917D03*
X34518D03*
G54D73*
X02286Y32893D03*
Y34192D03*
X03285Y32242D03*
Y33542D03*
Y34842D03*
G54D74*
X03065Y37117D03*
Y29967D03*
G54D75*
X80264Y4885D03*
Y46101D03*
M02*