G04*
G04 #@! TF.GenerationSoftware,Altium Limited,Altium Designer,25.3.3 (18)*
G04*
G04 Layer_Color=128*
%FSLAX44Y44*%
%MOMM*%
G71*
G04*
G04 #@! TF.SameCoordinates,28098AB9-3807-4A49-8781-5BF9FE85299D*
G04*
G04*
G04 #@! TF.FilePolarity,Positive*
G04*
G01*
G75*
%ADD16C,0.1270*%
D16*
X494030Y240030D02*
X501650D01*
X497840Y236220D02*
Y243840D01*
X494030Y265430D02*
X501650D01*
X497840Y261620D02*
Y269240D01*
X57531Y44450D02*
X69469D01*
X63500Y38481D02*
Y50419D01*
X82931Y44450D02*
X94869D01*
X88900Y38481D02*
Y50419D01*
X108331Y44450D02*
X120269D01*
X114300Y38481D02*
Y50419D01*
X133731Y44450D02*
X145669D01*
X139700Y38481D02*
Y50419D01*
X57531Y69850D02*
X69469D01*
X63500Y63881D02*
Y75819D01*
X82931Y69850D02*
X94869D01*
X88900Y63881D02*
Y75819D01*
X108331Y69850D02*
X120269D01*
X114300Y63881D02*
Y75819D01*
X133731Y69850D02*
X145669D01*
X139700Y63881D02*
Y75819D01*
X372110Y676910D02*
X384810D01*
X378460Y670560D02*
Y683260D01*
X372110Y702310D02*
X384810D01*
X378460Y695960D02*
Y708660D01*
X346710Y676910D02*
X359410D01*
X353060Y670560D02*
Y683260D01*
X346710Y702310D02*
X359410D01*
X353060Y695960D02*
Y708660D01*
X321310Y676910D02*
X334010D01*
X327660Y670560D02*
Y683260D01*
X321310Y702310D02*
X334010D01*
X327660Y695960D02*
Y708660D01*
X295910Y676910D02*
X308610D01*
X302260Y670560D02*
Y683260D01*
X295910Y702310D02*
X308610D01*
X302260Y695960D02*
Y708660D01*
X270510Y676910D02*
X283210D01*
X276860Y670560D02*
Y683260D01*
X270510Y702310D02*
X283210D01*
X276860Y695960D02*
Y708660D01*
X245110Y676910D02*
X257810D01*
X251460Y670560D02*
Y683260D01*
X245110Y702310D02*
X257810D01*
X251460Y695960D02*
Y708660D01*
X219710Y676910D02*
X232410D01*
X226060Y670560D02*
Y683260D01*
X219710Y702310D02*
X232410D01*
X226060Y695960D02*
Y708660D01*
X194310Y676910D02*
X207010D01*
X200660Y670560D02*
Y683260D01*
X194310Y702310D02*
X207010D01*
X200660Y695960D02*
Y708660D01*
X168910Y676910D02*
X181610D01*
X175260Y670560D02*
Y683260D01*
X168910Y702310D02*
X181610D01*
X175260Y695960D02*
Y708660D01*
X143510Y676910D02*
X156210D01*
X149860Y670560D02*
Y683260D01*
X143510Y702310D02*
X156210D01*
X149860Y695960D02*
Y708660D01*
X118110Y676910D02*
X130810D01*
X124460Y670560D02*
Y683260D01*
X118110Y702310D02*
X130810D01*
X124460Y695960D02*
Y708660D01*
X92710Y676910D02*
X105410D01*
X99060Y670560D02*
Y683260D01*
X92710Y702310D02*
X105410D01*
X99060Y695960D02*
Y708660D01*
X67310Y676910D02*
X80010D01*
X73660Y670560D02*
Y683260D01*
X67310Y702310D02*
X80010D01*
X73660Y695960D02*
Y708660D01*
X41910Y676910D02*
X54610D01*
X48260Y670560D02*
Y683260D01*
X41910Y702310D02*
X54610D01*
X48260Y695960D02*
Y708660D01*
X16510Y676910D02*
X29210D01*
X22860Y670560D02*
Y683260D01*
X16510Y702310D02*
X29210D01*
X22860Y695960D02*
Y708660D01*
X337190Y430180D02*
X339190D01*
X338190Y429180D02*
Y431180D01*
X323190Y430180D02*
X325190D01*
X324190Y429180D02*
Y431180D01*
X351190Y430180D02*
X353190D01*
X352190Y429180D02*
Y431180D01*
X323190Y416180D02*
X325190D01*
X324190Y415180D02*
Y417180D01*
X337190Y416180D02*
X339190D01*
X338190Y415180D02*
Y417180D01*
X351190Y416180D02*
X353190D01*
X352190Y415180D02*
Y417180D01*
X330190Y437180D02*
X332190D01*
X331190Y436180D02*
Y438180D01*
X344190Y437180D02*
X346190D01*
X345190Y436180D02*
Y438180D01*
X330190Y423180D02*
X332190D01*
X331190Y422180D02*
Y424180D01*
X344190Y423180D02*
X346190D01*
X345190Y422180D02*
Y424180D01*
X330190Y409180D02*
X332190D01*
X331190Y408180D02*
Y410180D01*
X344190Y409180D02*
X346190D01*
X345190Y408180D02*
Y410180D01*
X20860Y328930D02*
X24860D01*
X22860Y326930D02*
Y330930D01*
X20860Y341930D02*
X24860D01*
X22860Y339930D02*
Y343930D01*
X30860Y322430D02*
X34860D01*
X32860Y320430D02*
Y324430D01*
X30860Y335430D02*
X34860D01*
X32860Y333430D02*
Y337430D01*
X28660Y371180D02*
X32660D01*
X30660Y369180D02*
Y373180D01*
X28660Y299680D02*
X32660D01*
X30660Y297680D02*
Y301680D01*
X30860Y348430D02*
X34860D01*
X32860Y346430D02*
Y350430D01*
X613410Y237490D02*
X621030D01*
X617220Y233680D02*
Y241300D01*
X613410Y262890D02*
X621030D01*
X617220Y259080D02*
Y266700D01*
X553720Y217170D02*
X561340D01*
X557530Y213360D02*
Y220980D01*
X553720Y242570D02*
X561340D01*
X557530Y238760D02*
Y246380D01*
X730631Y49530D02*
X742569D01*
X736600Y43561D02*
Y55499D01*
X756031Y49530D02*
X767969D01*
X762000Y43561D02*
Y55499D01*
X781431Y49530D02*
X793369D01*
X787400Y43561D02*
Y55499D01*
X806831Y49530D02*
X818769D01*
X812800Y43561D02*
Y55499D01*
X730631Y74930D02*
X742569D01*
X736600Y68961D02*
Y80899D01*
X756031Y74930D02*
X767969D01*
X762000Y68961D02*
Y80899D01*
X781431Y74930D02*
X793369D01*
X787400Y68961D02*
Y80899D01*
X806831Y74930D02*
X818769D01*
X812800Y68961D02*
Y80899D01*
X798890Y488510D02*
X806390D01*
X802640Y484760D02*
Y492260D01*
X798890Y461010D02*
X806390D01*
X802640Y457260D02*
Y464760D01*
X120904Y175260D02*
X128016D01*
X124460Y171704D02*
Y178816D01*
X717804Y283210D02*
X724916D01*
X721360Y279654D02*
Y286766D01*
X406146Y276860D02*
X414274D01*
X410210Y272796D02*
Y280924D01*
X290576Y252730D02*
X298704D01*
X294640Y248666D02*
Y256794D01*
X277876Y289560D02*
X286004D01*
X281940Y285496D02*
Y293624D01*
X632714Y195580D02*
X639826D01*
X636270Y192024D02*
Y199136D01*
X553974Y298450D02*
X561086D01*
X557530Y294894D02*
Y302006D01*
X609854Y33020D02*
X616966D01*
X613410Y29464D02*
Y36576D01*
X139954Y132080D02*
X147066D01*
X143510Y128524D02*
Y135636D01*
X772414Y216535D02*
X779526D01*
X775970Y212979D02*
Y220091D01*
X139954Y567690D02*
X147066D01*
X143510Y564134D02*
Y571246D01*
X161544Y523240D02*
X168656D01*
X165100Y519684D02*
Y526796D01*
X169164Y398780D02*
X176276D01*
X172720Y395224D02*
Y402336D01*
X187791Y398780D02*
X194903D01*
X191347Y395224D02*
Y402336D01*
X206417Y398780D02*
X213529D01*
X209973Y395224D02*
Y402336D01*
X225044Y398780D02*
X232156D01*
X228600Y395224D02*
Y402336D01*
X304546Y276860D02*
X312674D01*
X308610Y272796D02*
Y280924D01*
X71374Y782320D02*
X78486D01*
X74930Y778764D02*
Y785876D01*
X541737Y582668D02*
X548849D01*
X545293Y579112D02*
Y586224D01*
X342646Y298450D02*
X350774D01*
X346710Y294386D02*
Y302514D01*
X368046Y298450D02*
X376174D01*
X372110Y294386D02*
Y302514D01*
X317246Y298450D02*
X325374D01*
X321310Y294386D02*
Y302514D01*
X380746Y276860D02*
X388874D01*
X384810Y272796D02*
Y280924D01*
X396494Y360680D02*
X403606D01*
X400050Y357124D02*
Y364236D01*
X396507Y435597D02*
X403619D01*
X400063Y432041D02*
Y439153D01*
X396494Y410633D02*
X403606D01*
X400050Y407077D02*
Y414189D01*
X413600Y424802D02*
X420712D01*
X417155Y421246D02*
Y428358D01*
X414274Y398780D02*
X421386D01*
X417830Y395224D02*
Y402336D01*
X414274Y373380D02*
X421386D01*
X417830Y369824D02*
Y376936D01*
X396494Y385657D02*
X403606D01*
X400050Y382101D02*
Y389213D01*
X414274Y347980D02*
X421386D01*
X417830Y344424D02*
Y351536D01*
X679704Y535940D02*
X686816D01*
X683260Y532384D02*
Y539496D01*
X573024Y629920D02*
X580136D01*
X576580Y626364D02*
Y633476D01*
X95504Y224790D02*
X102616D01*
X99060Y221234D02*
Y228346D01*
X461264Y240030D02*
X468376D01*
X464820Y236474D02*
Y243586D01*
X70104Y294640D02*
X77216D01*
X73660Y291084D02*
Y298196D01*
X418846Y298450D02*
X426974D01*
X422910Y294386D02*
Y302514D01*
X393446Y298450D02*
X401574D01*
X397510Y294386D02*
Y302514D01*
X355346Y276860D02*
X363474D01*
X359410Y272796D02*
Y280924D01*
X329946Y276860D02*
X338074D01*
X334010Y272796D02*
Y280924D01*
M02*
