G04*
G04 #@! TF.GenerationSoftware,Altium Limited,Altium Designer,25.3.3 (18)*
G04*
G04 Layer_Color=8388736*
%FSLAX44Y44*%
%MOMM*%
G71*
G04*
G04 #@! TF.SameCoordinates,CF0063C5-59CE-4EC0-ACCE-DCAF0012FED6*
G04*
G04*
G04 #@! TF.FilePolarity,Negative*
G04*
G01*
G75*
%ADD17R,1.0668X1.3462*%
%ADD18R,4.2418X3.8100*%
%ADD19R,0.8890X0.9525*%
%ADD40R,3.5032X4.2632*%
%ADD41R,3.5032X6.5532*%
%ADD42R,4.0132X6.5532*%
%ADD43R,1.6532X1.5532*%
%ADD44R,1.9332X1.1732*%
%ADD45R,1.6532X1.3532*%
%ADD46R,1.5732X3.0132*%
%ADD47R,1.4932X2.1132*%
%ADD48R,2.9032X4.3032*%
%ADD49R,1.5532X1.6532*%
%ADD50R,1.1032X1.1032*%
%ADD51R,1.7032X1.1032*%
%ADD52R,1.1032X1.7032*%
%ADD53R,1.2032X1.6232*%
%ADD54R,1.2032X2.2532*%
%ADD55R,6.9032X9.9032*%
%ADD56R,1.6232X1.2032*%
%ADD57R,1.9532X1.7032*%
%ADD58R,1.7032X1.9532*%
%ADD59R,1.4032X1.2032*%
%ADD60C,1.7272*%
%ADD61C,1.7018*%
%ADD62C,2.2352*%
%ADD63C,1.1032*%
%ADD64O,2.0532X1.1032*%
%ADD65C,0.9532*%
%ADD66C,1.4732*%
D17*
X195707Y532130D02*
D03*
X213233D02*
D03*
D18*
X332867Y71120D02*
D03*
X269113D02*
D03*
D19*
X666750Y153225D02*
D03*
Y133794D02*
D03*
X781050Y663321D02*
D03*
Y643890D02*
D03*
X99060Y274764D02*
D03*
Y294195D02*
D03*
X811530Y170625D02*
D03*
Y190056D02*
D03*
X367030Y164655D02*
D03*
Y145225D02*
D03*
X576580Y669734D02*
D03*
Y689165D02*
D03*
D40*
X497800Y161250D02*
D03*
D41*
X558800Y69850D02*
D03*
D42*
X425900D02*
D03*
D43*
X527050Y442600D02*
D03*
Y459100D02*
D03*
X140970Y276230D02*
D03*
Y292730D02*
D03*
X99060Y378450D02*
D03*
Y361950D02*
D03*
D44*
X681990Y487240D02*
D03*
Y457640D02*
D03*
X165540Y442400D02*
D03*
Y472000D02*
D03*
D45*
X130810Y443120D02*
D03*
Y461120D02*
D03*
D46*
X616990Y789940D02*
D03*
X645390D02*
D03*
D47*
X479430Y582930D02*
D03*
X508630D02*
D03*
D48*
X780350Y789940D02*
D03*
X692850D02*
D03*
D49*
X212090Y486410D02*
D03*
X195590D02*
D03*
D50*
X338190Y423180D02*
D03*
X324190D02*
D03*
X352190D02*
D03*
X324190Y409180D02*
D03*
X338190D02*
D03*
X352190D02*
D03*
X324190Y437180D02*
D03*
X338190D02*
D03*
X352190D02*
D03*
D51*
X265690Y500380D02*
D03*
Y487680D02*
D03*
Y474980D02*
D03*
Y462280D02*
D03*
Y449580D02*
D03*
Y436880D02*
D03*
Y424180D02*
D03*
Y411480D02*
D03*
Y398780D02*
D03*
Y386080D02*
D03*
Y373380D02*
D03*
Y360680D02*
D03*
Y347980D02*
D03*
Y335280D02*
D03*
X440690D02*
D03*
Y347980D02*
D03*
Y360680D02*
D03*
Y373380D02*
D03*
Y386080D02*
D03*
Y398780D02*
D03*
Y411480D02*
D03*
Y424180D02*
D03*
Y436880D02*
D03*
Y449580D02*
D03*
Y462280D02*
D03*
Y474980D02*
D03*
Y487680D02*
D03*
Y500380D02*
D03*
D52*
X283340Y322780D02*
D03*
X296040D02*
D03*
X308740D02*
D03*
X321440D02*
D03*
X334140D02*
D03*
X346840D02*
D03*
X359540D02*
D03*
X372240D02*
D03*
X384940D02*
D03*
X397640D02*
D03*
X410340D02*
D03*
X423040D02*
D03*
D53*
X629110Y458470D02*
D03*
X610410D02*
D03*
X473250Y335280D02*
D03*
X491950D02*
D03*
X471980Y487680D02*
D03*
X490680D02*
D03*
D54*
X440400Y688340D02*
D03*
X458700D02*
D03*
X477000D02*
D03*
X495300D02*
D03*
X513600D02*
D03*
D55*
X477000Y807340D02*
D03*
D56*
X692150Y671830D02*
D03*
Y690530D02*
D03*
D57*
Y622300D02*
D03*
Y595300D02*
D03*
D58*
X530060Y335280D02*
D03*
X557060D02*
D03*
X533870Y487680D02*
D03*
X560870D02*
D03*
D59*
X830640Y483260D02*
D03*
Y466260D02*
D03*
X774640Y483260D02*
D03*
Y466260D02*
D03*
D60*
X497840Y240030D02*
D03*
Y265430D02*
D03*
X617220Y237490D02*
D03*
Y262890D02*
D03*
X557530Y217170D02*
D03*
Y242570D02*
D03*
D61*
X63500Y44450D02*
D03*
X88900D02*
D03*
X114300D02*
D03*
X139700D02*
D03*
X63500Y69850D02*
D03*
X88900D02*
D03*
X114300D02*
D03*
X139700D02*
D03*
X736600Y49530D02*
D03*
X762000D02*
D03*
X787400D02*
D03*
X812800D02*
D03*
X736600Y74930D02*
D03*
X762000D02*
D03*
X787400D02*
D03*
X812800D02*
D03*
D62*
X378460Y676910D02*
D03*
Y702310D02*
D03*
X353060Y676910D02*
D03*
Y702310D02*
D03*
X327660Y676910D02*
D03*
Y702310D02*
D03*
X302260Y676910D02*
D03*
Y702310D02*
D03*
X276860Y676910D02*
D03*
Y702310D02*
D03*
X251460Y676910D02*
D03*
Y702310D02*
D03*
X226060Y676910D02*
D03*
Y702310D02*
D03*
X200660Y676910D02*
D03*
Y702310D02*
D03*
X175260Y676910D02*
D03*
Y702310D02*
D03*
X149860Y676910D02*
D03*
Y702310D02*
D03*
X124460Y676910D02*
D03*
Y702310D02*
D03*
X99060Y676910D02*
D03*
Y702310D02*
D03*
X73660Y676910D02*
D03*
Y702310D02*
D03*
X48260Y676910D02*
D03*
Y702310D02*
D03*
X22860Y676910D02*
D03*
Y702310D02*
D03*
D63*
Y328930D02*
D03*
Y341930D02*
D03*
X32860Y322430D02*
D03*
Y335430D02*
D03*
Y348430D02*
D03*
D64*
X30660Y371180D02*
D03*
Y299680D02*
D03*
D65*
X802640Y488510D02*
D03*
Y461010D02*
D03*
D66*
X124460Y175260D02*
D03*
X721360Y283210D02*
D03*
X410210Y276860D02*
D03*
X294640Y252730D02*
D03*
X281940Y289560D02*
D03*
X636270Y195580D02*
D03*
X557530Y298450D02*
D03*
X613410Y33020D02*
D03*
X143510Y132080D02*
D03*
X775970Y216535D02*
D03*
X143510Y567690D02*
D03*
X165100Y523240D02*
D03*
X172720Y398780D02*
D03*
X191347D02*
D03*
X209973D02*
D03*
X228600D02*
D03*
X308610Y276860D02*
D03*
X74930Y782320D02*
D03*
X545293Y582668D02*
D03*
X346710Y298450D02*
D03*
X372110D02*
D03*
X321310D02*
D03*
X384810Y276860D02*
D03*
X400050Y360680D02*
D03*
X400063Y435597D02*
D03*
X400050Y410633D02*
D03*
X417155Y424802D02*
D03*
X417830Y398780D02*
D03*
Y373380D02*
D03*
X400050Y385657D02*
D03*
X417830Y347980D02*
D03*
X683260Y535940D02*
D03*
X576580Y629920D02*
D03*
X99060Y224790D02*
D03*
X464820Y240030D02*
D03*
X73660Y294640D02*
D03*
X422910Y298450D02*
D03*
X397510D02*
D03*
X359410Y276860D02*
D03*
X334010D02*
D03*
M02*
