G04*
G04 #@! TF.GenerationSoftware,Altium Limited,Altium Designer,25.3.3 (18)*
G04*
G04 Layer_Physical_Order=2*
G04 Layer_Color=16711680*
%FSLAX44Y44*%
%MOMM*%
G71*
G04*
G04 #@! TF.SameCoordinates,28098AB9-3807-4A49-8781-5BF9FE85299D*
G04*
G04*
G04 #@! TF.FilePolarity,Positive*
G04*
G01*
G75*
%ADD61C,1.7018*%
%ADD67C,0.7620*%
%ADD68C,1.0160*%
%ADD69C,0.3810*%
%ADD70C,1.5240*%
%ADD71C,2.0320*%
%ADD72C,0.4000*%
%ADD73C,0.9000*%
%ADD74O,1.8500X0.9000*%
%ADD75C,0.7500*%
%ADD76C,1.2700*%
G36*
X891540D02*
X1270D01*
X0Y1270D01*
Y891540D01*
X891540D01*
Y0D01*
D02*
G37*
%LPC*%
G36*
X515620Y866085D02*
X199300D01*
X197863Y865799D01*
X196644Y864985D01*
X117734Y786075D01*
X82147D01*
X81434Y787311D01*
X79921Y788824D01*
X78067Y789894D01*
X76000Y790448D01*
X73860D01*
X71793Y789894D01*
X69939Y788824D01*
X68426Y787311D01*
X67356Y785457D01*
X66802Y783390D01*
Y781250D01*
X67356Y779183D01*
X68426Y777329D01*
X69939Y775816D01*
X71793Y774746D01*
X73860Y774192D01*
X76000D01*
X78067Y774746D01*
X79921Y775816D01*
X81434Y777329D01*
X82147Y778565D01*
X114226D01*
X115684Y775045D01*
X53632Y712993D01*
X52868Y713435D01*
X49832Y714248D01*
X46688D01*
X43652Y713435D01*
X40930Y711863D01*
X38707Y709640D01*
X38089Y708570D01*
X38014Y708540D01*
X33823Y708722D01*
X33022Y710108D01*
X30658Y712473D01*
X27762Y714145D01*
X24532Y715010D01*
X24130D01*
Y702310D01*
X22860D01*
Y701040D01*
X10160D01*
Y700638D01*
X11026Y697408D01*
X12697Y694512D01*
X15062Y692148D01*
X16448Y691347D01*
X16630Y687157D01*
X16600Y687081D01*
X15530Y686463D01*
X13307Y684240D01*
X11736Y681518D01*
X10922Y678482D01*
Y675338D01*
X11736Y672302D01*
X13307Y669580D01*
X15530Y667357D01*
X18252Y665786D01*
X19105Y665557D01*
Y398780D01*
X19391Y397343D01*
X20205Y396125D01*
X34938Y381391D01*
X33360Y377581D01*
X25910D01*
X23461Y377094D01*
X21384Y375706D01*
X19996Y373630D01*
X19509Y371180D01*
X19996Y368731D01*
X21384Y366654D01*
X23461Y365266D01*
X25910Y364779D01*
X35410D01*
X37860Y365266D01*
X39936Y366654D01*
X41324Y368731D01*
X41471Y369470D01*
X45462Y370867D01*
X129425Y286905D01*
X130643Y286091D01*
X132080Y285805D01*
X274723D01*
X275436Y284569D01*
X276949Y283056D01*
X278803Y281986D01*
X280870Y281432D01*
X283010D01*
X285077Y281986D01*
X286931Y283056D01*
X288444Y284569D01*
X289514Y286423D01*
X290068Y288490D01*
Y290630D01*
X289514Y292697D01*
X288444Y294551D01*
X286931Y296064D01*
X285077Y297134D01*
X283010Y297688D01*
X280870D01*
X278803Y297134D01*
X276949Y296064D01*
X275436Y294551D01*
X274723Y293315D01*
X133635D01*
X26615Y400335D01*
Y665557D01*
X27468Y665786D01*
X30190Y667357D01*
X32413Y669580D01*
X33443Y671364D01*
X34920Y671739D01*
X36200D01*
X37677Y671364D01*
X38707Y669580D01*
X40930Y667357D01*
X43652Y665786D01*
X44505Y665557D01*
Y427990D01*
X44791Y426553D01*
X45605Y425335D01*
X116725Y354215D01*
X117943Y353401D01*
X119380Y353115D01*
X161290D01*
X162727Y353401D01*
X163945Y354215D01*
X175375Y365645D01*
X176189Y366863D01*
X176475Y368300D01*
Y391563D01*
X177711Y392276D01*
X179224Y393789D01*
X179976Y395092D01*
X182033Y395390D01*
X184091Y395092D01*
X184843Y393789D01*
X186356Y392276D01*
X188209Y391206D01*
X190277Y390652D01*
X192417D01*
X194484Y391206D01*
X196337Y392276D01*
X197851Y393789D01*
X198603Y395092D01*
X200660Y395390D01*
X202717Y395092D01*
X203469Y393789D01*
X204983Y392276D01*
X206836Y391206D01*
X208903Y390652D01*
X211043D01*
X213111Y391206D01*
X214964Y392276D01*
X216477Y393789D01*
X217229Y395092D01*
X219287Y395390D01*
X221344Y395092D01*
X222096Y393789D01*
X223609Y392276D01*
X225463Y391206D01*
X227530Y390652D01*
X229670D01*
X231737Y391206D01*
X233591Y392276D01*
X235104Y393789D01*
X236174Y395643D01*
X236728Y397710D01*
Y399850D01*
X236174Y401917D01*
X235104Y403771D01*
X233591Y405284D01*
X231737Y406354D01*
X229670Y406908D01*
X227530D01*
X226152Y406539D01*
X204585Y428105D01*
X203367Y428919D01*
X201930Y429205D01*
X164115D01*
X128215Y465105D01*
Y665557D01*
X129068Y665786D01*
X131790Y667357D01*
X134013Y669580D01*
X135043Y671364D01*
X136520Y671739D01*
X137800D01*
X139277Y671364D01*
X140307Y669580D01*
X142530Y667357D01*
X145252Y665786D01*
X148288Y664972D01*
X151432D01*
X154468Y665786D01*
X157190Y667357D01*
X159413Y669580D01*
X160443Y671364D01*
X161920Y671739D01*
X163200D01*
X164677Y671364D01*
X165707Y669580D01*
X167930Y667357D01*
X170652Y665786D01*
X173688Y664972D01*
X176832D01*
X179868Y665786D01*
X180632Y666227D01*
X189285Y657575D01*
Y547174D01*
X188099Y545988D01*
X187285Y544769D01*
X186999Y543332D01*
Y520928D01*
X187285Y519491D01*
X188099Y518272D01*
X189285Y517086D01*
Y462280D01*
X189571Y460843D01*
X190385Y459625D01*
X304855Y345155D01*
Y284077D01*
X303619Y283364D01*
X302106Y281851D01*
X301036Y279997D01*
X300482Y277930D01*
Y275790D01*
X301036Y273723D01*
X302106Y271869D01*
X303619Y270356D01*
X305473Y269286D01*
X307540Y268732D01*
X309680D01*
X311747Y269286D01*
X313601Y270356D01*
X315114Y271869D01*
X316184Y273723D01*
X316738Y275790D01*
Y277930D01*
X316184Y279997D01*
X315114Y281851D01*
X313601Y283364D01*
X312365Y284077D01*
Y290512D01*
X316175Y292090D01*
X316319Y291946D01*
X318173Y290876D01*
X320240Y290322D01*
X322380D01*
X324447Y290876D01*
X326301Y291946D01*
X326445Y292090D01*
X330255Y290512D01*
Y284077D01*
X329019Y283364D01*
X327506Y281851D01*
X326436Y279997D01*
X325882Y277930D01*
Y275790D01*
X326436Y273723D01*
X327506Y271869D01*
X329019Y270356D01*
X330873Y269286D01*
X332940Y268732D01*
X335080D01*
X337147Y269286D01*
X339001Y270356D01*
X340514Y271869D01*
X341584Y273723D01*
X342138Y275790D01*
Y277930D01*
X341584Y279997D01*
X340514Y281851D01*
X339001Y283364D01*
X337765Y284077D01*
Y290512D01*
X341575Y292090D01*
X341719Y291946D01*
X343573Y290876D01*
X345640Y290322D01*
X347780D01*
X349847Y290876D01*
X351701Y291946D01*
X351845Y292090D01*
X355655Y290512D01*
Y284077D01*
X354419Y283364D01*
X352906Y281851D01*
X351836Y279997D01*
X351282Y277930D01*
Y275790D01*
X351836Y273723D01*
X352906Y271869D01*
X354419Y270356D01*
X356273Y269286D01*
X358340Y268732D01*
X360480D01*
X362547Y269286D01*
X364401Y270356D01*
X365914Y271869D01*
X366984Y273723D01*
X367538Y275790D01*
Y277930D01*
X366984Y279997D01*
X365914Y281851D01*
X364401Y283364D01*
X363165Y284077D01*
Y290512D01*
X366975Y292090D01*
X367119Y291946D01*
X368973Y290876D01*
X371040Y290322D01*
X373180D01*
X375247Y290876D01*
X377101Y291946D01*
X377245Y292090D01*
X381055Y290512D01*
Y284077D01*
X379819Y283364D01*
X378306Y281851D01*
X377236Y279997D01*
X376682Y277930D01*
Y275790D01*
X377236Y273723D01*
X378306Y271869D01*
X379819Y270356D01*
X381673Y269286D01*
X383740Y268732D01*
X385880D01*
X387947Y269286D01*
X389801Y270356D01*
X390759Y271314D01*
X393344Y271519D01*
X395315Y271178D01*
X403083Y263410D01*
X404302Y262596D01*
X405739Y262310D01*
X411197D01*
X412750Y258756D01*
X410916Y256485D01*
X301857D01*
X301144Y257721D01*
X299631Y259234D01*
X297777Y260304D01*
X295710Y260858D01*
X293570D01*
X291503Y260304D01*
X289649Y259234D01*
X288136Y257721D01*
X287066Y255867D01*
X286512Y253800D01*
Y251660D01*
X287066Y249593D01*
X288136Y247739D01*
X289649Y246226D01*
X291503Y245156D01*
X293570Y244602D01*
X295710D01*
X297777Y245156D01*
X299631Y246226D01*
X301144Y247739D01*
X301857Y248975D01*
X412840D01*
X414277Y249261D01*
X415495Y250075D01*
X444876Y279455D01*
X714143D01*
X714856Y278219D01*
X716369Y276706D01*
X718223Y275636D01*
X720290Y275082D01*
X722430D01*
X724497Y275636D01*
X726351Y276706D01*
X727864Y278219D01*
X728934Y280073D01*
X729488Y282140D01*
Y284280D01*
X728934Y286347D01*
X727864Y288201D01*
X726351Y289714D01*
X724497Y290784D01*
X722430Y291338D01*
X720290D01*
X718223Y290784D01*
X716369Y289714D01*
X714856Y288201D01*
X714143Y286965D01*
X560793D01*
X560291Y290775D01*
X560667Y290876D01*
X562521Y291946D01*
X564034Y293459D01*
X565104Y295313D01*
X565444Y296582D01*
X665291Y396429D01*
X666391Y397861D01*
X667082Y399530D01*
X667317Y401320D01*
Y530860D01*
X667082Y532650D01*
X666391Y534319D01*
X665291Y535751D01*
X613221Y587821D01*
X611789Y588921D01*
X610120Y589612D01*
X608330Y589847D01*
X549115D01*
X548431Y590242D01*
X548327Y590270D01*
X547115Y594445D01*
X553835Y601166D01*
X554649Y602384D01*
X554935Y603821D01*
Y826770D01*
X554649Y828207D01*
X553835Y829425D01*
X518275Y864985D01*
X517057Y865799D01*
X515620Y866085D01*
D02*
G37*
G36*
X21590Y715010D02*
X21188D01*
X17958Y714145D01*
X15062Y712473D01*
X12697Y710108D01*
X11026Y707212D01*
X10160Y703982D01*
Y703580D01*
X21590D01*
Y715010D01*
D02*
G37*
G36*
X144580Y575818D02*
X142440D01*
X140373Y575264D01*
X138519Y574194D01*
X137006Y572681D01*
X135936Y570827D01*
X135382Y568760D01*
Y566620D01*
X135936Y564553D01*
X137006Y562699D01*
X138519Y561186D01*
X140373Y560116D01*
X141642Y559776D01*
X158183Y543235D01*
Y527515D01*
X157526Y526377D01*
X156972Y524310D01*
Y522170D01*
X157526Y520103D01*
X158596Y518249D01*
X160109Y516736D01*
X161963Y515666D01*
X164030Y515112D01*
X166170D01*
X168237Y515666D01*
X170091Y516736D01*
X171604Y518249D01*
X172674Y520103D01*
X173228Y522170D01*
Y524310D01*
X172674Y526377D01*
X172017Y527515D01*
Y546100D01*
X171782Y547890D01*
X171091Y549559D01*
X169991Y550991D01*
X151424Y569558D01*
X151084Y570827D01*
X150014Y572681D01*
X148501Y574194D01*
X146647Y575264D01*
X144580Y575818D01*
D02*
G37*
G36*
X803740Y494038D02*
X801540D01*
X799509Y493196D01*
X797954Y491641D01*
X797112Y489610D01*
Y487410D01*
X797954Y485379D01*
X799509Y483824D01*
X801540Y482982D01*
X803740D01*
X805771Y483824D01*
X807326Y485379D01*
X808168Y487410D01*
Y489610D01*
X807326Y491641D01*
X805771Y493196D01*
X803740Y494038D01*
D02*
G37*
G36*
Y466538D02*
X801540D01*
X799509Y465696D01*
X797954Y464141D01*
X797112Y462110D01*
Y459910D01*
X797954Y457879D01*
X799509Y456324D01*
X801540Y455482D01*
X803740D01*
X805771Y456324D01*
X807326Y457879D01*
X808168Y459910D01*
Y462110D01*
X807326Y464141D01*
X805771Y465696D01*
X803740Y466538D01*
D02*
G37*
G36*
X51620Y355347D02*
X49830Y355112D01*
X48161Y354421D01*
X47780Y354128D01*
X35510D01*
X34109Y354708D01*
X31611D01*
X29304Y353752D01*
X27538Y351986D01*
X26582Y349679D01*
X24109Y348208D01*
X23062Y348208D01*
X21611D01*
X19304Y347252D01*
X17538Y345486D01*
X16582Y343179D01*
Y340681D01*
X17538Y338374D01*
X18401Y335082D01*
X17454Y333480D01*
X17227Y333253D01*
X16300Y331647D01*
X15912Y330200D01*
X22860D01*
Y328930D01*
X24130D01*
Y321825D01*
X25813Y321505D01*
X26300Y319713D01*
X27227Y318107D01*
X28537Y316797D01*
X30143Y315870D01*
X31590Y315482D01*
Y322430D01*
X32860D01*
Y323700D01*
X39808D01*
X39420Y325147D01*
X38493Y326753D01*
X38266Y326980D01*
X37319Y328582D01*
X38182Y331874D01*
X39138Y334181D01*
Y336679D01*
X38182Y338986D01*
X39824Y342733D01*
X47535D01*
X66743Y323525D01*
Y298915D01*
X66086Y297777D01*
X65532Y295710D01*
Y293570D01*
X66086Y291503D01*
X67156Y289649D01*
X68669Y288136D01*
X70523Y287066D01*
X72590Y286512D01*
X74730D01*
X76797Y287066D01*
X78651Y288136D01*
X80164Y289649D01*
X81234Y291503D01*
X81788Y293570D01*
Y295710D01*
X81234Y297777D01*
X80577Y298915D01*
Y326390D01*
X80342Y328180D01*
X79651Y329849D01*
X78551Y331281D01*
X56511Y353321D01*
X55079Y354421D01*
X53410Y355112D01*
X51620Y355347D01*
D02*
G37*
G36*
X21590Y327660D02*
X15912D01*
X16300Y326213D01*
X17227Y324607D01*
X18537Y323297D01*
X20143Y322370D01*
X21590Y321982D01*
Y327660D01*
D02*
G37*
G36*
X39808Y321160D02*
X34130D01*
Y315482D01*
X35577Y315870D01*
X37183Y316797D01*
X38493Y318107D01*
X39420Y319713D01*
X39808Y321160D01*
D02*
G37*
G36*
X35410Y306081D02*
X25910D01*
X23461Y305594D01*
X21384Y304206D01*
X19996Y302129D01*
X19509Y299680D01*
X19996Y297230D01*
X21384Y295154D01*
X23461Y293766D01*
X25910Y293279D01*
X35410D01*
X37860Y293766D01*
X39936Y295154D01*
X41324Y297230D01*
X41811Y299680D01*
X41324Y302129D01*
X39936Y304206D01*
X37860Y305594D01*
X35410Y306081D01*
D02*
G37*
G36*
X499077Y274828D02*
X496603D01*
X494212Y274188D01*
X492070Y272950D01*
X490320Y271201D01*
X489082Y269058D01*
X488442Y266667D01*
Y264193D01*
X489082Y261803D01*
X490320Y259660D01*
X492070Y257910D01*
X494212Y256672D01*
X496603Y256032D01*
X499077D01*
X501468Y256672D01*
X503610Y257910D01*
X505360Y259660D01*
X506598Y261803D01*
X507238Y264193D01*
Y266667D01*
X506598Y269058D01*
X505360Y271201D01*
X503610Y272950D01*
X501468Y274188D01*
X499077Y274828D01*
D02*
G37*
G36*
X618457Y272288D02*
X615983D01*
X613592Y271647D01*
X611450Y270410D01*
X609700Y268661D01*
X608462Y266518D01*
X607822Y264127D01*
Y261653D01*
X608462Y259263D01*
X609700Y257120D01*
X611450Y255370D01*
X613592Y254132D01*
X615983Y253492D01*
X618457D01*
X620848Y254132D01*
X622990Y255370D01*
X624740Y257120D01*
X625978Y259263D01*
X626618Y261653D01*
Y264127D01*
X625978Y266518D01*
X624740Y268661D01*
X622990Y270410D01*
X620848Y271647D01*
X618457Y272288D01*
D02*
G37*
G36*
X558767Y251968D02*
X556293D01*
X553903Y251327D01*
X551759Y250090D01*
X550010Y248340D01*
X548773Y246197D01*
X548132Y243807D01*
Y241333D01*
X548773Y238943D01*
X550010Y236800D01*
X551759Y235050D01*
X553903Y233813D01*
X556293Y233172D01*
X558767D01*
X561157Y233813D01*
X563301Y235050D01*
X565050Y236800D01*
X566287Y238943D01*
X566928Y241333D01*
Y243807D01*
X566287Y246197D01*
X565050Y248340D01*
X563301Y250090D01*
X561157Y251327D01*
X558767Y251968D01*
D02*
G37*
G36*
X465890Y248158D02*
X463750D01*
X461683Y247604D01*
X459829Y246534D01*
X458316Y245021D01*
X457246Y243167D01*
X457158Y242837D01*
X446027Y231707D01*
X103335D01*
X102197Y232364D01*
X100130Y232918D01*
X97990D01*
X95923Y232364D01*
X94069Y231294D01*
X92556Y229781D01*
X91486Y227927D01*
X90932Y225860D01*
Y223720D01*
X91486Y221653D01*
X92556Y219799D01*
X94069Y218286D01*
X95923Y217216D01*
X97990Y216662D01*
X100130D01*
X102197Y217216D01*
X103335Y217873D01*
X448893D01*
X450683Y218109D01*
X452351Y218799D01*
X453784Y219899D01*
X465787Y231902D01*
X465890D01*
X467957Y232456D01*
X469811Y233526D01*
X471324Y235039D01*
X472394Y236893D01*
X472948Y238960D01*
Y241100D01*
X472394Y243167D01*
X471324Y245021D01*
X469811Y246534D01*
X467957Y247604D01*
X465890Y248158D01*
D02*
G37*
G36*
X499077Y249428D02*
X496603D01*
X494212Y248787D01*
X492070Y247550D01*
X490320Y245800D01*
X489082Y243657D01*
X488442Y241267D01*
Y238793D01*
X489082Y236402D01*
X490320Y234259D01*
X492070Y232510D01*
X494212Y231273D01*
X496603Y230632D01*
X499077D01*
X501468Y231273D01*
X503610Y232510D01*
X505360Y234259D01*
X506598Y236402D01*
X507238Y238793D01*
Y241267D01*
X506598Y243657D01*
X505360Y245800D01*
X503610Y247550D01*
X501468Y248787D01*
X499077Y249428D01*
D02*
G37*
G36*
X618457Y246888D02*
X615983D01*
X613592Y246248D01*
X611450Y245010D01*
X609700Y243260D01*
X608462Y241117D01*
X607822Y238727D01*
Y236253D01*
X608462Y233862D01*
X609700Y231719D01*
X611450Y229970D01*
X613592Y228732D01*
X615983Y228092D01*
X618457D01*
X620848Y228732D01*
X622990Y229970D01*
X624740Y231719D01*
X625978Y233862D01*
X626618Y236253D01*
Y238727D01*
X625978Y241117D01*
X624740Y243260D01*
X622990Y245010D01*
X620848Y246248D01*
X618457Y246888D01*
D02*
G37*
G36*
X577650Y638048D02*
X575510D01*
X573443Y637494D01*
X571589Y636424D01*
X570076Y634911D01*
X569006Y633057D01*
X568452Y630990D01*
Y628850D01*
X569006Y626783D01*
X570076Y624929D01*
X571589Y623416D01*
X573443Y622346D01*
X575510Y621792D01*
X577650D01*
X579717Y622346D01*
X580855Y623003D01*
X586415D01*
X675346Y534072D01*
X675686Y532803D01*
X676756Y530949D01*
X678269Y529436D01*
X680123Y528366D01*
X682190Y527812D01*
X684330D01*
X686397Y528366D01*
X687535Y529023D01*
X797235D01*
X857953Y468305D01*
Y287345D01*
X787908Y217300D01*
X786536Y217410D01*
X783829Y218609D01*
X783544Y219672D01*
X782474Y221526D01*
X780961Y223039D01*
X779107Y224109D01*
X777040Y224663D01*
X774900D01*
X772833Y224109D01*
X771695Y223452D01*
X657225D01*
X655435Y223216D01*
X653766Y222526D01*
X652334Y221426D01*
X634402Y203494D01*
X633133Y203154D01*
X631279Y202084D01*
X629766Y200571D01*
X628696Y198717D01*
X628142Y196650D01*
Y194510D01*
X628696Y192443D01*
X629766Y190589D01*
X631279Y189076D01*
X633133Y188006D01*
X635200Y187452D01*
X637340D01*
X639407Y188006D01*
X641261Y189076D01*
X642774Y190589D01*
X643844Y192443D01*
X644184Y193712D01*
X660090Y209618D01*
X771695D01*
X772833Y208961D01*
X773896Y208676D01*
X775095Y205969D01*
X775205Y204597D01*
X752785Y182177D01*
X128735D01*
X127597Y182834D01*
X125530Y183388D01*
X123390D01*
X121323Y182834D01*
X119469Y181764D01*
X117956Y180251D01*
X116886Y178397D01*
X116332Y176330D01*
Y174190D01*
X116886Y172123D01*
X117956Y170269D01*
X119469Y168756D01*
X121323Y167686D01*
X123390Y167132D01*
X125530D01*
X127597Y167686D01*
X128735Y168343D01*
X755650D01*
X757440Y168578D01*
X759109Y169270D01*
X760541Y170369D01*
X761811Y171639D01*
X761811Y171639D01*
X869761Y279589D01*
X870861Y281021D01*
X871552Y282690D01*
X871787Y284480D01*
Y471170D01*
X871552Y472960D01*
X870861Y474629D01*
X869761Y476061D01*
X804991Y540831D01*
X803559Y541931D01*
X801890Y542621D01*
X800100Y542857D01*
X687535D01*
X686397Y543514D01*
X685128Y543854D01*
X594171Y634811D01*
X592739Y635910D01*
X591070Y636601D01*
X589280Y636837D01*
X580855D01*
X579717Y637494D01*
X577650Y638048D01*
D02*
G37*
G36*
X558767Y226568D02*
X556293D01*
X553903Y225928D01*
X551759Y224690D01*
X550010Y222941D01*
X548773Y220798D01*
X548132Y218407D01*
Y215933D01*
X548773Y213542D01*
X550010Y211399D01*
X551759Y209650D01*
X553903Y208412D01*
X556293Y207772D01*
X558767D01*
X561157Y208412D01*
X563301Y209650D01*
X565050Y211399D01*
X566287Y213542D01*
X566928Y215933D01*
Y218407D01*
X566287Y220798D01*
X565050Y222941D01*
X563301Y224690D01*
X561157Y225928D01*
X558767Y226568D01*
D02*
G37*
G36*
X814154Y85217D02*
X811446D01*
X808829Y84516D01*
X806484Y83162D01*
X804568Y81246D01*
X803214Y78901D01*
X802513Y76284D01*
Y73576D01*
X803214Y70959D01*
X804568Y68614D01*
X806484Y66698D01*
X808829Y65344D01*
X811446Y64643D01*
X814154D01*
X816771Y65344D01*
X819116Y66698D01*
X821032Y68614D01*
X822386Y70959D01*
X823087Y73576D01*
Y76284D01*
X822386Y78901D01*
X821032Y81246D01*
X819116Y83162D01*
X816771Y84516D01*
X814154Y85217D01*
D02*
G37*
G36*
X788754D02*
X786046D01*
X783429Y84516D01*
X781084Y83162D01*
X779168Y81246D01*
X777814Y78901D01*
X777113Y76284D01*
Y73576D01*
X777814Y70959D01*
X779168Y68614D01*
X781084Y66698D01*
X783429Y65344D01*
X786046Y64643D01*
X788754D01*
X791371Y65344D01*
X793716Y66698D01*
X795632Y68614D01*
X796986Y70959D01*
X797687Y73576D01*
Y76284D01*
X796986Y78901D01*
X795632Y81246D01*
X793716Y83162D01*
X791371Y84516D01*
X788754Y85217D01*
D02*
G37*
G36*
X688340Y152345D02*
X116840D01*
X115403Y152059D01*
X114185Y151245D01*
X86245Y123305D01*
X85431Y122087D01*
X85145Y120650D01*
Y79494D01*
X84929Y79436D01*
X82584Y78082D01*
X80668Y76166D01*
X79314Y73821D01*
X78613Y71204D01*
Y68496D01*
X79314Y65879D01*
X80668Y63534D01*
X82584Y61618D01*
X84929Y60264D01*
X87546Y59563D01*
X90254D01*
X92871Y60264D01*
X95216Y61618D01*
X97132Y63534D01*
X98486Y65879D01*
X99187Y68496D01*
Y71204D01*
X98486Y73821D01*
X97132Y76166D01*
X95216Y78082D01*
X92871Y79436D01*
X92655Y79494D01*
Y119095D01*
X118395Y144835D01*
X686785D01*
X752526Y79094D01*
X752414Y78901D01*
X751713Y76284D01*
Y73576D01*
X752414Y70959D01*
X753768Y68614D01*
X755684Y66698D01*
X758029Y65344D01*
X760646Y64643D01*
X763354D01*
X765971Y65344D01*
X768316Y66698D01*
X770232Y68614D01*
X771586Y70959D01*
X772287Y73576D01*
Y76284D01*
X771586Y78901D01*
X770232Y81246D01*
X768316Y83162D01*
X765971Y84516D01*
X763354Y85217D01*
X760646D01*
X758029Y84516D01*
X757836Y84404D01*
X690995Y151245D01*
X689777Y152059D01*
X688340Y152345D01*
D02*
G37*
G36*
X144580Y140208D02*
X142440D01*
X140373Y139654D01*
X138519Y138584D01*
X137006Y137071D01*
X135936Y135217D01*
X135382Y133150D01*
Y131010D01*
X135936Y128943D01*
X137006Y127089D01*
X138519Y125576D01*
X140373Y124506D01*
X142440Y123952D01*
X144580D01*
X146647Y124506D01*
X148501Y125576D01*
X150014Y127089D01*
X150727Y128325D01*
X677895D01*
X727126Y79094D01*
X727014Y78901D01*
X726313Y76284D01*
Y73576D01*
X727014Y70959D01*
X728368Y68614D01*
X730284Y66698D01*
X732629Y65344D01*
X735246Y64643D01*
X737954D01*
X740571Y65344D01*
X742916Y66698D01*
X744832Y68614D01*
X746186Y70959D01*
X746887Y73576D01*
Y76284D01*
X746186Y78901D01*
X744832Y81246D01*
X742916Y83162D01*
X740571Y84516D01*
X737954Y85217D01*
X735246D01*
X732629Y84516D01*
X732436Y84404D01*
X682105Y134735D01*
X680887Y135549D01*
X679450Y135835D01*
X150727D01*
X150014Y137071D01*
X148501Y138584D01*
X146647Y139654D01*
X144580Y140208D01*
D02*
G37*
G36*
X141054Y80137D02*
X138346D01*
X135729Y79436D01*
X133384Y78082D01*
X131468Y76166D01*
X130114Y73821D01*
X129413Y71204D01*
Y68496D01*
X130114Y65879D01*
X131468Y63534D01*
X133384Y61618D01*
X135729Y60264D01*
X138346Y59563D01*
X141054D01*
X143671Y60264D01*
X146016Y61618D01*
X147932Y63534D01*
X149286Y65879D01*
X149987Y68496D01*
Y71204D01*
X149286Y73821D01*
X147932Y76166D01*
X146016Y78082D01*
X143671Y79436D01*
X141054Y80137D01*
D02*
G37*
G36*
X115654D02*
X112946D01*
X110329Y79436D01*
X107984Y78082D01*
X106068Y76166D01*
X104714Y73821D01*
X104013Y71204D01*
Y68496D01*
X104714Y65879D01*
X106068Y63534D01*
X107984Y61618D01*
X110329Y60264D01*
X112946Y59563D01*
X115654D01*
X118271Y60264D01*
X120616Y61618D01*
X122532Y63534D01*
X123886Y65879D01*
X124587Y68496D01*
Y71204D01*
X123886Y73821D01*
X122532Y76166D01*
X120616Y78082D01*
X118271Y79436D01*
X115654Y80137D01*
D02*
G37*
G36*
X64854D02*
X62146D01*
X59529Y79436D01*
X57184Y78082D01*
X55268Y76166D01*
X53914Y73821D01*
X53213Y71204D01*
Y68496D01*
X53914Y65879D01*
X55268Y63534D01*
X57184Y61618D01*
X59529Y60264D01*
X62146Y59563D01*
X64854D01*
X67471Y60264D01*
X69816Y61618D01*
X71732Y63534D01*
X73086Y65879D01*
X73787Y68496D01*
Y71204D01*
X73086Y73821D01*
X71732Y76166D01*
X69816Y78082D01*
X67471Y79436D01*
X64854Y80137D01*
D02*
G37*
G36*
X64955Y55499D02*
X64770D01*
Y45720D01*
X74549D01*
Y45905D01*
X73796Y48715D01*
X72341Y51234D01*
X70284Y53291D01*
X67765Y54746D01*
X64955Y55499D01*
D02*
G37*
G36*
X62230D02*
X62045D01*
X59235Y54746D01*
X56716Y53291D01*
X54659Y51234D01*
X53204Y48715D01*
X52451Y45905D01*
Y45720D01*
X62230D01*
Y55499D01*
D02*
G37*
G36*
X788754Y59817D02*
X786046D01*
X783429Y59116D01*
X781084Y57762D01*
X779168Y55846D01*
X777814Y53501D01*
X777113Y50884D01*
Y48176D01*
X777814Y45559D01*
X779168Y43214D01*
X781084Y41298D01*
X783429Y39944D01*
X786046Y39243D01*
X788754D01*
X791371Y39944D01*
X793716Y41298D01*
X795632Y43214D01*
X796986Y45559D01*
X797687Y48176D01*
Y50884D01*
X796986Y53501D01*
X795632Y55846D01*
X793716Y57762D01*
X791371Y59116D01*
X788754Y59817D01*
D02*
G37*
G36*
X141054Y54737D02*
X138346D01*
X135729Y54036D01*
X133384Y52682D01*
X131468Y50766D01*
X130114Y48421D01*
X129413Y45804D01*
Y43096D01*
X130114Y40479D01*
X131468Y38134D01*
X133384Y36218D01*
X135729Y34864D01*
X138346Y34163D01*
X141054D01*
X143671Y34864D01*
X146016Y36218D01*
X147932Y38134D01*
X149286Y40479D01*
X149987Y43096D01*
Y45804D01*
X149286Y48421D01*
X147932Y50766D01*
X146016Y52682D01*
X143671Y54036D01*
X141054Y54737D01*
D02*
G37*
G36*
X115654D02*
X112946D01*
X110329Y54036D01*
X107984Y52682D01*
X106068Y50766D01*
X104714Y48421D01*
X104013Y45804D01*
Y43096D01*
X104714Y40479D01*
X106068Y38134D01*
X107984Y36218D01*
X110329Y34864D01*
X112946Y34163D01*
X115654D01*
X118271Y34864D01*
X120616Y36218D01*
X122532Y38134D01*
X123886Y40479D01*
X124587Y43096D01*
Y45804D01*
X123886Y48421D01*
X122532Y50766D01*
X120616Y52682D01*
X118271Y54036D01*
X115654Y54737D01*
D02*
G37*
G36*
X74549Y43180D02*
X64770D01*
Y33401D01*
X64955D01*
X67765Y34154D01*
X70284Y35609D01*
X72341Y37666D01*
X73796Y40185D01*
X74549Y42995D01*
Y43180D01*
D02*
G37*
G36*
X62230D02*
X52451D01*
Y42995D01*
X53204Y40185D01*
X54659Y37666D01*
X56716Y35609D01*
X59235Y34154D01*
X62045Y33401D01*
X62230D01*
Y43180D01*
D02*
G37*
G36*
X710660Y60905D02*
X577850D01*
X576413Y60619D01*
X575195Y59805D01*
X534385Y18995D01*
X119665D01*
X98374Y40286D01*
X98486Y40479D01*
X99187Y43096D01*
Y45804D01*
X98486Y48421D01*
X97132Y50766D01*
X95216Y52682D01*
X92871Y54036D01*
X90254Y54737D01*
X87546D01*
X84929Y54036D01*
X82584Y52682D01*
X80668Y50766D01*
X79314Y48421D01*
X78613Y45804D01*
Y43096D01*
X79314Y40479D01*
X80668Y38134D01*
X82584Y36218D01*
X84929Y34864D01*
X87546Y34163D01*
X90254D01*
X92871Y34864D01*
X93064Y34976D01*
X115455Y12585D01*
X116673Y11771D01*
X118110Y11485D01*
X535940D01*
X537377Y11771D01*
X538595Y12585D01*
X579405Y53395D01*
X709105D01*
X724999Y37501D01*
X723540Y33981D01*
X621538D01*
Y34090D01*
X620984Y36157D01*
X619914Y38011D01*
X618401Y39524D01*
X616547Y40594D01*
X614480Y41148D01*
X612340D01*
X610273Y40594D01*
X608419Y39524D01*
X606906Y38011D01*
X605836Y36157D01*
X605282Y34090D01*
Y31950D01*
X605836Y29883D01*
X606906Y28029D01*
X608419Y26516D01*
X610273Y25446D01*
X612340Y24892D01*
X614480D01*
X616547Y25446D01*
X618396Y26513D01*
X618610Y26471D01*
X793496D01*
X794933Y26757D01*
X796151Y27571D01*
X808636Y40056D01*
X808829Y39944D01*
X811446Y39243D01*
X814154D01*
X816771Y39944D01*
X819116Y41298D01*
X821032Y43214D01*
X822386Y45559D01*
X823087Y48176D01*
Y50884D01*
X822386Y53501D01*
X821032Y55846D01*
X819116Y57762D01*
X816771Y59116D01*
X814154Y59817D01*
X811446D01*
X808829Y59116D01*
X806484Y57762D01*
X804568Y55846D01*
X803214Y53501D01*
X802513Y50884D01*
Y48176D01*
X803214Y45559D01*
X803326Y45366D01*
X791941Y33981D01*
X749660D01*
X748201Y37501D01*
X752209Y41509D01*
X755652Y41300D01*
X756130Y41041D01*
X758029Y39944D01*
X760646Y39243D01*
X763354D01*
X765971Y39944D01*
X768316Y41298D01*
X770232Y43214D01*
X771586Y45559D01*
X772287Y48176D01*
Y50884D01*
X771586Y53501D01*
X770232Y55846D01*
X768316Y57762D01*
X765971Y59116D01*
X763354Y59817D01*
X760646D01*
X758029Y59116D01*
X755684Y57762D01*
X753768Y55846D01*
X752503Y53655D01*
X752309Y53472D01*
X750614Y53004D01*
X746896Y53795D01*
X745441Y56314D01*
X743384Y58371D01*
X740865Y59826D01*
X738055Y60579D01*
X737870D01*
Y49530D01*
X735330D01*
Y60579D01*
X735145D01*
X732335Y59826D01*
X729816Y58371D01*
X727759Y56314D01*
X726304Y53795D01*
X725968Y52541D01*
X722247Y51235D01*
X721857Y51264D01*
X713316Y59805D01*
X712097Y60619D01*
X710660Y60905D01*
D02*
G37*
%LPD*%
D61*
X63500Y44450D02*
D03*
X88900D02*
D03*
X114300D02*
D03*
X139700D02*
D03*
X63500Y69850D02*
D03*
X88900D02*
D03*
X114300D02*
D03*
X139700D02*
D03*
X736600Y49530D02*
D03*
X762000D02*
D03*
X787400D02*
D03*
X812800D02*
D03*
X736600Y74930D02*
D03*
X762000D02*
D03*
X787400D02*
D03*
X812800D02*
D03*
D67*
X32860Y348430D02*
X51620D01*
D68*
X660400Y401320D02*
Y530860D01*
X608330Y582930D02*
X660400Y530860D01*
X545555Y582930D02*
X608330D01*
X124460Y175260D02*
X755650D01*
X756920Y176530D01*
X864870Y284480D01*
X73660Y294640D02*
Y326390D01*
X51620Y348430D02*
X73660Y326390D01*
X99060Y224790D02*
X448893D01*
X463647Y239544D01*
X463990Y239200D01*
X636270Y195580D02*
X657225Y216535D01*
X775970D01*
X557530Y298450D02*
X660400Y401320D01*
X143510Y567690D02*
X165100Y546100D01*
Y523240D02*
Y546100D01*
X864870Y284480D02*
Y471170D01*
X800100Y535940D02*
X864870Y471170D01*
X683260Y535940D02*
X800100D01*
X576580Y629920D02*
X589280D01*
X683260Y535940D01*
D69*
X443320Y283210D02*
X721360D01*
X412840Y252730D02*
X443320Y283210D01*
X294640Y252730D02*
X412840D01*
X405739Y266065D02*
X417195D01*
X535940Y384810D01*
X419620Y286270D02*
X425996D01*
X397510Y274294D02*
Y298450D01*
X410210Y276860D02*
X419620Y286270D01*
X397510Y274294D02*
X405739Y266065D01*
X132080Y289560D02*
X281940D01*
X22860Y398780D02*
X132080Y289560D01*
X462280Y237490D02*
X464820Y240030D01*
X793496Y30226D02*
X812800Y49530D01*
X618610Y30226D02*
X793496D01*
X615816Y33020D02*
X618610Y30226D01*
X613410Y33020D02*
X615816D01*
X749554Y45016D02*
X751786Y47248D01*
X577850Y57150D02*
X710660D01*
X741966Y36576D02*
X749554Y44164D01*
X710660Y57150D02*
X731234Y36576D01*
X741966D01*
X749554Y44164D02*
Y45016D01*
X751786Y47248D02*
X759718D01*
X118110Y15240D02*
X535940D01*
X577850Y57150D01*
X759718Y47248D02*
X762000Y49530D01*
X679450Y132080D02*
X736600Y74930D01*
X143510Y132080D02*
X679450D01*
X688340Y148590D02*
X762000Y74930D01*
X116840Y148590D02*
X688340D01*
X88900Y44450D02*
X118110Y15240D01*
X88900Y69850D02*
Y120650D01*
X116840Y148590D01*
X190754Y520928D02*
X193040Y518642D01*
X199390Y521272D02*
X200660Y520002D01*
X197104Y523558D02*
X199390Y521272D01*
X193040Y545618D02*
Y659130D01*
X175260Y676910D02*
X193040Y659130D01*
X190754Y520928D02*
Y543332D01*
X193040Y545618D01*
X197104Y523558D02*
Y540702D01*
X193040Y462280D02*
Y518642D01*
Y462280D02*
X308610Y346710D01*
X197104Y540702D02*
X199390Y542988D01*
X200660Y544258D01*
X124460Y463550D02*
Y676910D01*
Y463550D02*
X162560Y425450D01*
X201930D01*
X228600Y398780D01*
X189653Y419100D02*
X209973Y398780D01*
X109220Y419100D02*
X189653D01*
X172720Y368300D02*
Y398780D01*
X179917Y410210D02*
X191347Y398780D01*
X84782Y410210D02*
X179917D01*
X99060Y429260D02*
Y676910D01*
Y429260D02*
X109220Y419100D01*
X73660Y421332D02*
Y676910D01*
Y421332D02*
X84782Y410210D01*
X161290Y356870D02*
X172720Y368300D01*
X119380Y356870D02*
X161290D01*
X48260Y427990D02*
X119380Y356870D01*
X48260Y427990D02*
Y676910D01*
X308610Y276860D02*
Y346710D01*
X200660Y466090D02*
Y520002D01*
Y466090D02*
X321310Y345440D01*
Y298450D02*
Y345440D01*
X200660Y544258D02*
Y676910D01*
X119290Y782320D02*
X199300Y862330D01*
X74930Y782320D02*
X119290D01*
X199300Y862330D02*
X515620D01*
X551180Y826770D01*
Y603821D02*
Y826770D01*
X200660Y854710D02*
X514260D01*
X544830Y606451D02*
Y824140D01*
X514260Y854710D02*
X544830Y824140D01*
X48260Y702310D02*
X200660Y854710D01*
X534498Y587140D02*
X551180Y603821D01*
X534498Y578720D02*
Y587140D01*
Y578720D02*
X535940Y577279D01*
Y384810D02*
Y577279D01*
X545293Y582668D02*
X545555Y582930D01*
X523240Y398780D02*
Y572018D01*
X487680Y603183D02*
X488950Y604453D01*
X487680Y562677D02*
Y603183D01*
X488950Y501650D02*
Y561407D01*
X487680Y562677D02*
X488950Y561407D01*
X379492Y793750D02*
X502920Y670322D01*
X494030Y565307D02*
X495300Y564037D01*
X516890Y596472D02*
Y683260D01*
X525780Y578459D02*
X529590Y574649D01*
X488950Y604453D02*
Y655320D01*
X506730Y595292D02*
X509270Y597832D01*
X513080Y592662D02*
X516890Y596472D01*
X529590Y389864D02*
Y574649D01*
X383540Y803910D02*
X509270Y678180D01*
X367030Y767080D02*
X482600Y651510D01*
X494030Y565307D02*
Y600553D01*
X506730Y570568D02*
X509270Y568028D01*
X502920Y600462D02*
Y670322D01*
X460362Y452742D02*
X502920Y495300D01*
X506730Y570568D02*
Y595292D01*
X425996Y286270D02*
X529590Y389864D01*
X495300Y497840D02*
Y564037D01*
Y601823D02*
Y660400D01*
X494030Y600553D02*
X495300Y601823D01*
X525780Y587401D02*
X544830Y606451D01*
X513080Y573198D02*
X516890Y569388D01*
X513080Y573198D02*
Y592662D01*
X525780Y578459D02*
Y587401D01*
X369570Y774700D02*
X488950Y655320D01*
X476250Y506911D02*
Y556147D01*
X474980Y557417D02*
Y608443D01*
X455930Y468630D02*
X488950Y501650D01*
X474980Y557417D02*
X476250Y556147D01*
X474980Y608443D02*
X476250Y609713D01*
Y638810D01*
X458470Y461010D02*
X495300Y497840D01*
X481330Y560047D02*
Y605813D01*
Y560047D02*
X482600Y558777D01*
X480682Y446392D02*
X509270Y474980D01*
X450670Y481330D02*
X476250Y506911D01*
X509270Y597832D02*
Y678180D01*
X519430Y575828D02*
X523240Y572018D01*
X519430Y590032D02*
X523240Y593842D01*
X481330Y605813D02*
X482600Y607083D01*
X500380Y567938D02*
X502920Y565398D01*
X500380Y567938D02*
Y597922D01*
X509270Y474980D02*
Y568028D01*
X386080Y814070D02*
X516890Y683260D01*
X453300Y474980D02*
X482600Y504280D01*
X422910Y298450D02*
X523240Y398780D01*
X519430Y575828D02*
Y590032D01*
X405765Y709295D02*
X476250Y638810D01*
X502920Y495300D02*
Y565398D01*
X388710Y820420D02*
X523240Y685890D01*
X500380Y597922D02*
X502920Y600462D01*
X488937Y435597D02*
X516890Y463550D01*
X523240Y593842D02*
Y685890D01*
X516890Y463550D02*
Y569388D01*
X372110Y783590D02*
X495300Y660400D01*
X482600Y607083D02*
Y651510D01*
Y504280D02*
Y558777D01*
X277145Y802673D02*
X383540Y803910D01*
X124460Y702310D02*
X242570Y820420D01*
X388710D01*
X346710Y298450D02*
Y339644D01*
X372110Y298450D02*
Y332205D01*
X384810Y276860D02*
Y328485D01*
X374295Y347980D02*
X417830D01*
X311395Y410880D02*
X374295Y347980D01*
X311395Y410880D02*
Y435480D01*
X305045Y408250D02*
X384810Y328485D01*
X298695Y405620D02*
X372110Y332205D01*
X285995Y400359D02*
X346710Y339644D01*
X292345Y402989D02*
X359410Y335924D01*
X334010Y276860D02*
Y343364D01*
X279645Y397729D02*
X334010Y343364D01*
X359410Y276860D02*
Y335924D01*
X369570Y391160D02*
X400050Y360680D01*
X353060Y702310D02*
X357528D01*
X365783Y710565D01*
X366060D01*
X372410Y716915D01*
X384510D01*
X393065Y708360D01*
Y670860D02*
Y708360D01*
X346195Y623991D02*
X393065Y670860D01*
X305615Y623991D02*
X346195D01*
X258745Y577121D02*
X305615Y623991D01*
X258745Y513439D02*
Y577121D01*
Y513439D02*
X261349Y510835D01*
X270329D01*
X311395Y469769D01*
Y444460D02*
Y469769D01*
X305045Y438110D02*
X311395Y444460D01*
X305045Y408250D02*
Y438110D01*
X258719Y504485D02*
X267699D01*
X252395Y594115D02*
X302260Y643980D01*
X363430Y716915D02*
X369780Y723265D01*
X246045Y596745D02*
X258745Y609445D01*
X246045Y508178D02*
Y596745D01*
X239695Y505548D02*
Y599376D01*
X251460Y470815D02*
Y493783D01*
X246045Y508178D02*
X257810Y496413D01*
X258745Y609445D02*
Y658795D01*
X302260Y643980D02*
Y676910D01*
X252395Y510809D02*
Y594115D01*
Y510809D02*
X258719Y504485D01*
X269240Y426094D02*
X279645Y415689D01*
X257810Y473445D02*
Y496413D01*
X285995Y400359D02*
Y418320D01*
X363220Y751840D02*
X385445Y729615D01*
X239695Y599376D02*
X251460Y611141D01*
X298695Y440740D02*
X305045Y447090D01*
X239695Y505548D02*
X251460Y493783D01*
X405765Y709295D02*
Y713620D01*
X298695Y405620D02*
Y440740D01*
X387140Y723265D02*
X399415Y710990D01*
X251460Y611141D02*
Y676910D01*
X399415Y702010D02*
X447635Y653790D01*
X389770Y729615D02*
X405765Y713620D01*
X267699Y504485D02*
X305045Y467139D01*
X257810Y473445D02*
X292345Y438910D01*
X279645Y397729D02*
Y415689D01*
X275590Y428725D02*
X285995Y418320D01*
X385445Y729615D02*
X389770D01*
X305045Y447090D02*
Y467139D01*
X292345Y402989D02*
Y438910D01*
X342265Y716915D02*
X363430D01*
X399415Y702010D02*
Y710990D01*
X369780Y723265D02*
X387140D01*
X258745Y658795D02*
X276860Y676910D01*
X311395Y435480D02*
X363595Y487680D01*
X264160Y440155D02*
X269240Y435075D01*
X251460Y470815D02*
X275590Y446685D01*
Y428725D02*
Y446685D01*
X269240Y426094D02*
Y435075D01*
X264160Y440155D02*
Y449135D01*
X226060Y487235D02*
X264160Y449135D01*
X226060Y487235D02*
Y676910D01*
X317745Y413510D02*
Y432850D01*
X356971Y455829D02*
X360127D01*
X317745Y413510D02*
X340095Y391160D01*
X317745Y432850D02*
X340825Y455930D01*
X385629Y481330D02*
X450670D01*
X340825Y455930D02*
X356870D01*
X360127Y455829D02*
X385629Y481330D01*
X356870Y455930D02*
X356971Y455829D01*
X327660Y702310D02*
X342265Y716915D01*
X447635Y513439D02*
Y653790D01*
X421876Y487680D02*
X447635Y513439D01*
X363595Y487680D02*
X421876D01*
X340095Y391160D02*
X369570D01*
X302260Y702310D02*
X326064Y726115D01*
Y731195D01*
X346710Y751840D01*
X363220D01*
X363868Y450589D02*
X388259Y474980D01*
X389268Y431125D02*
Y440068D01*
X395592Y446392D01*
X363868Y406572D02*
Y450589D01*
X370218Y447959D02*
X390889Y468630D01*
X376568Y445329D02*
X392249Y461010D01*
X376568Y418849D02*
Y445329D01*
X370218Y415489D02*
Y447959D01*
X400063Y435597D02*
X488937D01*
X382918Y427765D02*
Y442698D01*
X392962Y452742D01*
X276860Y702310D02*
X341630Y767080D01*
X367030D01*
X388259Y474980D02*
X453300D01*
X363868Y406572D02*
X397060Y373380D01*
X417830D01*
X251460Y702310D02*
X323850Y774700D01*
X369570D01*
X390889Y468630D02*
X455930D01*
X370218Y415489D02*
X400050Y385657D01*
X376568Y418849D02*
X396637Y398780D01*
X22860D02*
Y676910D01*
X382918Y427765D02*
X400050Y410633D01*
X292100Y793750D02*
X379492D01*
X200660Y702310D02*
X292100Y793750D01*
X175260Y702310D02*
X274320Y801370D01*
X275590Y802640D01*
X277145Y802673D01*
X226060Y702310D02*
Y703580D01*
X306070Y783590D01*
X372110D01*
X392249Y461010D02*
X458470D01*
X396637Y398780D02*
X417830D01*
X395592Y424802D02*
X417155D01*
X389268Y431125D02*
X395592Y424802D01*
X417155D02*
X417155Y424802D01*
X392962Y452742D02*
X460362D01*
X395592Y446392D02*
X480682D01*
X261620Y814070D02*
X386080D01*
X149860Y702310D02*
X261620Y814070D01*
D70*
X497840Y240030D02*
D03*
Y265430D02*
D03*
X617220Y237490D02*
D03*
Y262890D02*
D03*
X557530Y217170D02*
D03*
Y242570D02*
D03*
D71*
X378460Y676910D02*
D03*
Y702310D02*
D03*
X353060Y676910D02*
D03*
Y702310D02*
D03*
X327660Y676910D02*
D03*
Y702310D02*
D03*
X302260Y676910D02*
D03*
Y702310D02*
D03*
X276860Y676910D02*
D03*
Y702310D02*
D03*
X251460Y676910D02*
D03*
Y702310D02*
D03*
X226060Y676910D02*
D03*
Y702310D02*
D03*
X200660Y676910D02*
D03*
Y702310D02*
D03*
X175260Y676910D02*
D03*
Y702310D02*
D03*
X149860Y676910D02*
D03*
Y702310D02*
D03*
X124460Y676910D02*
D03*
Y702310D02*
D03*
X99060Y676910D02*
D03*
Y702310D02*
D03*
X73660Y676910D02*
D03*
Y702310D02*
D03*
X48260Y676910D02*
D03*
Y702310D02*
D03*
X22860Y676910D02*
D03*
Y702310D02*
D03*
D72*
X338190Y430180D02*
D03*
X324190D02*
D03*
X352190D02*
D03*
X324190Y416180D02*
D03*
X338190D02*
D03*
X352190D02*
D03*
X331190Y437180D02*
D03*
X345190D02*
D03*
X331190Y423180D02*
D03*
X345190D02*
D03*
X331190Y409180D02*
D03*
X345190D02*
D03*
D73*
X22860Y328930D02*
D03*
Y341930D02*
D03*
X32860Y322430D02*
D03*
Y335430D02*
D03*
Y348430D02*
D03*
D74*
X30660Y371180D02*
D03*
Y299680D02*
D03*
D75*
X802640Y488510D02*
D03*
Y461010D02*
D03*
D76*
X124460Y175260D02*
D03*
X721360Y283210D02*
D03*
X410210Y276860D02*
D03*
X294640Y252730D02*
D03*
X281940Y289560D02*
D03*
X636270Y195580D02*
D03*
X557530Y298450D02*
D03*
X613410Y33020D02*
D03*
X143510Y132080D02*
D03*
X775970Y216535D02*
D03*
X143510Y567690D02*
D03*
X165100Y523240D02*
D03*
X172720Y398780D02*
D03*
X191347D02*
D03*
X209973D02*
D03*
X228600D02*
D03*
X308610Y276860D02*
D03*
X74930Y782320D02*
D03*
X545293Y582668D02*
D03*
X346710Y298450D02*
D03*
X372110D02*
D03*
X321310D02*
D03*
X384810Y276860D02*
D03*
X400050Y360680D02*
D03*
X400063Y435597D02*
D03*
X400050Y410633D02*
D03*
X417155Y424802D02*
D03*
X417830Y398780D02*
D03*
Y373380D02*
D03*
X400050Y385657D02*
D03*
X417830Y347980D02*
D03*
X683260Y535940D02*
D03*
X576580Y629920D02*
D03*
X99060Y224790D02*
D03*
X464820Y240030D02*
D03*
X73660Y294640D02*
D03*
X422910Y298450D02*
D03*
X397510D02*
D03*
X359410Y276860D02*
D03*
X334010D02*
D03*
M02*
