G04*
G04 #@! TF.GenerationSoftware,Altium Limited,Altium Designer,25.3.3 (18)*
G04*
G04 Layer_Color=16711935*
%FSLAX44Y44*%
%MOMM*%
G71*
G04*
G04 #@! TF.SameCoordinates,28098AB9-3807-4A49-8781-5BF9FE85299D*
G04*
G04*
G04 #@! TF.FilePolarity,Positive*
G04*
G01*
G75*
%ADD10C,0.5080*%
%ADD11C,0.2000*%
%ADD13C,0.1000*%
%ADD16C,0.1270*%
%ADD79C,0.0254*%
%ADD80C,0.1692*%
%ADD81C,0.2644*%
G36*
X137310Y447120D02*
Y442120D01*
X124310D01*
Y447120D01*
X137310D01*
D02*
G37*
G36*
Y462120D02*
Y457120D01*
X124310D01*
Y462120D01*
X137310D01*
D02*
G37*
D10*
X143510Y88900D02*
G03*
X143510Y88900I-3810J0D01*
G01*
X816610Y93980D02*
G03*
X816610Y93980I-3810J0D01*
G01*
D11*
X397850Y69850D02*
G03*
X397850Y69850I-1000J0D01*
G01*
X252190Y500380D02*
G03*
X252190Y500380I-1000J0D01*
G01*
D13*
X519800Y439800D02*
X534300D01*
X519800Y461900D02*
X534300D01*
X519800Y439800D02*
Y461900D01*
X534300Y439800D02*
Y461900D01*
X133720Y295530D02*
X148220D01*
X133720Y273430D02*
X148220D01*
Y295530D01*
X133720Y273430D02*
Y295530D01*
X91810Y359150D02*
X106310D01*
X91810Y381250D02*
X106310D01*
X91810Y359150D02*
Y381250D01*
X106310Y359150D02*
Y381250D01*
X192790Y479160D02*
Y493660D01*
X214890Y479160D02*
Y493660D01*
X192790D02*
X214890D01*
X192790Y479160D02*
X214890D01*
X685100Y738440D02*
X788100D01*
X685100Y841440D02*
X788100D01*
Y738440D02*
Y841440D01*
X685100Y738440D02*
Y841440D01*
X423750Y742840D02*
X530250D01*
X423750Y834540D02*
X530250D01*
X423750Y742840D02*
Y834540D01*
X530250Y742840D02*
Y834540D01*
X700150Y601800D02*
Y615800D01*
X684150Y601800D02*
Y615800D01*
X700150D01*
X684150Y601800D02*
X700150D01*
X536560Y343280D02*
X550560D01*
X536560Y327280D02*
X550560D01*
X536560D02*
Y343280D01*
X550560Y327280D02*
Y343280D01*
X540370Y495680D02*
X554370D01*
X540370Y479680D02*
X554370D01*
X540370D02*
Y495680D01*
X554370Y479680D02*
Y495680D01*
D16*
X452800Y2250D02*
X637500D01*
X452800Y2850D02*
Y147950D01*
Y2850D02*
X542800D01*
Y147950D01*
X452800D02*
X542800D01*
X673490Y456440D02*
X690490D01*
X673490Y488440D02*
X690490D01*
X673490Y456440D02*
Y488440D01*
X690490Y456440D02*
Y488440D01*
X124310Y442120D02*
Y462120D01*
X137310D01*
Y442120D02*
Y462120D01*
X124310Y442120D02*
X137310D01*
X613690Y775940D02*
X648690D01*
X613690Y803940D02*
X648690D01*
Y775940D02*
Y803940D01*
X613690Y775940D02*
Y803940D01*
X476530Y573430D02*
X511530D01*
X476530Y592430D02*
X511530D01*
Y573430D02*
Y592430D01*
X476530Y573430D02*
Y592430D01*
X263190Y575280D02*
X443190D01*
Y515280D02*
Y575280D01*
Y320280D02*
Y515280D01*
X263190Y320280D02*
X443190D01*
X263190D02*
Y515280D01*
Y575280D01*
Y515280D02*
X443190D01*
X609060Y465470D02*
X630460D01*
X609060Y451470D02*
X630460D01*
X609060D02*
Y465470D01*
X630460Y451470D02*
Y465470D01*
X699150Y670480D02*
Y691880D01*
X685150Y670480D02*
Y691880D01*
X699150D01*
X685150Y670480D02*
X699150D01*
X471900Y328280D02*
X493300D01*
X471900Y342280D02*
X493300D01*
Y328280D02*
Y342280D01*
X471900Y328280D02*
Y342280D01*
X470630Y480680D02*
X492030D01*
X470630Y494680D02*
X492030D01*
Y480680D02*
Y494680D01*
X470630Y480680D02*
Y494680D01*
X174040Y441200D02*
Y473200D01*
X157040Y441200D02*
Y473200D01*
X174040D01*
X157040Y441200D02*
X174040D01*
D79*
X201041Y525399D02*
Y538861D01*
X193929D02*
X201041D01*
X193929Y525399D02*
Y538861D01*
Y525399D02*
X201041D01*
X207899D02*
Y538861D01*
Y525399D02*
X215011D01*
Y538861D01*
X207899D02*
X215011D01*
X193929Y525399D02*
X215011D01*
Y538861D01*
X193929D02*
X215011D01*
X193929Y525399D02*
Y538861D01*
X378587Y71120D02*
X386207D01*
X382397Y67310D02*
Y74930D01*
X252349Y96266D02*
X349631D01*
X252349Y45974D02*
Y96266D01*
Y45974D02*
X349631D01*
Y96266D01*
X666750Y168148D02*
Y180848D01*
X660400Y178308D02*
X673100D01*
X666750D02*
X673100Y170688D01*
X666750Y178308D02*
X671830Y170688D01*
X666750Y178308D02*
X670560Y170688D01*
X666750Y178308D02*
X669290Y170688D01*
X666750Y178308D02*
X668020Y170688D01*
X660400D02*
X666750Y178308D01*
X661670Y170688D02*
X666750Y178308D01*
X662940Y170688D02*
X666750Y178308D01*
X664210Y170688D02*
X666750Y178308D01*
X665480Y170688D02*
X666750Y178308D01*
X660400Y170688D02*
X673100D01*
X659765Y132969D02*
Y154051D01*
Y132969D02*
X673735D01*
Y154051D01*
X659765D02*
X673735D01*
X781050Y678243D02*
Y690944D01*
X774700Y688403D02*
X787400D01*
X781050D02*
X787400Y680783D01*
X781050Y688403D02*
X786130Y680783D01*
X781050Y688403D02*
X784860Y680783D01*
X781050Y688403D02*
X783590Y680783D01*
X781050Y688403D02*
X782320Y680783D01*
X774700D02*
X781050Y688403D01*
X775970Y680783D02*
X781050Y688403D01*
X777240Y680783D02*
X781050Y688403D01*
X778510Y680783D02*
X781050Y688403D01*
X779780Y680783D02*
X781050Y688403D01*
X774700Y680783D02*
X787400D01*
X774065Y643064D02*
Y664146D01*
Y643064D02*
X788035D01*
Y664146D01*
X774065D02*
X788035D01*
X99060Y247142D02*
Y259842D01*
X92710Y249682D02*
X105410D01*
X92710Y257302D02*
X99060Y249682D01*
X93980Y257302D02*
X99060Y249682D01*
X95250Y257302D02*
X99060Y249682D01*
X96520Y257302D02*
X99060Y249682D01*
X97790Y257302D02*
X99060Y249682D01*
X105410Y257302D01*
X99060Y249682D02*
X104140Y257302D01*
X99060Y249682D02*
X102870Y257302D01*
X99060Y249682D02*
X101600Y257302D01*
X99060Y249682D02*
X100330Y257302D01*
X92710D02*
X105410D01*
X106045Y273939D02*
Y295021D01*
X92075D02*
X106045D01*
X92075Y273939D02*
Y295021D01*
Y273939D02*
X106045D01*
X811530Y143002D02*
Y155702D01*
X805180Y145542D02*
X817880D01*
X805180Y153162D02*
X811530Y145542D01*
X806450Y153162D02*
X811530Y145542D01*
X807720Y153162D02*
X811530Y145542D01*
X808990Y153162D02*
X811530Y145542D01*
X810260Y153162D02*
X811530Y145542D01*
X817880Y153162D01*
X811530Y145542D02*
X816610Y153162D01*
X811530Y145542D02*
X815340Y153162D01*
X811530Y145542D02*
X814070Y153162D01*
X811530Y145542D02*
X812800Y153162D01*
X805180D02*
X817880D01*
X818515Y169799D02*
Y190881D01*
X804545D02*
X818515D01*
X804545Y169799D02*
Y190881D01*
Y169799D02*
X818515D01*
X367030Y179578D02*
Y192278D01*
X360680Y189738D02*
X373380D01*
X367030D02*
X373380Y182118D01*
X367030Y189738D02*
X372110Y182118D01*
X367030Y189738D02*
X370840Y182118D01*
X367030Y189738D02*
X369570Y182118D01*
X367030Y189738D02*
X368300Y182118D01*
X360680D02*
X367030Y189738D01*
X361950Y182118D02*
X367030Y189738D01*
X363220Y182118D02*
X367030Y189738D01*
X364490Y182118D02*
X367030Y189738D01*
X365760Y182118D02*
X367030Y189738D01*
X360680Y182118D02*
X373380D01*
X360045Y144399D02*
Y165481D01*
Y144399D02*
X374015D01*
Y165481D01*
X360045D02*
X374015D01*
X576580Y642112D02*
Y654812D01*
X570230Y644652D02*
X582930D01*
X570230Y652272D02*
X576580Y644652D01*
X571500Y652272D02*
X576580Y644652D01*
X572770Y652272D02*
X576580Y644652D01*
X574040Y652272D02*
X576580Y644652D01*
X575310Y652272D02*
X576580Y644652D01*
X582930Y652272D01*
X576580Y644652D02*
X581660Y652272D01*
X576580Y644652D02*
X580390Y652272D01*
X576580Y644652D02*
X579120Y652272D01*
X576580Y644652D02*
X577850Y652272D01*
X570230D02*
X582930D01*
X583565Y668909D02*
Y689991D01*
X569595D02*
X583565D01*
X569595Y668909D02*
Y689991D01*
Y668909D02*
X583565D01*
X190500Y12700D02*
Y101600D01*
X12700Y12700D02*
X190500D01*
X12700D02*
Y101600D01*
X190500D01*
X863600Y17780D02*
Y106680D01*
X685800Y17780D02*
X863600D01*
X685800D02*
Y106680D01*
X863600D01*
D80*
X580800Y3850D02*
X584863Y7913D01*
X580800Y11975D01*
X587571Y3850D02*
Y11975D01*
X591634D01*
X592988Y10621D01*
Y7913D01*
X591634Y6558D01*
X587571D01*
X601113Y10621D02*
X599759Y11975D01*
X597051D01*
X595696Y10621D01*
Y5204D01*
X597051Y3850D01*
X599759D01*
X601113Y5204D01*
X603822Y11975D02*
Y3850D01*
X607885D01*
X609239Y5204D01*
Y6558D01*
X607885Y7913D01*
X603822D01*
X607885D01*
X609239Y9267D01*
Y10621D01*
X607885Y11975D01*
X603822D01*
X625490D02*
X620073D01*
Y3850D01*
X625490D01*
X620073Y7913D02*
X622781D01*
X628198Y11975D02*
Y3850D01*
X632261D01*
X633615Y5204D01*
Y10621D01*
X632261Y11975D01*
X628198D01*
X641740Y10621D02*
X640386Y11975D01*
X637678D01*
X636323Y10621D01*
Y5204D01*
X637678Y3850D01*
X640386D01*
X641740Y5204D01*
Y7913D01*
X639032D01*
X649866Y11975D02*
X644449D01*
Y3850D01*
X649866D01*
X644449Y7913D02*
X647157D01*
D81*
X308190Y542780D02*
Y551244D01*
X312422Y555476D01*
X316654Y551244D01*
Y542780D01*
Y549128D01*
X308190D01*
X320886Y542780D02*
Y555476D01*
X329350Y542780D01*
Y555476D01*
X333582D02*
X342046D01*
X337814D01*
Y542780D01*
X354742Y555476D02*
X346278D01*
Y542780D01*
X354742D01*
X346278Y549128D02*
X350510D01*
X358974Y542780D02*
Y555476D01*
X367438Y542780D01*
Y555476D01*
X371669Y542780D02*
Y555476D01*
X380133Y542780D01*
Y555476D01*
X384365Y542780D02*
Y551244D01*
X388597Y555476D01*
X392829Y551244D01*
Y542780D01*
Y549128D01*
X384365D01*
M02*
