G04*
G04 #@! TF.GenerationSoftware,Altium Limited,Altium Designer,25.3.3 (18)*
G04*
G04 Layer_Physical_Order=1*
G04 Layer_Color=255*
%FSLAX44Y44*%
%MOMM*%
G71*
G04*
G04 #@! TF.SameCoordinates,CF0063C5-59CE-4EC0-ACCE-DCAF0012FED6*
G04*
G04*
G04 #@! TF.FilePolarity,Positive*
G04*
G01*
G75*
%ADD17R,1.0668X1.3462*%
%ADD18R,4.2418X3.8100*%
%ADD19R,0.8890X0.9525*%
%ADD20R,3.3000X4.0600*%
%ADD21R,3.3000X6.3500*%
%ADD22R,3.8100X6.3500*%
%ADD23R,1.4500X1.3500*%
%ADD24R,1.7300X0.9700*%
%ADD25R,1.4500X1.1500*%
%ADD26R,1.3700X2.8100*%
%ADD27R,1.2900X1.9100*%
%ADD28R,2.7000X4.1000*%
%ADD29R,1.3500X1.4500*%
%ADD30R,0.9000X0.9000*%
%ADD31R,1.5000X0.9000*%
%ADD32R,0.9000X1.5000*%
%ADD33R,1.0000X1.4200*%
%ADD34R,1.0000X2.0500*%
%ADD35R,6.7000X9.7000*%
%ADD36R,1.4200X1.0000*%
%ADD37R,1.7500X1.5000*%
%ADD38R,1.5000X1.7500*%
%ADD39R,1.2000X1.0000*%
%ADD61C,1.7018*%
%ADD67C,0.7620*%
%ADD68C,1.0160*%
%ADD69C,0.3810*%
%ADD70C,1.5240*%
%ADD71C,2.0320*%
%ADD72C,0.4000*%
%ADD73C,0.9000*%
%ADD74O,1.8500X0.9000*%
%ADD75C,0.7500*%
%ADD76C,1.2700*%
G36*
X323052Y665786D02*
X326088Y664972D01*
X329232D01*
X330859Y665408D01*
X332832Y661992D01*
X256090Y585250D01*
X255276Y584032D01*
X254990Y582595D01*
Y513439D01*
X255276Y512002D01*
X255791Y511230D01*
X255650Y507420D01*
X255650D01*
Y501650D01*
X265690D01*
Y499110D01*
X255650D01*
Y494597D01*
X220618D01*
Y495438D01*
X218930D01*
Y523621D01*
X220345D01*
Y540639D01*
X206121D01*
X206121Y540639D01*
X203581Y541401D01*
X203581Y541401D01*
X202627Y541401D01*
X196977D01*
Y532130D01*
Y522859D01*
X203581D01*
Y522859D01*
X205778Y523518D01*
X207535Y520374D01*
Y498910D01*
X204880Y496200D01*
X196860D01*
Y486410D01*
Y476620D01*
X197678D01*
X199715Y472810D01*
X198998Y471737D01*
X175968D01*
Y478628D01*
X172017D01*
Y518965D01*
X172674Y520103D01*
X173228Y522170D01*
Y524310D01*
X172674Y526377D01*
X171604Y528231D01*
X170091Y529744D01*
X168237Y530814D01*
X167153Y531105D01*
X165961Y533773D01*
X165839Y535178D01*
X200725Y570065D01*
X224570D01*
X226007Y570351D01*
X227225Y571165D01*
X322287Y666227D01*
X323052Y665786D01*
D02*
G37*
G36*
X891540Y0D02*
X0D01*
Y269652D01*
X3810Y270945D01*
X3999Y270699D01*
X104329Y170369D01*
X105761Y169270D01*
X107430Y168578D01*
X109220Y168343D01*
X120185D01*
X121323Y167686D01*
X123390Y167132D01*
X125530D01*
X127597Y167686D01*
X129451Y168756D01*
X130964Y170269D01*
X132034Y172123D01*
X132588Y174190D01*
Y176330D01*
X132034Y178397D01*
X130964Y180251D01*
X129451Y181764D01*
X127597Y182834D01*
X125530Y183388D01*
X123390D01*
X121323Y182834D01*
X120185Y182177D01*
X112085D01*
X15807Y278455D01*
Y296639D01*
X19617Y297797D01*
X19996Y297230D01*
X20125Y297038D01*
X20313Y296756D01*
X21384Y295154D01*
X23461Y293766D01*
X25910Y293279D01*
X35410D01*
X37860Y293766D01*
X39936Y295154D01*
X41324Y297230D01*
X41811Y299680D01*
X41324Y302129D01*
X39936Y304206D01*
X37860Y305594D01*
X35410Y306081D01*
X25910D01*
X23461Y305594D01*
X21384Y304206D01*
X20313Y302604D01*
X19996Y302130D01*
X19617Y301563D01*
X15807Y302721D01*
Y320639D01*
X16591Y321402D01*
X19617Y322673D01*
X20143Y322370D01*
X21590Y321982D01*
Y328930D01*
X24130D01*
Y321825D01*
X25813Y321505D01*
X26300Y319713D01*
X27227Y318107D01*
X28537Y316797D01*
X30143Y315870D01*
X31590Y315482D01*
Y322430D01*
X32860D01*
Y323700D01*
X39808D01*
X39420Y325147D01*
X38493Y326753D01*
X38266Y326980D01*
X37498Y328278D01*
X39189Y331600D01*
X137215D01*
Y301258D01*
X131942D01*
Y285520D01*
X131180D01*
Y277500D01*
X150760D01*
Y285520D01*
X149998D01*
Y301258D01*
X144725D01*
Y331600D01*
X256412D01*
Y329002D01*
X273252D01*
X274968Y329002D01*
X277062Y326059D01*
Y313502D01*
X278885D01*
Y297156D01*
X278803Y297134D01*
X276949Y296064D01*
X275436Y294551D01*
X274366Y292697D01*
X273812Y290630D01*
Y288490D01*
X274366Y286423D01*
X275436Y284569D01*
X276949Y283056D01*
X278803Y281986D01*
X280870Y281432D01*
X283010D01*
X285077Y281986D01*
X286931Y283056D01*
X287775Y283900D01*
X290549Y283211D01*
X291585Y282542D01*
Y260326D01*
X291503Y260304D01*
X289649Y259234D01*
X288136Y257721D01*
X287066Y255867D01*
X286512Y253800D01*
Y251660D01*
X287066Y249593D01*
X288136Y247739D01*
X289649Y246226D01*
X291503Y245156D01*
X293570Y244602D01*
X295710D01*
X297777Y245156D01*
X299631Y246226D01*
X301144Y247739D01*
X302214Y249593D01*
X302768Y251660D01*
Y253800D01*
X302214Y255867D01*
X301144Y257721D01*
X299631Y259234D01*
X299095Y259543D01*
Y269743D01*
X299576Y270083D01*
X302905Y271070D01*
X303619Y270356D01*
X305473Y269286D01*
X307540Y268732D01*
X309680D01*
X311747Y269286D01*
X313601Y270356D01*
X315114Y271869D01*
X316184Y273723D01*
X316738Y275790D01*
Y277930D01*
X316184Y279997D01*
X315114Y281851D01*
X313601Y283364D01*
X312430Y284040D01*
Y290447D01*
X316240Y292025D01*
X316319Y291946D01*
X318173Y290876D01*
X320240Y290322D01*
X322380D01*
X324447Y290876D01*
X326301Y291946D01*
X326510Y292155D01*
X330320Y290577D01*
Y284115D01*
X329019Y283364D01*
X327506Y281851D01*
X326436Y279997D01*
X325882Y277930D01*
Y275790D01*
X326436Y273723D01*
X327506Y271869D01*
X329019Y270356D01*
X330873Y269286D01*
X332940Y268732D01*
X335080D01*
X337147Y269286D01*
X339001Y270356D01*
X340514Y271869D01*
X341584Y273723D01*
X342138Y275790D01*
Y277930D01*
X341584Y279997D01*
X340514Y281851D01*
X339001Y283364D01*
X337830Y284040D01*
Y290447D01*
X341640Y292025D01*
X341719Y291946D01*
X343573Y290876D01*
X345640Y290322D01*
X347780D01*
X349847Y290876D01*
X351701Y291946D01*
X351910Y292155D01*
X355720Y290577D01*
Y284115D01*
X354419Y283364D01*
X352906Y281851D01*
X351836Y279997D01*
X351282Y277930D01*
Y275790D01*
X351836Y273723D01*
X352906Y271869D01*
X354419Y270356D01*
X356273Y269286D01*
X358340Y268732D01*
X360480D01*
X362547Y269286D01*
X364401Y270356D01*
X365914Y271869D01*
X366984Y273723D01*
X367538Y275790D01*
Y277930D01*
X366984Y279997D01*
X365914Y281851D01*
X364401Y283364D01*
X363230Y284040D01*
Y290447D01*
X367040Y292025D01*
X367119Y291946D01*
X368973Y290876D01*
X371040Y290322D01*
X373180D01*
X375247Y290876D01*
X377101Y291946D01*
X377310Y292155D01*
X381120Y290577D01*
Y284115D01*
X379819Y283364D01*
X378306Y281851D01*
X377236Y279997D01*
X376682Y277930D01*
Y275790D01*
X377236Y273723D01*
X378306Y271869D01*
X379819Y270356D01*
X381673Y269286D01*
X383740Y268732D01*
X385880D01*
X387947Y269286D01*
X389801Y270356D01*
X391314Y271869D01*
X392384Y273723D01*
X392938Y275790D01*
Y277930D01*
X392384Y279997D01*
X391314Y281851D01*
X389801Y283364D01*
X388630Y284040D01*
Y290447D01*
X392440Y292025D01*
X392519Y291946D01*
X394373Y290876D01*
X396440Y290322D01*
X398580D01*
X400647Y290876D01*
X402501Y291946D01*
X402710Y292155D01*
X406520Y290577D01*
Y284115D01*
X405219Y283364D01*
X403706Y281851D01*
X402636Y279997D01*
X402082Y277930D01*
Y275790D01*
X402636Y273723D01*
X403706Y271869D01*
X405219Y270356D01*
X407073Y269286D01*
X409140Y268732D01*
X411280D01*
X413347Y269286D01*
X415201Y270356D01*
X416714Y271869D01*
X417784Y273723D01*
X418338Y275790D01*
Y277930D01*
X417784Y279997D01*
X416714Y281851D01*
X415201Y283364D01*
X414030Y284040D01*
Y290447D01*
X417840Y292025D01*
X417919Y291946D01*
X419773Y290876D01*
X421840Y290322D01*
X423980D01*
X426047Y290876D01*
X427901Y291946D01*
X429414Y293459D01*
X430484Y295313D01*
X431038Y297380D01*
Y299520D01*
X430484Y301587D01*
X429414Y303441D01*
X427901Y304954D01*
X426730Y305630D01*
Y313502D01*
X429318D01*
Y326059D01*
X431412Y329002D01*
X433128Y329002D01*
X449968D01*
Y331525D01*
X466472D01*
Y326402D01*
X480028D01*
Y344158D01*
X466472D01*
Y339035D01*
X452673D01*
X449968Y341702D01*
X449968Y345368D01*
X449968Y354258D01*
X449968Y358068D01*
X449968Y366958D01*
X449968Y370768D01*
X449968Y379658D01*
X449968Y383468D01*
X449968Y392358D01*
X449968Y396168D01*
X449968Y405058D01*
X449968Y408868D01*
X449968Y417758D01*
X449968Y421568D01*
Y430458D01*
X449968D01*
Y430602D01*
X449968D01*
Y435600D01*
X453488Y437058D01*
X538250Y352296D01*
Y345808D01*
X520782D01*
Y339035D01*
X498728D01*
Y344158D01*
X485172D01*
Y326402D01*
X489693D01*
X491271Y322592D01*
X366745Y198065D01*
X238760D01*
X237323Y197779D01*
X236105Y196965D01*
X118464Y79324D01*
X118271Y79436D01*
X115654Y80137D01*
X112946D01*
X110329Y79436D01*
X107984Y78082D01*
X106068Y76166D01*
X104714Y73821D01*
X104013Y71204D01*
Y68496D01*
X104714Y65879D01*
X106068Y63534D01*
X107984Y61618D01*
X110329Y60264D01*
X112946Y59563D01*
X115654D01*
X118271Y60264D01*
X120616Y61618D01*
X122532Y63534D01*
X123886Y65879D01*
X124587Y68496D01*
Y71204D01*
X123886Y73821D01*
X123774Y74014D01*
X240315Y190555D01*
X368300D01*
X369737Y190841D01*
X370955Y191655D01*
X497630Y318330D01*
X539401D01*
X540838Y318616D01*
X542057Y319430D01*
X544208Y321581D01*
X544978Y322240D01*
X546986Y323550D01*
X549210Y323990D01*
X555790D01*
Y335280D01*
Y346570D01*
X549570D01*
X547020Y346570D01*
X545760Y349858D01*
Y353851D01*
X545474Y355288D01*
X544660Y356507D01*
X451526Y449640D01*
X450308Y450454D01*
X449968Y450522D01*
X449968Y455858D01*
X452673Y458525D01*
X456915D01*
X565059Y350380D01*
X563481Y346570D01*
X558330D01*
Y336550D01*
X567100D01*
Y342951D01*
X570910Y344529D01*
X783645Y131795D01*
Y84574D01*
X783429Y84516D01*
X781084Y83162D01*
X779168Y81246D01*
X777814Y78901D01*
X777113Y76284D01*
Y73576D01*
X777814Y70959D01*
X779168Y68614D01*
X781084Y66698D01*
X783429Y65344D01*
X786046Y64643D01*
X788754D01*
X791371Y65344D01*
X793716Y66698D01*
X795632Y68614D01*
X796986Y70959D01*
X797687Y73576D01*
Y76284D01*
X796986Y78901D01*
X795632Y81246D01*
X793716Y83162D01*
X791371Y84516D01*
X791155Y84574D01*
Y133350D01*
X790869Y134787D01*
X790055Y136005D01*
X461125Y464935D01*
X459907Y465749D01*
X458470Y466035D01*
X452836D01*
X451974Y466976D01*
Y467772D01*
X455394Y471225D01*
X509115D01*
X518022Y462317D01*
Y451890D01*
X517260D01*
Y443870D01*
X527050D01*
X536840D01*
Y451890D01*
X539218Y454715D01*
X603632D01*
Y449592D01*
X617188D01*
Y467348D01*
X603632D01*
Y462225D01*
X536078D01*
Y467628D01*
X523333D01*
X513325Y477635D01*
X512107Y478449D01*
X510670Y478735D01*
X501240D01*
X497458Y478802D01*
X497458Y483925D01*
X524592D01*
Y477152D01*
X543148D01*
Y498208D01*
X524592D01*
Y491435D01*
X497458D01*
Y496558D01*
X483902D01*
Y482174D01*
X481330Y480562D01*
X478758Y482174D01*
Y496558D01*
X465202D01*
Y491435D01*
X453751D01*
X450730Y493340D01*
Y499110D01*
X430650D01*
Y493340D01*
X431412D01*
Y485068D01*
X431412Y481402D01*
X431412Y477592D01*
X431412Y468702D01*
X431412Y464892D01*
X431412Y456002D01*
X431412Y452192D01*
Y443302D01*
X431412Y443302D01*
X430185Y440000D01*
X406906D01*
X406567Y440588D01*
X405054Y442101D01*
X403200Y443171D01*
X401133Y443725D01*
X398993D01*
X396926Y443171D01*
X395073Y442101D01*
X393559Y440588D01*
X392489Y438734D01*
X391935Y436667D01*
Y434527D01*
X392489Y432459D01*
X393559Y430606D01*
X395073Y429093D01*
X396926Y428023D01*
X398993Y427469D01*
X401133D01*
X403200Y428023D01*
X405054Y429093D01*
X405500Y429539D01*
X406234Y429480D01*
X406359Y429422D01*
X409027Y425872D01*
Y423732D01*
X409581Y421665D01*
X410651Y419811D01*
X411841Y418622D01*
X411671Y417210D01*
X410583Y414812D01*
X407023D01*
X406554Y415624D01*
X405041Y417137D01*
X403187Y418207D01*
X401120Y418761D01*
X398980D01*
X396913Y418207D01*
X395059Y417137D01*
X393546Y415624D01*
X392476Y413771D01*
X391922Y411703D01*
Y409563D01*
X392476Y407496D01*
X393546Y405643D01*
X395059Y404129D01*
X396913Y403059D01*
X398980Y402505D01*
X401120D01*
X403187Y403059D01*
X405041Y404129D01*
X406215Y405303D01*
X407912Y405433D01*
X408187Y405195D01*
X409698Y402802D01*
X410095Y401316D01*
X409702Y399850D01*
Y397710D01*
X410256Y395643D01*
X411036Y394291D01*
X410173Y392130D01*
X409159Y390669D01*
X406584Y390596D01*
X406554Y390647D01*
X405041Y392161D01*
X403187Y393231D01*
X401120Y393785D01*
X398980D01*
X396913Y393231D01*
X395059Y392161D01*
X393546Y390647D01*
X392476Y388794D01*
X391922Y386727D01*
Y384587D01*
X392476Y382519D01*
X393546Y380666D01*
X395059Y379153D01*
X396913Y378083D01*
X398980Y377529D01*
X401120D01*
X403187Y378083D01*
X405041Y379153D01*
X406277Y380388D01*
X407805Y380472D01*
X408202Y380410D01*
X410214Y376597D01*
X410204Y376323D01*
X409702Y374450D01*
Y372310D01*
X410256Y370243D01*
X410500Y369820D01*
X408882Y366198D01*
X408548Y365898D01*
X406554Y365671D01*
X405041Y367184D01*
X403187Y368254D01*
X401120Y368808D01*
X398980D01*
X396913Y368254D01*
X395059Y367184D01*
X393546Y365671D01*
X392476Y363817D01*
X391922Y361750D01*
Y359610D01*
X392476Y357543D01*
X393546Y355689D01*
X395059Y354176D01*
X396913Y353106D01*
X398980Y352552D01*
X401120D01*
X403187Y353106D01*
X405041Y354176D01*
X406554Y355689D01*
X408548Y355462D01*
X408882Y355162D01*
X410500Y351540D01*
X410256Y351117D01*
X409702Y349050D01*
Y346910D01*
X410256Y344843D01*
X411326Y342989D01*
X412839Y341476D01*
X414693Y340406D01*
X416760Y339852D01*
X418900D01*
X420967Y340406D01*
X422821Y341476D01*
X424334Y342989D01*
X425047Y344225D01*
X428707D01*
X431412Y341558D01*
X431412Y337892D01*
Y335001D01*
X429318Y332058D01*
X427602Y332058D01*
X416762Y332058D01*
X412952Y332058D01*
X404062Y332058D01*
X400252Y332058D01*
X391362Y332058D01*
X387552Y332058D01*
X378662Y332058D01*
X374852Y332058D01*
X365962Y332058D01*
X362152Y332058D01*
X353262Y332058D01*
X349452Y332058D01*
X340562Y332058D01*
X336752Y332058D01*
X327862Y332058D01*
X324052Y332058D01*
X315162Y332058D01*
X311352Y332058D01*
X302462Y332058D01*
X298652Y332058D01*
X289762Y332058D01*
X285952Y332058D01*
X277062Y332058D01*
X274968Y335001D01*
Y341558D01*
X274968Y341558D01*
Y341702D01*
X274968D01*
X274968Y345368D01*
Y354258D01*
X274968D01*
Y354402D01*
X274968D01*
Y363292D01*
X274968Y366958D01*
X274968Y370768D01*
X274968Y379658D01*
X274968Y385138D01*
X275308Y385206D01*
X276527Y386020D01*
X313630Y423123D01*
X317150Y421665D01*
Y416140D01*
Y410450D01*
X324190D01*
Y409180D01*
X325460D01*
Y402140D01*
X336920D01*
Y409180D01*
X339460D01*
Y402140D01*
X350920D01*
Y409180D01*
X352190D01*
Y410450D01*
X359230D01*
Y416140D01*
Y421910D01*
X352190D01*
Y424450D01*
X359230D01*
Y430140D01*
Y435910D01*
X352190D01*
Y437180D01*
X350920D01*
Y444220D01*
X339460D01*
Y437180D01*
X336920D01*
Y444220D01*
X326232D01*
X324774Y447740D01*
X382604Y505570D01*
X430650D01*
Y501650D01*
X450730D01*
Y507420D01*
X450730Y507420D01*
X450589Y511230D01*
X451104Y512002D01*
X451390Y513439D01*
Y607735D01*
X451104Y609172D01*
X450290Y610390D01*
X389143Y671537D01*
X389585Y672302D01*
X390398Y675338D01*
Y678482D01*
X389585Y681518D01*
X388013Y684240D01*
X385790Y686463D01*
X384006Y687493D01*
X383631Y688970D01*
Y690250D01*
X384006Y691727D01*
X385790Y692757D01*
X388013Y694980D01*
X389585Y697702D01*
X390398Y700738D01*
Y703882D01*
X389585Y706918D01*
X388013Y709640D01*
X385790Y711863D01*
X383068Y713435D01*
X380032Y714248D01*
X376888D01*
X373852Y713435D01*
X371130Y711863D01*
X368907Y709640D01*
X367877Y707856D01*
X366400Y707481D01*
X365120D01*
X363643Y707856D01*
X362613Y709640D01*
X360390Y711863D01*
X357668Y713435D01*
X354632Y714248D01*
X351488D01*
X348452Y713435D01*
X345730Y711863D01*
X343507Y709640D01*
X342477Y707856D01*
X341000Y707481D01*
X339720D01*
X338243Y707856D01*
X337213Y709640D01*
X334990Y711863D01*
X332268Y713435D01*
X329232Y714248D01*
X326088D01*
X323052Y713435D01*
X320330Y711863D01*
X318107Y709640D01*
X317077Y707856D01*
X315600Y707481D01*
X314320D01*
X312843Y707856D01*
X311813Y709640D01*
X309590Y711863D01*
X306868Y713435D01*
X303832Y714248D01*
X300688D01*
X297652Y713435D01*
X294930Y711863D01*
X292707Y709640D01*
X291677Y707856D01*
X290200Y707481D01*
X288920D01*
X287443Y707856D01*
X286413Y709640D01*
X284190Y711863D01*
X281468Y713435D01*
X278432Y714248D01*
X275288D01*
X272252Y713435D01*
X269530Y711863D01*
X267307Y709640D01*
X266277Y707856D01*
X264800Y707481D01*
X263520D01*
X262043Y707856D01*
X261013Y709640D01*
X258790Y711863D01*
X256068Y713435D01*
X253032Y714248D01*
X249888D01*
X246852Y713435D01*
X244130Y711863D01*
X241907Y709640D01*
X240877Y707856D01*
X239400Y707481D01*
X238120D01*
X236643Y707856D01*
X235613Y709640D01*
X233390Y711863D01*
X230668Y713435D01*
X227632Y714248D01*
X224488D01*
X221452Y713435D01*
X218730Y711863D01*
X216507Y709640D01*
X215477Y707856D01*
X214000Y707481D01*
X212720D01*
X211243Y707856D01*
X210213Y709640D01*
X207990Y711863D01*
X205268Y713435D01*
X202232Y714248D01*
X199088D01*
X196052Y713435D01*
X193330Y711863D01*
X191107Y709640D01*
X190077Y707856D01*
X188600Y707481D01*
X187320D01*
X185843Y707856D01*
X184813Y709640D01*
X182590Y711863D01*
X179868Y713435D01*
X176832Y714248D01*
X173688D01*
X170652Y713435D01*
X167930Y711863D01*
X165707Y709640D01*
X164677Y707856D01*
X163200Y707481D01*
X161920D01*
X160443Y707856D01*
X159413Y709640D01*
X157190Y711863D01*
X154468Y713435D01*
X151432Y714248D01*
X148288D01*
X145252Y713435D01*
X142530Y711863D01*
X140307Y709640D01*
X139277Y707856D01*
X137800Y707481D01*
X136520D01*
X135043Y707856D01*
X134013Y709640D01*
X131790Y711863D01*
X129068Y713435D01*
X126032Y714248D01*
X122888D01*
X121261Y713812D01*
X119288Y717228D01*
X277145Y875085D01*
X730181D01*
X789528Y815738D01*
X788070Y812218D01*
X765072D01*
Y767662D01*
X790317D01*
X806813Y751166D01*
Y694712D01*
X781962Y669862D01*
X774827D01*
Y657958D01*
X774573D01*
X773879Y657820D01*
X773291Y657427D01*
X772898Y656839D01*
X772760Y656145D01*
Y651066D01*
X772898Y650372D01*
X773291Y649784D01*
X773879Y649391D01*
X774065Y649354D01*
Y645160D01*
X781050D01*
X788035D01*
Y648824D01*
X789165Y649825D01*
X791978Y650153D01*
X793027Y650071D01*
X793805Y649551D01*
Y622585D01*
X747971Y576752D01*
X593149D01*
X573782Y596119D01*
X572564Y596932D01*
X571127Y597218D01*
X549882D01*
X475071Y672030D01*
X476529Y675550D01*
X484540D01*
Y687070D01*
X477000D01*
X469460D01*
Y687015D01*
X465650Y684978D01*
X465478Y685093D01*
Y700368D01*
X451922D01*
Y676312D01*
X460167D01*
X542264Y594216D01*
X542215Y592431D01*
X541581Y590227D01*
X541244Y589847D01*
X516858D01*
Y594258D01*
X510184D01*
X447317Y657125D01*
Y688340D01*
X447178Y689397D01*
Y700368D01*
X433622D01*
Y689397D01*
X433483Y688340D01*
Y654260D01*
X433718Y652470D01*
X434409Y650801D01*
X435509Y649369D01*
X486048Y598830D01*
X484469Y595020D01*
X480700D01*
Y584200D01*
X488420D01*
Y591069D01*
X492230Y592648D01*
X500402Y584476D01*
Y571602D01*
X516858D01*
Y576013D01*
X540565D01*
X542156Y575094D01*
X544223Y574540D01*
X546363D01*
X548431Y575094D01*
X550284Y576164D01*
X551797Y577677D01*
X552868Y579531D01*
X553421Y581598D01*
Y583738D01*
X552868Y585806D01*
X552814Y585898D01*
X554909Y589708D01*
X569571D01*
X588938Y570341D01*
X590157Y569527D01*
X591594Y569241D01*
X749527D01*
X750964Y569527D01*
X752182Y570341D01*
X800215Y618375D01*
X801029Y619593D01*
X801315Y621030D01*
Y654304D01*
X801029Y655741D01*
X800215Y656959D01*
X792642Y664532D01*
X792027Y666680D01*
X792032Y669240D01*
X792073Y669351D01*
X813223Y690501D01*
X814037Y691720D01*
X814323Y693157D01*
Y753110D01*
X814037Y754547D01*
X813223Y755765D01*
X812054Y756547D01*
X795628Y772973D01*
Y804660D01*
X799148Y806118D01*
X837330Y767936D01*
Y490038D01*
X822862D01*
Y487015D01*
X814368D01*
X812931Y486729D01*
X811712Y485915D01*
X811645Y485847D01*
X809079Y487001D01*
X808168Y487759D01*
Y489610D01*
X807326Y491641D01*
X805771Y493196D01*
X803740Y494038D01*
X801540D01*
X799509Y493196D01*
X797954Y491641D01*
X797216Y489860D01*
X796929Y489446D01*
X793609Y487017D01*
X793592Y487015D01*
X782418D01*
Y490038D01*
X766862D01*
Y481793D01*
X746465Y461395D01*
X692418D01*
Y464268D01*
X671562D01*
Y461395D01*
X635888D01*
Y467348D01*
X622332D01*
Y449592D01*
X635888D01*
Y453885D01*
X671562D01*
Y451012D01*
X692418D01*
Y453885D01*
X748020D01*
X749457Y454171D01*
X750675Y454985D01*
X762580Y466889D01*
X766100Y465431D01*
Y458720D01*
X773370D01*
Y466260D01*
X774640D01*
Y467530D01*
X783180D01*
Y473800D01*
X783180Y473800D01*
X783180Y473800D01*
X782728Y475871D01*
X784515Y479505D01*
X792051D01*
X793896Y477660D01*
X795114Y476846D01*
X796551Y476560D01*
X811423D01*
X812860Y476846D01*
X814078Y477660D01*
X815923Y479505D01*
X820765D01*
X822638Y475695D01*
X822100Y473800D01*
X822100D01*
X822100Y472988D01*
Y467530D01*
X830640D01*
Y466260D01*
X831910D01*
Y458720D01*
X837330D01*
Y360041D01*
X764255Y286965D01*
X728577D01*
X727864Y288201D01*
X726351Y289714D01*
X724497Y290784D01*
X722430Y291338D01*
X720290D01*
X718223Y290784D01*
X716369Y289714D01*
X714856Y288201D01*
X713786Y286347D01*
X713232Y284280D01*
Y282140D01*
X713786Y280073D01*
X714856Y278219D01*
X716369Y276706D01*
X718223Y275636D01*
X720290Y275082D01*
X722430D01*
X724497Y275636D01*
X726351Y276706D01*
X727864Y278219D01*
X728577Y279455D01*
X765810D01*
X767247Y279741D01*
X768465Y280555D01*
X843740Y355830D01*
X844554Y357048D01*
X844840Y358485D01*
Y769491D01*
X844554Y770928D01*
X843740Y772147D01*
X734391Y881495D01*
X733173Y882309D01*
X731736Y882595D01*
X275590D01*
X274153Y882309D01*
X272935Y881495D01*
X104432Y712993D01*
X103668Y713435D01*
X100632Y714248D01*
X97488D01*
X94452Y713435D01*
X91730Y711863D01*
X89507Y709640D01*
X88477Y707856D01*
X87000Y707481D01*
X85720D01*
X84243Y707856D01*
X83213Y709640D01*
X80990Y711863D01*
X78268Y713435D01*
X78050Y713493D01*
Y774741D01*
X78067Y774746D01*
X79921Y775816D01*
X81434Y777329D01*
X82504Y779183D01*
X83058Y781250D01*
Y783390D01*
X82504Y785457D01*
X81434Y787311D01*
X79921Y788824D01*
X78067Y789894D01*
X76000Y790448D01*
X73860D01*
X71793Y789894D01*
X69939Y788824D01*
X68426Y787311D01*
X67356Y785457D01*
X66802Y783390D01*
Y781250D01*
X67356Y779183D01*
X68426Y777329D01*
X69939Y775816D01*
X70540Y775469D01*
Y713833D01*
X69052Y713435D01*
X66330Y711863D01*
X64107Y709640D01*
X63077Y707856D01*
X61600Y707481D01*
X60320D01*
X58843Y707856D01*
X57813Y709640D01*
X55590Y711863D01*
X52868Y713435D01*
X49832Y714248D01*
X46688D01*
X43652Y713435D01*
X40930Y711863D01*
X38707Y709640D01*
X38089Y708570D01*
X38014Y708540D01*
X33823Y708722D01*
X33022Y710108D01*
X30658Y712473D01*
X27762Y714145D01*
X24532Y715010D01*
X24130D01*
Y702310D01*
X22860D01*
Y701040D01*
X10160D01*
Y700638D01*
X11026Y697408D01*
X12697Y694512D01*
X15062Y692148D01*
X16448Y691347D01*
X16630Y687157D01*
X16600Y687081D01*
X15530Y686463D01*
X13307Y684240D01*
X11736Y681518D01*
X10922Y678482D01*
Y675338D01*
X11736Y672302D01*
X13307Y669580D01*
X15530Y667357D01*
X18252Y665786D01*
X21288Y664972D01*
X24432D01*
X27468Y665786D01*
X30190Y667357D01*
X32413Y669580D01*
X33443Y671364D01*
X34920Y671739D01*
X36200D01*
X37677Y671364D01*
X38707Y669580D01*
X40930Y667357D01*
X43652Y665786D01*
X46688Y664972D01*
X49832D01*
X52868Y665786D01*
X55590Y667357D01*
X57813Y669580D01*
X58843Y671364D01*
X60320Y671739D01*
X61600D01*
X63077Y671364D01*
X64107Y669580D01*
X66330Y667357D01*
X69052Y665786D01*
X72088Y664972D01*
X75232D01*
X78268Y665786D01*
X80990Y667357D01*
X83213Y669580D01*
X84243Y671364D01*
X85720Y671739D01*
X87000D01*
X88477Y671364D01*
X89507Y669580D01*
X91730Y667357D01*
X94452Y665786D01*
X97488Y664972D01*
X100632D01*
X103668Y665786D01*
X106390Y667357D01*
X108613Y669580D01*
X109643Y671364D01*
X111120Y671739D01*
X112400D01*
X113877Y671364D01*
X114907Y669580D01*
X117130Y667357D01*
X119852Y665786D01*
X122888Y664972D01*
X126032D01*
X129068Y665786D01*
X131790Y667357D01*
X134013Y669580D01*
X135043Y671364D01*
X136520Y671739D01*
X137800D01*
X139277Y671364D01*
X140307Y669580D01*
X142530Y667357D01*
X145252Y665786D01*
X148288Y664972D01*
X151432D01*
X154468Y665786D01*
X155232Y666227D01*
X172775Y648685D01*
Y566705D01*
X104025Y497955D01*
X103211Y496737D01*
X102925Y495300D01*
Y393700D01*
X103211Y392263D01*
X103687Y391550D01*
X102635Y387740D01*
X100330D01*
Y379720D01*
X108850D01*
Y381241D01*
X112370Y382699D01*
X137045Y358025D01*
X138263Y357211D01*
X139700Y356925D01*
X253707D01*
X256412Y354258D01*
Y347980D01*
X102815D01*
Y353422D01*
X108088D01*
Y369160D01*
X108850D01*
Y377180D01*
X99060D01*
X89270D01*
Y369160D01*
X90032D01*
Y353422D01*
X95305D01*
Y347980D01*
X51271D01*
X39220Y360030D01*
X38002Y360844D01*
X36565Y361130D01*
X36220Y364940D01*
X37860Y365266D01*
X39936Y366654D01*
X41324Y368731D01*
X41811Y371180D01*
X41324Y373630D01*
X39936Y375706D01*
X37860Y377094D01*
X35410Y377581D01*
X25910D01*
X23461Y377094D01*
X21384Y375706D01*
X19996Y373630D01*
X19617Y371724D01*
X15807Y372099D01*
Y430205D01*
X145378Y559776D01*
X146647Y560116D01*
X148501Y561186D01*
X150014Y562699D01*
X151084Y564553D01*
X151638Y566620D01*
Y568760D01*
X151084Y570827D01*
X150014Y572681D01*
X148501Y574194D01*
X146647Y575264D01*
X144580Y575818D01*
X142440D01*
X140373Y575264D01*
X138519Y574194D01*
X137006Y572681D01*
X135936Y570827D01*
X135596Y569558D01*
X3999Y437961D01*
X3810Y437715D01*
X0Y439008D01*
Y891540D01*
X891540D01*
Y0D01*
D02*
G37*
G36*
X154566Y522379D02*
X157235Y521187D01*
X157526Y520103D01*
X158183Y518965D01*
Y478628D01*
X155112D01*
Y465372D01*
X162386D01*
X167829Y459929D01*
X169261Y458829D01*
X170930Y458139D01*
X172720Y457903D01*
X200324D01*
X201903Y454093D01*
X193965Y446155D01*
X175968D01*
Y449028D01*
X155112D01*
Y446155D01*
X139838D01*
Y450648D01*
X139838Y450648D01*
X140600Y452830D01*
X140600D01*
X140600Y454142D01*
Y459850D01*
X130810D01*
Y461120D01*
X129540D01*
Y469410D01*
X122870D01*
Y492210D01*
X153162Y522501D01*
X154566Y522379D01*
D02*
G37*
%LPC*%
G36*
X194437Y541401D02*
X187833D01*
Y533400D01*
X194437D01*
Y541401D01*
D02*
G37*
G36*
Y530860D02*
X187833D01*
Y522859D01*
X194437D01*
Y530860D01*
D02*
G37*
G36*
X194320Y496200D02*
X186300D01*
Y487680D01*
X194320D01*
Y496200D01*
D02*
G37*
G36*
Y485140D02*
X186300D01*
Y476620D01*
X194320D01*
Y485140D01*
D02*
G37*
G36*
X513040Y858380D02*
X478270D01*
Y808610D01*
X513040D01*
Y858380D01*
D02*
G37*
G36*
X475730D02*
X440960D01*
Y808610D01*
X475730D01*
Y858380D01*
D02*
G37*
G36*
X708128Y812218D02*
X677572D01*
Y793695D01*
X654018D01*
Y805768D01*
X636762D01*
Y774112D01*
X641635D01*
Y759848D01*
X577795Y696008D01*
X570843Y702960D01*
X568994Y704195D01*
X566814Y704629D01*
X560501D01*
X558321Y704195D01*
X556473Y702960D01*
X519560Y666047D01*
X514675D01*
X508982Y671740D01*
X510560Y675550D01*
X512330D01*
Y687070D01*
X506060D01*
Y684597D01*
X502250Y682561D01*
X502217Y682583D01*
Y688340D01*
X502078Y689397D01*
Y700368D01*
X488522D01*
Y689397D01*
X488383Y688340D01*
Y675640D01*
X488619Y673850D01*
X489310Y672181D01*
X490409Y670749D01*
X506919Y654239D01*
X508351Y653139D01*
X510020Y652449D01*
X511810Y652213D01*
X520700D01*
X522490Y652449D01*
X524159Y653139D01*
X525591Y654239D01*
X526690Y655671D01*
X527382Y657340D01*
X527444Y657817D01*
X562861Y693234D01*
X564454D01*
X570083Y687605D01*
X570093Y685639D01*
X569815Y683745D01*
X569409Y683665D01*
X568821Y683272D01*
X568428Y682684D01*
X568290Y681990D01*
Y676910D01*
X568428Y676216D01*
X568821Y675628D01*
X569409Y675235D01*
X570103Y675097D01*
X570357D01*
Y663194D01*
X570882D01*
Y635717D01*
X570076Y634911D01*
X569006Y633057D01*
X568452Y630990D01*
Y628850D01*
X569006Y626783D01*
X570076Y624929D01*
X571589Y623416D01*
X573443Y622346D01*
X575510Y621792D01*
X577650D01*
X579717Y622346D01*
X581571Y623416D01*
X583084Y624929D01*
X584154Y626783D01*
X584708Y628850D01*
Y630990D01*
X584154Y633057D01*
X583084Y634911D01*
X582277Y635717D01*
Y663194D01*
X582803D01*
Y675097D01*
X583057D01*
X583751Y675235D01*
X584339Y675628D01*
X584732Y676216D01*
X584870Y676910D01*
Y681990D01*
X584732Y682684D01*
X584339Y683272D01*
X583751Y683665D01*
X583057Y683803D01*
X582803D01*
Y690395D01*
X648045Y755638D01*
X648859Y756856D01*
X649145Y758293D01*
Y774112D01*
X654018D01*
Y786185D01*
X677572D01*
Y772973D01*
X664095Y759495D01*
X663281Y758277D01*
X662995Y756840D01*
Y715930D01*
X663281Y714493D01*
X664095Y713275D01*
X683200Y694170D01*
Y693625D01*
X683272Y693262D01*
Y683752D01*
X701028D01*
Y697308D01*
X690327D01*
X689610Y698380D01*
X670505Y717485D01*
Y755285D01*
X682883Y767662D01*
X708128D01*
Y812218D01*
D02*
G37*
G36*
X626380Y806530D02*
X618260D01*
Y791210D01*
X626380D01*
Y806530D01*
D02*
G37*
G36*
X615720D02*
X607600D01*
Y791210D01*
X615720D01*
Y806530D01*
D02*
G37*
G36*
X626380Y788670D02*
X618260D01*
Y773350D01*
X626380D01*
Y788670D01*
D02*
G37*
G36*
X615720D02*
X607600D01*
Y773350D01*
X615720D01*
Y788670D01*
D02*
G37*
G36*
X513040Y806070D02*
X478270D01*
Y756300D01*
X513040D01*
Y806070D01*
D02*
G37*
G36*
X475730D02*
X440960D01*
Y756300D01*
X475730D01*
Y806070D01*
D02*
G37*
G36*
X21590Y715010D02*
X21188D01*
X17958Y714145D01*
X15062Y712473D01*
X12697Y710108D01*
X11026Y707212D01*
X10160Y703982D01*
Y703580D01*
X21590D01*
Y715010D01*
D02*
G37*
G36*
X484540Y701130D02*
X478270D01*
Y689610D01*
X484540D01*
Y701130D01*
D02*
G37*
G36*
X521140D02*
X514870D01*
Y689610D01*
X521140D01*
Y701130D01*
D02*
G37*
G36*
X512330D02*
X506060D01*
Y689610D01*
X512330D01*
Y701130D01*
D02*
G37*
G36*
X475730D02*
X469460D01*
Y689610D01*
X475730D01*
Y701130D01*
D02*
G37*
G36*
X521140Y687070D02*
X514870D01*
Y675550D01*
X521140D01*
Y687070D01*
D02*
G37*
G36*
X788035Y642620D02*
X782320D01*
Y636587D01*
X788035D01*
Y642620D01*
D02*
G37*
G36*
X779780D02*
X774065D01*
Y636587D01*
X779780D01*
Y642620D01*
D02*
G37*
G36*
X701028Y678608D02*
X683272D01*
Y665052D01*
X688395D01*
Y631578D01*
X681622D01*
Y613022D01*
X702678D01*
Y631578D01*
X695905D01*
Y665052D01*
X701028D01*
Y678608D01*
D02*
G37*
G36*
X703440Y605340D02*
X693420D01*
Y596570D01*
X703440D01*
Y605340D01*
D02*
G37*
G36*
X690880D02*
X680860D01*
Y596570D01*
X690880D01*
Y605340D01*
D02*
G37*
G36*
X703440Y594030D02*
X693420D01*
Y585260D01*
X703440D01*
Y594030D01*
D02*
G37*
G36*
X690880D02*
X680860D01*
Y585260D01*
X690880D01*
Y594030D01*
D02*
G37*
G36*
X478160Y595020D02*
X470440D01*
Y584200D01*
X478160D01*
Y595020D01*
D02*
G37*
G36*
X488420Y581660D02*
X480700D01*
Y570840D01*
X488420D01*
Y581660D01*
D02*
G37*
G36*
X478160D02*
X470440D01*
Y570840D01*
X478160D01*
Y581660D01*
D02*
G37*
G36*
X570910Y498970D02*
X562140D01*
Y488950D01*
X570910D01*
Y498970D01*
D02*
G37*
G36*
X559600D02*
X550830D01*
Y488950D01*
X559600D01*
Y498970D01*
D02*
G37*
G36*
X684330Y544068D02*
X682190D01*
X680123Y543514D01*
X678269Y542444D01*
X676756Y540931D01*
X675686Y539077D01*
X675132Y537010D01*
Y534870D01*
X675686Y532803D01*
X676756Y530949D01*
X678269Y529436D01*
X679505Y528723D01*
Y493868D01*
X671562D01*
Y480612D01*
X692418D01*
Y493868D01*
X687015D01*
Y528723D01*
X688251Y529436D01*
X689764Y530949D01*
X690834Y532803D01*
X691388Y534870D01*
Y537010D01*
X690834Y539077D01*
X689764Y540931D01*
X688251Y542444D01*
X686397Y543514D01*
X684330Y544068D01*
D02*
G37*
G36*
X570910Y486410D02*
X562140D01*
Y476390D01*
X570910D01*
Y486410D01*
D02*
G37*
G36*
X559600D02*
X550830D01*
Y476390D01*
X559600D01*
Y486410D01*
D02*
G37*
G36*
X829370Y464990D02*
X822100D01*
Y458720D01*
X829370D01*
Y464990D01*
D02*
G37*
G36*
X783180D02*
X775910D01*
Y458720D01*
X783180D01*
Y464990D01*
D02*
G37*
G36*
X803740Y466538D02*
X801540D01*
X799509Y465696D01*
X797954Y464141D01*
X797112Y462110D01*
Y459910D01*
X797954Y457879D01*
X799509Y456324D01*
X801540Y455482D01*
X803740D01*
X805771Y456324D01*
X807326Y457879D01*
X808168Y459910D01*
Y462110D01*
X807326Y464141D01*
X805771Y465696D01*
X803740Y466538D01*
D02*
G37*
G36*
X359230Y444220D02*
X353460D01*
Y438450D01*
X359230D01*
Y444220D01*
D02*
G37*
G36*
X536840Y441330D02*
X528320D01*
Y433310D01*
X536840D01*
Y441330D01*
D02*
G37*
G36*
X525780D02*
X517260D01*
Y433310D01*
X525780D01*
Y441330D01*
D02*
G37*
G36*
X359230Y407910D02*
X353460D01*
Y402140D01*
X359230D01*
Y407910D01*
D02*
G37*
G36*
X322920D02*
X317150D01*
Y402140D01*
X322920D01*
Y407910D01*
D02*
G37*
G36*
X97790Y387740D02*
X89270D01*
Y379720D01*
X97790D01*
Y387740D01*
D02*
G37*
G36*
X567100Y334010D02*
X558330D01*
Y323990D01*
X567100D01*
Y334010D01*
D02*
G37*
G36*
X39808Y321160D02*
X34130D01*
Y315482D01*
X35577Y315870D01*
X37183Y316797D01*
X38493Y318107D01*
X39420Y319713D01*
X39808Y321160D01*
D02*
G37*
G36*
X150760Y274960D02*
X142240D01*
Y266940D01*
X150760D01*
Y274960D01*
D02*
G37*
G36*
X139700D02*
X131180D01*
Y266940D01*
X139700D01*
Y274960D01*
D02*
G37*
G36*
X558600Y306578D02*
X556460D01*
X554393Y306024D01*
X552539Y304954D01*
X551026Y303441D01*
X549956Y301587D01*
X549402Y299520D01*
Y297380D01*
X549956Y295313D01*
X550613Y294175D01*
Y264248D01*
X547093Y262789D01*
X539561Y270321D01*
X538129Y271420D01*
X536460Y272111D01*
X534670Y272347D01*
X504214D01*
X503610Y272950D01*
X501468Y274188D01*
X499077Y274828D01*
X496603D01*
X494212Y274188D01*
X492070Y272950D01*
X490320Y271201D01*
X489082Y269058D01*
X488442Y266667D01*
Y264193D01*
X489082Y261803D01*
X490320Y259660D01*
X492070Y257910D01*
X494212Y256672D01*
X496603Y256032D01*
X499077D01*
X501468Y256672D01*
X503610Y257910D01*
X504214Y258513D01*
X531805D01*
X548132Y242186D01*
Y241333D01*
X548773Y238943D01*
X550010Y236800D01*
X551759Y235050D01*
X553903Y233813D01*
X556293Y233172D01*
X558767D01*
X561157Y233813D01*
X563301Y235050D01*
X565050Y236800D01*
X566287Y238943D01*
X566928Y241333D01*
Y242186D01*
X580715Y255973D01*
X610846D01*
X611450Y255370D01*
X613592Y254132D01*
X615983Y253492D01*
X618457D01*
X620848Y254132D01*
X622990Y255370D01*
X624740Y257120D01*
X625978Y259263D01*
X626618Y261653D01*
Y264127D01*
X625978Y266518D01*
X624740Y268661D01*
X622990Y270410D01*
X620848Y271647D01*
X618457Y272288D01*
X615983D01*
X613592Y271647D01*
X611450Y270410D01*
X610846Y269807D01*
X577850D01*
X576060Y269571D01*
X574391Y268881D01*
X572959Y267781D01*
X567967Y262789D01*
X564447Y264248D01*
Y294175D01*
X565104Y295313D01*
X565658Y297380D01*
Y299520D01*
X565104Y301587D01*
X564034Y303441D01*
X562521Y304954D01*
X560667Y306024D01*
X558600Y306578D01*
D02*
G37*
G36*
X499077Y249428D02*
X496603D01*
X494212Y248787D01*
X492070Y247550D01*
X491466Y246947D01*
X469095D01*
X467957Y247604D01*
X465890Y248158D01*
X463750D01*
X461683Y247604D01*
X459829Y246534D01*
X458316Y245021D01*
X457246Y243167D01*
X456692Y241100D01*
Y238960D01*
X457246Y236893D01*
X458316Y235039D01*
X459829Y233526D01*
X461683Y232456D01*
X463750Y231902D01*
X465890D01*
X467957Y232456D01*
X469095Y233113D01*
X491466D01*
X492070Y232510D01*
X494212Y231273D01*
X496603Y230632D01*
X499077D01*
X501468Y231273D01*
X503610Y232510D01*
X505360Y234259D01*
X506598Y236402D01*
X507238Y238793D01*
Y241267D01*
X506598Y243657D01*
X505360Y245800D01*
X503610Y247550D01*
X501468Y248787D01*
X499077Y249428D01*
D02*
G37*
G36*
X74730Y302768D02*
X72590D01*
X70523Y302214D01*
X68669Y301144D01*
X67156Y299631D01*
X66086Y297777D01*
X65532Y295710D01*
Y293570D01*
X66086Y291503D01*
X67156Y289649D01*
X68669Y288136D01*
X70523Y287066D01*
X72590Y286512D01*
X74730D01*
X76797Y287066D01*
X78651Y288136D01*
X79013Y288498D01*
X87199D01*
X90770Y287020D01*
Y281940D01*
X90908Y281246D01*
X91301Y280658D01*
X91889Y280265D01*
X92583Y280127D01*
X92837D01*
Y268224D01*
X93363D01*
Y230587D01*
X92556Y229781D01*
X91486Y227927D01*
X90932Y225860D01*
Y223720D01*
X91486Y221653D01*
X92556Y219799D01*
X94069Y218286D01*
X95923Y217216D01*
X97990Y216662D01*
X100130D01*
X102197Y217216D01*
X104051Y218286D01*
X105564Y219799D01*
X106634Y221653D01*
X107188Y223720D01*
Y225860D01*
X106634Y227927D01*
X105564Y229781D01*
X104757Y230587D01*
Y268224D01*
X105283D01*
Y280127D01*
X105537D01*
X106231Y280265D01*
X106819Y280658D01*
X107212Y281246D01*
X107350Y281940D01*
Y287020D01*
X107212Y287714D01*
X106819Y288302D01*
X106231Y288695D01*
X105537Y288833D01*
X105283D01*
Y300736D01*
X92837D01*
Y299893D01*
X79902D01*
X78651Y301144D01*
X76797Y302214D01*
X74730Y302768D01*
D02*
G37*
G36*
X618457Y246888D02*
X615983D01*
X613592Y246248D01*
X611450Y245010D01*
X609700Y243260D01*
X608462Y241117D01*
X607822Y238727D01*
Y236253D01*
X608462Y233862D01*
X609700Y231719D01*
X611450Y229970D01*
X613592Y228732D01*
X615983Y228092D01*
X616836D01*
X637459Y207469D01*
X635831Y203708D01*
X635200D01*
X633133Y203154D01*
X631995Y202497D01*
X581985D01*
X566928Y217554D01*
Y218407D01*
X566287Y220798D01*
X565050Y222941D01*
X563301Y224690D01*
X561157Y225928D01*
X558767Y226568D01*
X556293D01*
X553903Y225928D01*
X551759Y224690D01*
X551156Y224087D01*
X415417D01*
X413627Y223852D01*
X411958Y223160D01*
X410526Y222061D01*
X371277Y182812D01*
X370205D01*
X368415Y182577D01*
X366746Y181886D01*
X365314Y180786D01*
X363409Y178881D01*
X362309Y177449D01*
X361618Y175780D01*
X361480Y174727D01*
X360807Y171196D01*
X360807D01*
Y159293D01*
X360553D01*
X359859Y159155D01*
X359271Y158762D01*
X358878Y158174D01*
X358740Y157480D01*
Y152400D01*
X358878Y151706D01*
X359271Y151118D01*
X359859Y150725D01*
X360553Y150587D01*
X360807D01*
Y138684D01*
X361333D01*
Y85156D01*
X359664Y83858D01*
X355854Y85722D01*
Y91948D01*
X309880D01*
Y50292D01*
X355854D01*
Y64203D01*
X358140D01*
X359930Y64439D01*
X361599Y65129D01*
X363031Y66229D01*
X371921Y75119D01*
X373021Y76551D01*
X373712Y78220D01*
X373947Y80010D01*
X373712Y81800D01*
X373021Y83469D01*
X372728Y83850D01*
Y138684D01*
X373253D01*
Y150587D01*
X373507D01*
X374201Y150725D01*
X374789Y151118D01*
X375182Y151706D01*
X375320Y152400D01*
Y157480D01*
X375182Y158174D01*
X374789Y158762D01*
X374201Y159155D01*
X373507Y159293D01*
X373253D01*
Y168305D01*
X373348Y168978D01*
X374142D01*
X375932Y169214D01*
X377601Y169904D01*
X379033Y171004D01*
X418282Y210253D01*
X551156D01*
X551759Y209650D01*
X553903Y208412D01*
X556293Y207772D01*
X557146D01*
X574229Y190689D01*
X575661Y189590D01*
X577330Y188899D01*
X579120Y188663D01*
X631995D01*
X633133Y188006D01*
X635200Y187452D01*
X637340D01*
X639407Y188006D01*
X641261Y189076D01*
X642774Y190589D01*
X643844Y192443D01*
X644398Y194510D01*
Y195142D01*
X648159Y196769D01*
X659833Y185095D01*
Y158306D01*
X660069Y156515D01*
X660527Y155408D01*
Y147863D01*
X660273D01*
X659579Y147725D01*
X658991Y147332D01*
X658598Y146744D01*
X658460Y146050D01*
Y140970D01*
X658598Y140276D01*
X658991Y139688D01*
X659579Y139295D01*
X660273Y139157D01*
X660527D01*
Y129504D01*
X660346Y129068D01*
X660111Y127278D01*
Y111093D01*
X626578Y77561D01*
X577078D01*
Y103378D01*
X540522D01*
Y36775D01*
X447490D01*
Y68580D01*
X404310D01*
Y36775D01*
X152685D01*
X149174Y40286D01*
X149286Y40479D01*
X149987Y43096D01*
Y45804D01*
X149286Y48421D01*
X147932Y50766D01*
X146016Y52682D01*
X143671Y54036D01*
X141054Y54737D01*
X138346D01*
X135729Y54036D01*
X133384Y52682D01*
X131468Y50766D01*
X130114Y48421D01*
X129413Y45804D01*
Y43096D01*
X130114Y40479D01*
X131468Y38134D01*
X133384Y36218D01*
X135729Y34864D01*
X138346Y34163D01*
X141054D01*
X143671Y34864D01*
X143864Y34976D01*
X148475Y30365D01*
X149693Y29551D01*
X151130Y29265D01*
X606193D01*
X606906Y28029D01*
X608419Y26516D01*
X610273Y25446D01*
X612340Y24892D01*
X614480D01*
X616547Y25446D01*
X618401Y26516D01*
X619914Y28029D01*
X620984Y29883D01*
X621538Y31950D01*
Y34090D01*
X620984Y36157D01*
X619914Y38011D01*
X618401Y39524D01*
X616547Y40594D01*
X614480Y41148D01*
X612340D01*
X610273Y40594D01*
X608419Y39524D01*
X606906Y38011D01*
X606193Y36775D01*
X577078D01*
Y63726D01*
X629443D01*
X631234Y63962D01*
X632902Y64653D01*
X634335Y65752D01*
X671919Y103337D01*
X673018Y104769D01*
X673709Y106438D01*
X673945Y108228D01*
Y124726D01*
X674010Y124811D01*
X674702Y126480D01*
X674937Y128270D01*
X674702Y130060D01*
X674010Y131729D01*
X672973Y133081D01*
Y139157D01*
X673227D01*
X673921Y139295D01*
X674509Y139688D01*
X674902Y140276D01*
X675040Y140970D01*
Y146050D01*
X674902Y146744D01*
X674509Y147332D01*
X673921Y147725D01*
X673227Y147863D01*
X672973D01*
Y155408D01*
X673431Y156515D01*
X673667Y158306D01*
Y187960D01*
X673431Y189750D01*
X672740Y191419D01*
X671641Y192851D01*
X626618Y237874D01*
Y238727D01*
X625978Y241117D01*
X624740Y243260D01*
X622990Y245010D01*
X620848Y246248D01*
X618457Y246888D01*
D02*
G37*
G36*
X516840Y184090D02*
X499070D01*
Y162520D01*
X516840D01*
Y184090D01*
D02*
G37*
G36*
X496530D02*
X478760D01*
Y162520D01*
X496530D01*
Y184090D01*
D02*
G37*
G36*
X516840Y159980D02*
X499070D01*
Y138410D01*
X516840D01*
Y159980D01*
D02*
G37*
G36*
X496530D02*
X478760D01*
Y138410D01*
X496530D01*
Y159980D01*
D02*
G37*
G36*
X144580Y140208D02*
X142440D01*
X140373Y139654D01*
X138519Y138584D01*
X137006Y137071D01*
X136293Y135835D01*
X125730D01*
X124293Y135549D01*
X123075Y134735D01*
X67664Y79324D01*
X67471Y79436D01*
X64854Y80137D01*
X62146D01*
X59529Y79436D01*
X57184Y78082D01*
X55268Y76166D01*
X53914Y73821D01*
X53213Y71204D01*
Y68496D01*
X53914Y65879D01*
X55268Y63534D01*
X57184Y61618D01*
X59529Y60264D01*
X62146Y59563D01*
X64854D01*
X67471Y60264D01*
X69816Y61618D01*
X71732Y63534D01*
X73086Y65879D01*
X73787Y68496D01*
Y71204D01*
X73086Y73821D01*
X72974Y74014D01*
X127285Y128325D01*
X136293D01*
X137006Y127089D01*
X138519Y125576D01*
X140373Y124506D01*
X142440Y123952D01*
X144580D01*
X146647Y124506D01*
X148501Y125576D01*
X150014Y127089D01*
X151084Y128943D01*
X151638Y131010D01*
Y133150D01*
X151084Y135217D01*
X150014Y137071D01*
X148501Y138584D01*
X146647Y139654D01*
X144580Y140208D01*
D02*
G37*
G36*
X292100Y91948D02*
X246126D01*
Y76767D01*
X147331D01*
X146016Y78082D01*
X143671Y79436D01*
X141054Y80137D01*
X138346D01*
X135729Y79436D01*
X133384Y78082D01*
X131468Y76166D01*
X130114Y73821D01*
X129413Y71204D01*
Y68496D01*
X130114Y65879D01*
X131468Y63534D01*
X133384Y61618D01*
X135729Y60264D01*
X138346Y59563D01*
X141054D01*
X143671Y60264D01*
X146016Y61618D01*
X147331Y62933D01*
X246126D01*
Y50292D01*
X292100D01*
Y91948D01*
D02*
G37*
G36*
X447490Y104140D02*
X427170D01*
Y71120D01*
X447490D01*
Y104140D01*
D02*
G37*
G36*
X424630D02*
X404310D01*
Y71120D01*
X424630D01*
Y104140D01*
D02*
G37*
G36*
X777040Y224663D02*
X774900D01*
X772833Y224109D01*
X770979Y223039D01*
X769466Y221526D01*
X768396Y219672D01*
X767842Y217605D01*
Y215465D01*
X768396Y213398D01*
X769466Y211544D01*
X770979Y210031D01*
X772833Y208961D01*
X774900Y208407D01*
X777040D01*
X779107Y208961D01*
X779932Y209437D01*
X782366D01*
X803553Y188250D01*
X803779Y187214D01*
X803771Y184269D01*
X803461Y183697D01*
X803378Y183574D01*
X803240Y182880D01*
Y177800D01*
X803378Y177106D01*
X803771Y176518D01*
X804359Y176125D01*
X805053Y175987D01*
X805307D01*
Y164084D01*
X806468D01*
Y83146D01*
X804568Y81246D01*
X803214Y78901D01*
X802513Y76284D01*
Y73576D01*
X803214Y70959D01*
X804568Y68614D01*
X806484Y66698D01*
X808829Y65344D01*
X811446Y64643D01*
X814154D01*
X816771Y65344D01*
X819116Y66698D01*
X821032Y68614D01*
X822386Y70959D01*
X823087Y73576D01*
Y76284D01*
X822386Y78901D01*
X821032Y81246D01*
X819116Y83162D01*
X817862Y83886D01*
Y169989D01*
X817753Y170540D01*
Y175987D01*
X818007D01*
X818701Y176125D01*
X819289Y176518D01*
X819682Y177106D01*
X819820Y177800D01*
Y182880D01*
X819682Y183574D01*
X819289Y184162D01*
X818701Y184555D01*
X818007Y184693D01*
X817753D01*
Y196596D01*
X814491D01*
X813564Y197804D01*
X790123Y221245D01*
X788690Y222344D01*
X787022Y223036D01*
X785231Y223271D01*
X780559D01*
X779107Y224109D01*
X777040Y224663D01*
D02*
G37*
G36*
X763354Y85217D02*
X760646D01*
X758029Y84516D01*
X755684Y83162D01*
X753768Y81246D01*
X752414Y78901D01*
X751713Y76284D01*
Y73576D01*
X752414Y70959D01*
X753768Y68614D01*
X755684Y66698D01*
X758029Y65344D01*
X760646Y64643D01*
X763354D01*
X765971Y65344D01*
X768316Y66698D01*
X770232Y68614D01*
X771586Y70959D01*
X772287Y73576D01*
Y76284D01*
X771586Y78901D01*
X770232Y81246D01*
X768316Y83162D01*
X765971Y84516D01*
X763354Y85217D01*
D02*
G37*
G36*
X737954D02*
X735246D01*
X732629Y84516D01*
X730284Y83162D01*
X728368Y81246D01*
X727014Y78901D01*
X726313Y76284D01*
Y73576D01*
X727014Y70959D01*
X728368Y68614D01*
X730284Y66698D01*
X732629Y65344D01*
X735246Y64643D01*
X737954D01*
X740571Y65344D01*
X742916Y66698D01*
X744832Y68614D01*
X746186Y70959D01*
X746887Y73576D01*
Y76284D01*
X746186Y78901D01*
X744832Y81246D01*
X742916Y83162D01*
X740571Y84516D01*
X737954Y85217D01*
D02*
G37*
G36*
X90254Y80137D02*
X87546D01*
X84929Y79436D01*
X82584Y78082D01*
X80668Y76166D01*
X79314Y73821D01*
X78613Y71204D01*
Y68496D01*
X79314Y65879D01*
X80668Y63534D01*
X82584Y61618D01*
X84929Y60264D01*
X87546Y59563D01*
X90254D01*
X92871Y60264D01*
X95216Y61618D01*
X97132Y63534D01*
X98486Y65879D01*
X99187Y68496D01*
Y71204D01*
X98486Y73821D01*
X97132Y76166D01*
X95216Y78082D01*
X92871Y79436D01*
X90254Y80137D01*
D02*
G37*
G36*
X738055Y60579D02*
X737870D01*
Y50800D01*
X747649D01*
Y50985D01*
X746896Y53795D01*
X745441Y56314D01*
X743384Y58371D01*
X740865Y59826D01*
X738055Y60579D01*
D02*
G37*
G36*
X735330D02*
X735145D01*
X732335Y59826D01*
X729816Y58371D01*
X727759Y56314D01*
X726304Y53795D01*
X725551Y50985D01*
Y50800D01*
X735330D01*
Y60579D01*
D02*
G37*
G36*
X64955Y55499D02*
X64770D01*
Y45720D01*
X74549D01*
Y45905D01*
X73796Y48715D01*
X72341Y51234D01*
X70284Y53291D01*
X67765Y54746D01*
X64955Y55499D01*
D02*
G37*
G36*
X62230D02*
X62045D01*
X59235Y54746D01*
X56716Y53291D01*
X54659Y51234D01*
X53204Y48715D01*
X52451Y45905D01*
Y45720D01*
X62230D01*
Y55499D01*
D02*
G37*
G36*
X814154Y59817D02*
X811446D01*
X808829Y59116D01*
X806484Y57762D01*
X804568Y55846D01*
X803214Y53501D01*
X802513Y50884D01*
Y48176D01*
X803214Y45559D01*
X804568Y43214D01*
X806484Y41298D01*
X808829Y39944D01*
X811446Y39243D01*
X814154D01*
X816771Y39944D01*
X819116Y41298D01*
X821032Y43214D01*
X822386Y45559D01*
X823087Y48176D01*
Y50884D01*
X822386Y53501D01*
X821032Y55846D01*
X819116Y57762D01*
X816771Y59116D01*
X814154Y59817D01*
D02*
G37*
G36*
X763354D02*
X760646D01*
X758029Y59116D01*
X755684Y57762D01*
X753768Y55846D01*
X752414Y53501D01*
X751713Y50884D01*
Y48176D01*
X752414Y45559D01*
X753768Y43214D01*
X755684Y41298D01*
X758029Y39944D01*
X760646Y39243D01*
X763354D01*
X765971Y39944D01*
X768316Y41298D01*
X770232Y43214D01*
X771586Y45559D01*
X772287Y48176D01*
Y50884D01*
X771586Y53501D01*
X770232Y55846D01*
X768316Y57762D01*
X765971Y59116D01*
X763354Y59817D01*
D02*
G37*
G36*
X747649Y48260D02*
X737870D01*
Y38481D01*
X738055D01*
X740865Y39234D01*
X743384Y40689D01*
X745441Y42746D01*
X746896Y45265D01*
X747649Y48075D01*
Y48260D01*
D02*
G37*
G36*
X735330D02*
X725551D01*
Y48075D01*
X726304Y45265D01*
X727759Y42746D01*
X729816Y40689D01*
X732335Y39234D01*
X735145Y38481D01*
X735330D01*
Y48260D01*
D02*
G37*
G36*
X90254Y54737D02*
X87546D01*
X84929Y54036D01*
X82584Y52682D01*
X80668Y50766D01*
X79314Y48421D01*
X78613Y45804D01*
Y43096D01*
X79314Y40479D01*
X80668Y38134D01*
X82584Y36218D01*
X84929Y34864D01*
X87546Y34163D01*
X90254D01*
X92871Y34864D01*
X95216Y36218D01*
X97132Y38134D01*
X98486Y40479D01*
X99187Y43096D01*
Y45804D01*
X98486Y48421D01*
X97132Y50766D01*
X95216Y52682D01*
X92871Y54036D01*
X90254Y54737D01*
D02*
G37*
G36*
X74549Y43180D02*
X64770D01*
Y33401D01*
X64955D01*
X67765Y34154D01*
X70284Y35609D01*
X72341Y37666D01*
X73796Y40185D01*
X74549Y42995D01*
Y43180D01*
D02*
G37*
G36*
X62230D02*
X52451D01*
Y42995D01*
X53204Y40185D01*
X54659Y37666D01*
X56716Y35609D01*
X59235Y34154D01*
X62045Y33401D01*
X62230D01*
Y43180D01*
D02*
G37*
G36*
X788754Y59817D02*
X786046D01*
X783429Y59116D01*
X781084Y57762D01*
X779168Y55846D01*
X777814Y53501D01*
X777113Y50884D01*
Y48176D01*
X777814Y45559D01*
X777926Y45366D01*
X751555Y18995D01*
X145065D01*
X123774Y40286D01*
X123886Y40479D01*
X124587Y43096D01*
Y45804D01*
X123886Y48421D01*
X122532Y50766D01*
X120616Y52682D01*
X118271Y54036D01*
X115654Y54737D01*
X112946D01*
X110329Y54036D01*
X107984Y52682D01*
X106068Y50766D01*
X104714Y48421D01*
X104013Y45804D01*
Y43096D01*
X104714Y40479D01*
X106068Y38134D01*
X107984Y36218D01*
X110329Y34864D01*
X112946Y34163D01*
X115654D01*
X118271Y34864D01*
X118464Y34976D01*
X140855Y12585D01*
X142073Y11771D01*
X143510Y11485D01*
X753110D01*
X754547Y11771D01*
X755765Y12585D01*
X783236Y40056D01*
X783429Y39944D01*
X786046Y39243D01*
X788754D01*
X791371Y39944D01*
X793716Y41298D01*
X795632Y43214D01*
X796986Y45559D01*
X797687Y48176D01*
Y50884D01*
X796986Y53501D01*
X795632Y55846D01*
X793716Y57762D01*
X791371Y59116D01*
X788754Y59817D01*
D02*
G37*
G36*
X140600Y469410D02*
X132080D01*
Y462390D01*
X140600D01*
Y469410D01*
D02*
G37*
%LPD*%
D17*
X195707Y532130D02*
D03*
X213233D02*
D03*
D18*
X332867Y71120D02*
D03*
X269113D02*
D03*
D19*
X666750Y153225D02*
D03*
Y133794D02*
D03*
X781050Y663321D02*
D03*
Y643890D02*
D03*
X99060Y274764D02*
D03*
Y294195D02*
D03*
X811530Y170625D02*
D03*
Y190056D02*
D03*
X367030Y164655D02*
D03*
Y145225D02*
D03*
X576580Y669734D02*
D03*
Y689165D02*
D03*
D20*
X497800Y161250D02*
D03*
D21*
X558800Y69850D02*
D03*
D22*
X425900D02*
D03*
D23*
X527050Y442600D02*
D03*
Y459100D02*
D03*
X140970Y276230D02*
D03*
Y292730D02*
D03*
X99060Y378450D02*
D03*
Y361950D02*
D03*
D24*
X681990Y487240D02*
D03*
Y457640D02*
D03*
X165540Y442400D02*
D03*
Y472000D02*
D03*
D25*
X130810Y443120D02*
D03*
Y461120D02*
D03*
D26*
X616990Y789940D02*
D03*
X645390D02*
D03*
D27*
X479430Y582930D02*
D03*
X508630D02*
D03*
D28*
X780350Y789940D02*
D03*
X692850D02*
D03*
D29*
X212090Y486410D02*
D03*
X195590D02*
D03*
D30*
X338190Y423180D02*
D03*
X324190D02*
D03*
X352190D02*
D03*
X324190Y409180D02*
D03*
X338190D02*
D03*
X352190D02*
D03*
X324190Y437180D02*
D03*
X338190D02*
D03*
X352190D02*
D03*
D31*
X265690Y500380D02*
D03*
Y487680D02*
D03*
Y474980D02*
D03*
Y462280D02*
D03*
Y449580D02*
D03*
Y436880D02*
D03*
Y424180D02*
D03*
Y411480D02*
D03*
Y398780D02*
D03*
Y386080D02*
D03*
Y373380D02*
D03*
Y360680D02*
D03*
Y347980D02*
D03*
Y335280D02*
D03*
X440690D02*
D03*
Y347980D02*
D03*
Y360680D02*
D03*
Y373380D02*
D03*
Y386080D02*
D03*
Y398780D02*
D03*
Y411480D02*
D03*
Y424180D02*
D03*
Y436880D02*
D03*
Y449580D02*
D03*
Y462280D02*
D03*
Y474980D02*
D03*
Y487680D02*
D03*
Y500380D02*
D03*
D32*
X283340Y322780D02*
D03*
X296040D02*
D03*
X308740D02*
D03*
X321440D02*
D03*
X334140D02*
D03*
X346840D02*
D03*
X359540D02*
D03*
X372240D02*
D03*
X384940D02*
D03*
X397640D02*
D03*
X410340D02*
D03*
X423040D02*
D03*
D33*
X629110Y458470D02*
D03*
X610410D02*
D03*
X473250Y335280D02*
D03*
X491950D02*
D03*
X471980Y487680D02*
D03*
X490680D02*
D03*
D34*
X440400Y688340D02*
D03*
X458700D02*
D03*
X477000D02*
D03*
X495300D02*
D03*
X513600D02*
D03*
D35*
X477000Y807340D02*
D03*
D36*
X692150Y671830D02*
D03*
Y690530D02*
D03*
D37*
Y622300D02*
D03*
Y595300D02*
D03*
D38*
X530060Y335280D02*
D03*
X557060D02*
D03*
X533870Y487680D02*
D03*
X560870D02*
D03*
D39*
X830640Y483260D02*
D03*
Y466260D02*
D03*
X774640Y483260D02*
D03*
Y466260D02*
D03*
D61*
X63500Y44450D02*
D03*
X88900D02*
D03*
X114300D02*
D03*
X139700D02*
D03*
X63500Y69850D02*
D03*
X88900D02*
D03*
X114300D02*
D03*
X139700D02*
D03*
X736600Y49530D02*
D03*
X762000D02*
D03*
X787400D02*
D03*
X812800D02*
D03*
X736600Y74930D02*
D03*
X762000D02*
D03*
X787400D02*
D03*
X812800D02*
D03*
D67*
X575945Y690118D02*
X576580Y689483D01*
X566814Y698931D02*
X575628Y690118D01*
X520700Y659130D02*
X560501Y698931D01*
X576580Y689165D02*
Y689483D01*
X575628Y690118D02*
X575945D01*
X560501Y698931D02*
X566814D01*
X367030Y164973D02*
X368300Y173990D01*
X74104Y294195D02*
X99060D01*
X367030Y80010D02*
Y145225D01*
X213233Y487553D02*
Y532130D01*
X576580Y629920D02*
Y669734D01*
X99060Y224790D02*
Y274764D01*
X812165Y75565D02*
Y169989D01*
D68*
X511810Y659130D02*
X520700D01*
X368300Y173990D02*
X370205Y175895D01*
X374142D01*
X415417Y217170D01*
X212090Y472440D02*
Y486410D01*
X204470Y464820D02*
X212090Y472440D01*
X172720Y464820D02*
X204470D01*
X165540Y472000D02*
X172720Y464820D01*
X495300Y675640D02*
X511810Y659130D01*
X495300Y675640D02*
Y688340D01*
X8890Y433070D02*
X143510Y567690D01*
X8890Y275590D02*
X109220Y175260D01*
X8890Y275590D02*
Y433070D01*
X109220Y175260D02*
X124460D01*
X558165Y216535D02*
X579120Y195580D01*
X636270D01*
X557530Y242570D02*
Y298450D01*
X776151Y216354D02*
X785231D01*
X808672Y192913D01*
X165100Y472440D02*
Y523240D01*
X508630Y582930D02*
X545032D01*
X332867Y71120D02*
X358140D01*
X367030Y80010D01*
X415417Y217170D02*
X557530D01*
X139700Y69850D02*
X267843D01*
X667028Y127278D02*
X668020Y128270D01*
X667028Y108228D02*
Y127278D01*
X666750Y158306D02*
Y187960D01*
X617220Y237490D02*
X666750Y187960D01*
X559593Y70643D02*
X629443D01*
X667028Y108228D01*
X440400Y654260D02*
X508630Y586030D01*
X440400Y654260D02*
Y688340D01*
X213360Y487680D02*
X265690D01*
X557530Y242570D02*
X577850Y262890D01*
X617220D01*
X534670Y265430D02*
X557530Y242570D01*
X497840Y265430D02*
X534670D01*
X464820Y240030D02*
X497840D01*
D69*
X165540Y442400D02*
X195520D01*
X228100Y474980D01*
X265690D01*
X571127Y593463D02*
X591594Y572996D01*
X548327Y593463D02*
X571127D01*
X591594Y572996D02*
X749527D01*
X797560Y621030D01*
X73660Y294640D02*
X74104Y294195D01*
X721360Y283210D02*
X765810D01*
X841085Y358485D01*
Y769491D01*
X410275Y276925D02*
Y322715D01*
X410340Y322780D01*
X410210Y276860D02*
X410275Y276925D01*
X295340Y253430D02*
Y322080D01*
X294640Y252730D02*
X295340Y253430D01*
X281940Y289560D02*
X282640Y290260D01*
Y322080D01*
X283340Y322780D01*
X295340Y322080D02*
X296040Y322780D01*
X811530Y190056D02*
Y190373D01*
X808672Y192913D02*
X808990D01*
X775970Y216535D02*
X776151Y216354D01*
X808990Y192913D02*
X811530Y190373D01*
X139700Y44450D02*
X151130Y33020D01*
X613410D01*
X114300Y44450D02*
X143510Y15240D01*
X753110D01*
X787400Y49530D01*
X63500Y69850D02*
X125730Y132080D01*
X143510D01*
X165100Y472440D02*
X165540Y472000D01*
X106680Y495300D02*
X176530Y565150D01*
X149860Y676910D02*
X176530Y650240D01*
Y565150D02*
Y650240D01*
X106680Y393700D02*
Y495300D01*
X119115Y493765D02*
X199170Y573820D01*
X119115Y435529D02*
Y493765D01*
X199170Y573820D02*
X224570D01*
X172720Y398780D02*
X236220Y462280D01*
X265690D01*
X191347Y398780D02*
X242147Y449580D01*
X265690D01*
X209973Y398780D02*
X248073Y436880D01*
X265690D01*
X228600Y398780D02*
X254000Y424180D01*
X265690D01*
X168564Y386080D02*
X240290D01*
X119115Y435529D02*
X168564Y386080D01*
X240290D02*
X253745Y399535D01*
Y405121D01*
X262690Y411480D02*
X265690D01*
X258935Y407725D02*
X262690Y411480D01*
X253745Y405121D02*
X256349Y407725D01*
X258935D01*
X99060Y702310D02*
X275590Y878840D01*
X731736D01*
X841085Y769491D01*
X810568Y693157D02*
Y753110D01*
X780350Y782940D02*
X810180Y753110D01*
X780542Y663130D02*
X810568Y693157D01*
X810180Y753110D02*
X810568D01*
X308675Y276925D02*
Y322715D01*
X308740Y322780D01*
X308610Y276860D02*
X308675Y276925D01*
X74295Y702945D02*
Y781685D01*
X74930Y782320D01*
X73660Y702310D02*
X74295Y702945D01*
X458700Y683090D02*
X548327Y593463D01*
X545032Y582930D02*
X545293Y582668D01*
X106680Y393700D02*
X139700Y360680D01*
X372175Y298515D02*
Y322715D01*
X372110Y298450D02*
X372175Y298515D01*
X346775D02*
Y322715D01*
X346710Y298450D02*
X346775Y298515D01*
X321375D02*
Y322715D01*
X321310Y298450D02*
X321375Y298515D01*
X384810Y276860D02*
X384875Y276925D01*
Y322715D01*
X400050Y360680D02*
X440690D01*
X400063Y435597D02*
X400711Y436245D01*
X440055D01*
X381049Y509325D02*
X443521D01*
X315245Y443521D02*
X381049Y509325D01*
X443521D02*
X447635Y513439D01*
X378460Y676910D02*
X447635Y607735D01*
Y513439D02*
Y607735D01*
X315245Y430049D02*
Y443521D01*
X273871Y388675D02*
X315245Y430049D01*
X268285Y388675D02*
X273871D01*
X265690Y386080D02*
X268285Y388675D01*
X258745Y582595D02*
X353060Y676910D01*
X258745Y513439D02*
Y582595D01*
Y513439D02*
X262104Y510080D01*
X274276D01*
X277635Y506721D01*
Y405139D02*
Y506721D01*
X273871Y401375D02*
X277635Y405139D01*
X268285Y401375D02*
X273871D01*
X265690Y398780D02*
X268285Y401375D01*
X224570Y573820D02*
X327660Y676910D01*
X139700Y360680D02*
X265690D01*
X238760Y194310D02*
X368300D01*
X496075Y322085D01*
X114300Y69850D02*
X238760Y194310D01*
X367030Y164655D02*
Y164973D01*
X267843Y69850D02*
X269113Y71120D01*
X557530Y217170D02*
X558165Y216535D01*
X558800Y69850D02*
X559593Y70643D01*
X417466Y424491D02*
X440379D01*
X400473Y411057D02*
X440267D01*
X417155Y424802D02*
X417466Y424491D01*
X400050Y410633D02*
X400473Y411057D01*
X440379Y424491D02*
X440690Y424180D01*
X440055Y436245D02*
X440690Y436880D01*
X508630Y582930D02*
Y586030D01*
X440267Y411057D02*
X440690Y411480D01*
X417830Y398780D02*
X440690D01*
X400050Y385657D02*
X400262Y385868D01*
X440478D01*
X440690Y386080D01*
X417830Y373380D02*
X440690D01*
X417830Y347980D02*
X440690D01*
X130810Y443120D02*
X131530Y442400D01*
X165540D01*
X99060Y344225D02*
Y361950D01*
Y344225D02*
X139700D01*
X212090Y486410D02*
X213360Y487680D01*
X212090Y486410D02*
X213233Y487553D01*
X773640Y483260D02*
X793606D01*
X796551Y480315D01*
X811423D01*
X814368Y483260D01*
X830640D01*
X681990Y487240D02*
X683260Y488510D01*
Y535940D01*
X748020Y457640D02*
X773640Y483260D01*
X681990Y457640D02*
X748020D01*
X629940D02*
X681990D01*
X629110Y458470D02*
X629940Y457640D01*
X527680Y458470D02*
X610410D01*
X527050Y459100D02*
X527680Y458470D01*
X526550Y459100D02*
X527050D01*
X510670Y474980D02*
X526550Y459100D01*
X440690Y474980D02*
X510670D01*
X576580Y689165D02*
Y689483D01*
X645390Y758293D01*
Y789940D01*
X787400Y74930D02*
Y133350D01*
X440690Y462280D02*
X458470D01*
X787400Y133350D01*
X440690Y449580D02*
X443285Y446985D01*
X448871D01*
X542005Y353851D01*
Y324689D02*
Y353851D01*
X539401Y322085D02*
X542005Y324689D01*
X496075Y322085D02*
X539401D01*
X491950Y335280D02*
X530060D01*
X812165Y75565D02*
X812800Y74930D01*
X811530Y170625D02*
X812165Y169989D01*
X617220Y237490D02*
X617855Y236855D01*
X797560Y621030D02*
Y654304D01*
X789368Y662495D02*
X797560Y654304D01*
X780542Y663130D02*
X781177Y662495D01*
X789368D01*
X458700Y683090D02*
Y688340D01*
X332867Y71120D02*
X349187Y87440D01*
X139700Y335355D02*
X140970Y334085D01*
Y292730D02*
Y334085D01*
X139700Y335355D02*
X265615D01*
X139700Y344225D02*
X258935D01*
X780350Y782940D02*
Y789940D01*
X692150Y622300D02*
Y671830D01*
X690050Y690530D02*
X692150D01*
X686955Y693625D02*
X690050Y690530D01*
X686955Y693625D02*
Y695725D01*
X666750Y715930D02*
X686955Y695725D01*
X666750Y715930D02*
Y756840D01*
X692850Y782940D01*
Y789940D01*
X645390D02*
X692850D01*
X422910Y298450D02*
X422975Y298515D01*
Y322715D01*
X423040Y322780D01*
X397510Y298450D02*
X397575Y298515D01*
Y322715D01*
X397640Y322780D01*
X384875Y322715D02*
X384940Y322780D01*
X372175Y322715D02*
X372240Y322780D01*
X359410Y276860D02*
X359475Y276925D01*
Y322715D01*
X359540Y322780D01*
X346775Y322715D02*
X346840Y322780D01*
X334010Y276860D02*
X334075Y276925D01*
Y322715D01*
X334140Y322780D01*
X321375Y322715D02*
X321440Y322780D01*
X262690Y347980D02*
X265690D01*
X23915Y346655D02*
Y352135D01*
X258935Y344225D02*
X262690Y347980D01*
X22860Y341930D02*
X23853Y342923D01*
X49715Y344225D02*
X99060D01*
X23853Y346593D02*
X23915Y346655D01*
Y352135D02*
X29155Y357375D01*
X36565D01*
X23853Y342923D02*
Y346593D01*
X36565Y357375D02*
X49715Y344225D01*
X32860Y335430D02*
X32935Y335355D01*
X139700D01*
X265615D02*
X265690Y335280D01*
X440690D02*
X473250D01*
X490680Y487680D02*
X533870D01*
X440690D02*
X471980D01*
D70*
X497840Y240030D02*
D03*
Y265430D02*
D03*
X617220Y237490D02*
D03*
Y262890D02*
D03*
X557530Y217170D02*
D03*
Y242570D02*
D03*
D71*
X378460Y676910D02*
D03*
Y702310D02*
D03*
X353060Y676910D02*
D03*
Y702310D02*
D03*
X327660Y676910D02*
D03*
Y702310D02*
D03*
X302260Y676910D02*
D03*
Y702310D02*
D03*
X276860Y676910D02*
D03*
Y702310D02*
D03*
X251460Y676910D02*
D03*
Y702310D02*
D03*
X226060Y676910D02*
D03*
Y702310D02*
D03*
X200660Y676910D02*
D03*
Y702310D02*
D03*
X175260Y676910D02*
D03*
Y702310D02*
D03*
X149860Y676910D02*
D03*
Y702310D02*
D03*
X124460Y676910D02*
D03*
Y702310D02*
D03*
X99060Y676910D02*
D03*
Y702310D02*
D03*
X73660Y676910D02*
D03*
Y702310D02*
D03*
X48260Y676910D02*
D03*
Y702310D02*
D03*
X22860Y676910D02*
D03*
Y702310D02*
D03*
D72*
X338190Y430180D02*
D03*
X324190D02*
D03*
X352190D02*
D03*
X324190Y416180D02*
D03*
X338190D02*
D03*
X352190D02*
D03*
X331190Y437180D02*
D03*
X345190D02*
D03*
X331190Y423180D02*
D03*
X345190D02*
D03*
X331190Y409180D02*
D03*
X345190D02*
D03*
D73*
X22860Y328930D02*
D03*
Y341930D02*
D03*
X32860Y322430D02*
D03*
Y335430D02*
D03*
Y348430D02*
D03*
D74*
X30660Y371180D02*
D03*
Y299680D02*
D03*
D75*
X802640Y488510D02*
D03*
Y461010D02*
D03*
D76*
X124460Y175260D02*
D03*
X721360Y283210D02*
D03*
X410210Y276860D02*
D03*
X294640Y252730D02*
D03*
X281940Y289560D02*
D03*
X636270Y195580D02*
D03*
X557530Y298450D02*
D03*
X613410Y33020D02*
D03*
X143510Y132080D02*
D03*
X775970Y216535D02*
D03*
X143510Y567690D02*
D03*
X165100Y523240D02*
D03*
X172720Y398780D02*
D03*
X191347D02*
D03*
X209973D02*
D03*
X228600D02*
D03*
X308610Y276860D02*
D03*
X74930Y782320D02*
D03*
X545293Y582668D02*
D03*
X346710Y298450D02*
D03*
X372110D02*
D03*
X321310D02*
D03*
X384810Y276860D02*
D03*
X400050Y360680D02*
D03*
X400063Y435597D02*
D03*
X400050Y410633D02*
D03*
X417155Y424802D02*
D03*
X417830Y398780D02*
D03*
Y373380D02*
D03*
X400050Y385657D02*
D03*
X417830Y347980D02*
D03*
X683260Y535940D02*
D03*
X576580Y629920D02*
D03*
X99060Y224790D02*
D03*
X464820Y240030D02*
D03*
X73660Y294640D02*
D03*
X422910Y298450D02*
D03*
X397510D02*
D03*
X359410Y276860D02*
D03*
X334010D02*
D03*
M02*
