M48
;Layer_Color=9474304
;FILE_FORMAT=4:4
METRIC,LZ
;TYPE=PLATED
T01F00S00C0.2000
T02F00S00C0.4000
T04F00S00C0.7112
T05F00S00C0.7620
T06F00S00C0.8128
T07F00S00C1.1938
T08F00S00C1.2700
;TYPE=NON_PLATED
T09F00S00C0.7500
%
T01
X0033119Y0040918
X0032419Y0041618
X0033119Y0042318
X0032419Y0043018
X0033119Y0043718
X0033819Y0043018
X0034519Y0043718
X0035219Y0043018
Y0041618
X0033819
X0034519Y0042318
Y0040918
T02
X0002286Y0032893
Y0034193
X0003286Y0034843
Y0033543
Y0032243
T04
X0014351Y0013208
X0012446Y0017526
X0009906Y0022479
X0007366Y0029464
X0040005Y0036068
Y00385657
X0041783Y0037338
Y0034798
X0046482Y0024003
X0055753Y0029845
X0072136Y0028321
X0077597Y00216535
X0063627Y0019558
X0061341Y0003302
X0041783Y0039878
X00417155Y00424802
X00400063Y00435597
X0040005Y00410633
X00545293Y00582668
X0057658Y0062992
X0068326Y0053594
X001651Y0052324
X0014351Y0056769
X0017272Y0039878
X00191347
X00209973
X002286
X0007493Y0078232
T05
X0049784Y0024003
Y0026543
X0055753Y0024257
Y0021717
X0061722Y0023749
Y0026289
T06
X0029464Y0025273
X0030861Y0027686
X0033401
X0035941
X0038481
X0037211Y0029845
X0034671
X0032131
X0028194Y0028956
X0039751Y0029845
X0042291
X0041021Y0027686
T07
X000635Y0004445
X000889
X001143
X001397
Y0006985
X001143
X000889
X000635
X007366Y0007493
Y0004953
X00762
X007874
Y0007493
X00762
X008128
Y0004953
T08
X0002286Y0067691
X0004826
X0007366
X0009906
X0012446
X0014986
X0017526
X0020066
X0022606
X0025146
X0027686
X0030226
X0032766
X0035306
X0037846
Y0070231
X0035306
X0032766
X0030226
X0027686
X0025146
X0022606
X0020066
X0017526
X0014986
X0012446
X0009906
X0007366
X0004826
X0002286
T09
X0080264Y0046101
Y0048851
M30
