G04*
G04 #@! TF.GenerationSoftware,Altium Limited,Altium Designer,25.3.3 (18)*
G04*
G04 Layer_Color=255*
%FSLAX44Y44*%
%MOMM*%
G71*
G04*
G04 #@! TF.SameCoordinates,28098AB9-3807-4A49-8781-5BF9FE85299D*
G04*
G04*
G04 #@! TF.FilePolarity,Positive*
G04*
G01*
G75*
%ADD61C,1.7018*%
%ADD70C,1.5240*%
%ADD71C,2.0320*%
%ADD72C,0.4000*%
%ADD73C,0.9000*%
%ADD74O,1.8500X0.9000*%
%ADD75C,0.7500*%
D61*
X63500Y44450D02*
D03*
X88900D02*
D03*
X114300D02*
D03*
X139700D02*
D03*
X63500Y69850D02*
D03*
X88900D02*
D03*
X114300D02*
D03*
X139700D02*
D03*
X736600Y49530D02*
D03*
X762000D02*
D03*
X787400D02*
D03*
X812800D02*
D03*
X736600Y74930D02*
D03*
X762000D02*
D03*
X787400D02*
D03*
X812800D02*
D03*
D70*
X497840Y240030D02*
D03*
Y265430D02*
D03*
X617220Y237490D02*
D03*
Y262890D02*
D03*
X557530Y217170D02*
D03*
Y242570D02*
D03*
D71*
X378460Y676910D02*
D03*
Y702310D02*
D03*
X353060Y676910D02*
D03*
Y702310D02*
D03*
X327660Y676910D02*
D03*
Y702310D02*
D03*
X302260Y676910D02*
D03*
Y702310D02*
D03*
X276860Y676910D02*
D03*
Y702310D02*
D03*
X251460Y676910D02*
D03*
Y702310D02*
D03*
X226060Y676910D02*
D03*
Y702310D02*
D03*
X200660Y676910D02*
D03*
Y702310D02*
D03*
X175260Y676910D02*
D03*
Y702310D02*
D03*
X149860Y676910D02*
D03*
Y702310D02*
D03*
X124460Y676910D02*
D03*
Y702310D02*
D03*
X99060Y676910D02*
D03*
Y702310D02*
D03*
X73660Y676910D02*
D03*
Y702310D02*
D03*
X48260Y676910D02*
D03*
Y702310D02*
D03*
X22860Y676910D02*
D03*
Y702310D02*
D03*
D72*
X338190Y430180D02*
D03*
X324190D02*
D03*
X352190D02*
D03*
X324190Y416180D02*
D03*
X338190D02*
D03*
X352190D02*
D03*
X331190Y437180D02*
D03*
X345190D02*
D03*
X331190Y423180D02*
D03*
X345190D02*
D03*
X331190Y409180D02*
D03*
X345190D02*
D03*
D73*
X22860Y328930D02*
D03*
Y341930D02*
D03*
X32860Y322430D02*
D03*
Y335430D02*
D03*
Y348430D02*
D03*
D74*
X30660Y371180D02*
D03*
Y299680D02*
D03*
D75*
X802640Y488510D02*
D03*
Y461010D02*
D03*
M02*
