G04*
G04 #@! TF.GenerationSoftware,Altium Limited,Altium Designer,25.3.3 (18)*
G04*
G04 Layer_Color=16711935*
%FSLAX44Y44*%
%MOMM*%
G71*
G04*
G04 #@! TF.SameCoordinates,28098AB9-3807-4A49-8781-5BF9FE85299D*
G04*
G04*
G04 #@! TF.FilePolarity,Negative*
G04*
G01*
G75*
%ADD60C,1.7272*%
%ADD61C,1.7018*%
%ADD62C,2.2352*%
%ADD63C,1.1032*%
%ADD64O,2.0532X1.1032*%
%ADD65C,0.9532*%
%ADD66C,1.4732*%
D60*
X497840Y240030D02*
D03*
Y265430D02*
D03*
X617220Y237490D02*
D03*
Y262890D02*
D03*
X557530Y217170D02*
D03*
Y242570D02*
D03*
D61*
X63500Y44450D02*
D03*
X88900D02*
D03*
X114300D02*
D03*
X139700D02*
D03*
X63500Y69850D02*
D03*
X88900D02*
D03*
X114300D02*
D03*
X139700D02*
D03*
X736600Y49530D02*
D03*
X762000D02*
D03*
X787400D02*
D03*
X812800D02*
D03*
X736600Y74930D02*
D03*
X762000D02*
D03*
X787400D02*
D03*
X812800D02*
D03*
D62*
X378460Y676910D02*
D03*
Y702310D02*
D03*
X353060Y676910D02*
D03*
Y702310D02*
D03*
X327660Y676910D02*
D03*
Y702310D02*
D03*
X302260Y676910D02*
D03*
Y702310D02*
D03*
X276860Y676910D02*
D03*
Y702310D02*
D03*
X251460Y676910D02*
D03*
Y702310D02*
D03*
X226060Y676910D02*
D03*
Y702310D02*
D03*
X200660Y676910D02*
D03*
Y702310D02*
D03*
X175260Y676910D02*
D03*
Y702310D02*
D03*
X149860Y676910D02*
D03*
Y702310D02*
D03*
X124460Y676910D02*
D03*
Y702310D02*
D03*
X99060Y676910D02*
D03*
Y702310D02*
D03*
X73660Y676910D02*
D03*
Y702310D02*
D03*
X48260Y676910D02*
D03*
Y702310D02*
D03*
X22860Y676910D02*
D03*
Y702310D02*
D03*
D63*
Y328930D02*
D03*
Y341930D02*
D03*
X32860Y322430D02*
D03*
Y335430D02*
D03*
Y348430D02*
D03*
D64*
X30660Y371180D02*
D03*
Y299680D02*
D03*
D65*
X802640Y488510D02*
D03*
Y461010D02*
D03*
D66*
X124460Y175260D02*
D03*
X721360Y283210D02*
D03*
X410210Y276860D02*
D03*
X294640Y252730D02*
D03*
X281940Y289560D02*
D03*
X636270Y195580D02*
D03*
X557530Y298450D02*
D03*
X613410Y33020D02*
D03*
X143510Y132080D02*
D03*
X775970Y216535D02*
D03*
X143510Y567690D02*
D03*
X165100Y523240D02*
D03*
X172720Y398780D02*
D03*
X191347D02*
D03*
X209973D02*
D03*
X228600D02*
D03*
X308610Y276860D02*
D03*
X74930Y782320D02*
D03*
X545293Y582668D02*
D03*
X346710Y298450D02*
D03*
X372110D02*
D03*
X321310D02*
D03*
X384810Y276860D02*
D03*
X400050Y360680D02*
D03*
X400063Y435597D02*
D03*
X400050Y410633D02*
D03*
X417155Y424802D02*
D03*
X417830Y398780D02*
D03*
Y373380D02*
D03*
X400050Y385657D02*
D03*
X417830Y347980D02*
D03*
X683260Y535940D02*
D03*
X576580Y629920D02*
D03*
X99060Y224790D02*
D03*
X464820Y240030D02*
D03*
X73660Y294640D02*
D03*
X422910Y298450D02*
D03*
X397510D02*
D03*
X359410Y276860D02*
D03*
X334010D02*
D03*
M02*
