G04*
G04 #@! TF.GenerationSoftware,Altium Limited,Altium Designer,25.3.3 (18)*
G04*
G04 Layer_Color=65535*
%FSLAX44Y44*%
%MOMM*%
G71*
G04*
G04 #@! TF.SameCoordinates,28098AB9-3807-4A49-8781-5BF9FE85299D*
G04*
G04*
G04 #@! TF.FilePolarity,Positive*
G04*
G01*
G75*
%ADD10C,0.5080*%
%ADD11C,0.2000*%
%ADD12C,0.2500*%
%ADD13C,0.1000*%
%ADD14C,0.1524*%
%ADD15C,0.2540*%
%ADD16C,0.1270*%
D10*
X213360Y69850D02*
G03*
X213360Y69850I-3810J0D01*
G01*
X886460Y74930D02*
G03*
X886460Y74930I-3810J0D01*
G01*
D11*
X397850Y69850D02*
G03*
X397850Y69850I-1000J0D01*
G01*
X252190Y500380D02*
G03*
X252190Y500380I-1000J0D01*
G01*
X125310Y452120D02*
X136310D01*
X788100Y738440D02*
Y765440D01*
X685100Y738440D02*
Y765440D01*
X788100Y814440D02*
Y841440D01*
X685100Y814440D02*
Y841440D01*
Y738440D02*
X788100D01*
X685100Y841440D02*
X788100D01*
X423500Y742840D02*
Y754840D01*
Y742840D02*
X530500D01*
Y754840D01*
X815640Y447260D02*
Y457260D01*
X789640Y447260D02*
X815640D01*
X789640D02*
Y457260D01*
X779140Y492260D02*
X797140D01*
X808140D02*
X826140D01*
X808140Y457260D02*
X826140D01*
X779140D02*
X797140D01*
D12*
X431150Y688340D02*
G03*
X431150Y688340I-1250J0D01*
G01*
D13*
X680900Y588800D02*
G03*
X680900Y588800I-500J0D01*
G01*
X564060Y323530D02*
G03*
X564060Y323530I-500J0D01*
G01*
X567870Y475930D02*
G03*
X567870Y475930I-500J0D01*
G01*
D14*
X251079Y44704D02*
Y48743D01*
X378587Y71120D02*
X386207D01*
X382397Y67310D02*
Y74930D01*
X251079Y97536D02*
X350901D01*
X251079Y93497D02*
Y97536D01*
Y44704D02*
X350901D01*
Y48743D01*
Y93497D02*
Y97536D01*
X666750Y168148D02*
Y180848D01*
X660400Y178308D02*
X673100D01*
X666750D02*
X673100Y170688D01*
X666750Y178308D02*
X671830Y170688D01*
X666750Y178308D02*
X670560Y170688D01*
X666750Y178308D02*
X669290Y170688D01*
X666750Y178308D02*
X668020Y170688D01*
X660400D02*
X666750Y178308D01*
X661670Y170688D02*
X666750Y178308D01*
X662940Y170688D02*
X666750Y178308D01*
X664210Y170688D02*
X666750Y178308D01*
X665480Y170688D02*
X666750Y178308D01*
X660400Y170688D02*
X673100D01*
X658495Y131699D02*
Y155321D01*
X675005Y131699D02*
Y155321D01*
X781050Y678243D02*
Y690944D01*
X774700Y688403D02*
X787400D01*
X781050D02*
X787400Y680783D01*
X781050Y688403D02*
X786130Y680783D01*
X781050Y688403D02*
X784860Y680783D01*
X781050Y688403D02*
X783590Y680783D01*
X781050Y688403D02*
X782320Y680783D01*
X774700D02*
X781050Y688403D01*
X775970Y680783D02*
X781050Y688403D01*
X777240Y680783D02*
X781050Y688403D01*
X778510Y680783D02*
X781050Y688403D01*
X779780Y680783D02*
X781050Y688403D01*
X774700Y680783D02*
X787400D01*
X772795Y641795D02*
Y665416D01*
X789305Y641795D02*
Y665416D01*
X99060Y247142D02*
Y259842D01*
X92710Y249682D02*
X105410D01*
X92710Y257302D02*
X99060Y249682D01*
X93980Y257302D02*
X99060Y249682D01*
X95250Y257302D02*
X99060Y249682D01*
X96520Y257302D02*
X99060Y249682D01*
X97790Y257302D02*
X99060Y249682D01*
X105410Y257302D01*
X99060Y249682D02*
X104140Y257302D01*
X99060Y249682D02*
X102870Y257302D01*
X99060Y249682D02*
X101600Y257302D01*
X99060Y249682D02*
X100330Y257302D01*
X92710D02*
X105410D01*
X107315Y272669D02*
Y296291D01*
X90805Y272669D02*
Y296291D01*
X811530Y143002D02*
Y155702D01*
X805180Y145542D02*
X817880D01*
X805180Y153162D02*
X811530Y145542D01*
X806450Y153162D02*
X811530Y145542D01*
X807720Y153162D02*
X811530Y145542D01*
X808990Y153162D02*
X811530Y145542D01*
X810260Y153162D02*
X811530Y145542D01*
X817880Y153162D01*
X811530Y145542D02*
X816610Y153162D01*
X811530Y145542D02*
X815340Y153162D01*
X811530Y145542D02*
X814070Y153162D01*
X811530Y145542D02*
X812800Y153162D01*
X805180D02*
X817880D01*
X819785Y168529D02*
Y192151D01*
X803275Y168529D02*
Y192151D01*
X367030Y179578D02*
Y192278D01*
X360680Y189738D02*
X373380D01*
X367030D02*
X373380Y182118D01*
X367030Y189738D02*
X372110Y182118D01*
X367030Y189738D02*
X370840Y182118D01*
X367030Y189738D02*
X369570Y182118D01*
X367030Y189738D02*
X368300Y182118D01*
X360680D02*
X367030Y189738D01*
X361950Y182118D02*
X367030Y189738D01*
X363220Y182118D02*
X367030Y189738D01*
X364490Y182118D02*
X367030Y189738D01*
X365760Y182118D02*
X367030Y189738D01*
X360680Y182118D02*
X373380D01*
X358775Y143129D02*
Y166751D01*
X375285Y143129D02*
Y166751D01*
X576580Y642112D02*
Y654812D01*
X570230Y644652D02*
X582930D01*
X570230Y652272D02*
X576580Y644652D01*
X571500Y652272D02*
X576580Y644652D01*
X572770Y652272D02*
X576580Y644652D01*
X574040Y652272D02*
X576580Y644652D01*
X575310Y652272D02*
X576580Y644652D01*
X582930Y652272D01*
X576580Y644652D02*
X581660Y652272D01*
X576580Y644652D02*
X580390Y652272D01*
X576580Y644652D02*
X579120Y652272D01*
X576580Y644652D02*
X577850Y652272D01*
X570230D02*
X582930D01*
X584835Y667639D02*
Y691261D01*
X568325Y667639D02*
Y691261D01*
X191770Y11430D02*
Y102870D01*
X11430Y11430D02*
X191770D01*
X11430D02*
Y102870D01*
X191770D01*
X864870Y16510D02*
Y107950D01*
X684530Y16510D02*
X864870D01*
X684530D02*
Y107950D01*
X864870D01*
D15*
X485140Y227330D02*
X510540D01*
X485140Y278130D02*
X510540D01*
X485140Y227330D02*
Y278130D01*
X510540Y227330D02*
Y278130D01*
X391160Y664210D02*
Y715010D01*
X10160Y664210D02*
Y715010D01*
X391160D01*
X10160Y664210D02*
X391160D01*
X7860Y380430D02*
X57860D01*
X7860Y290430D02*
X57860D01*
Y380430D01*
X7860Y290430D02*
Y380430D01*
X604520Y224790D02*
X629920D01*
X604520Y275590D02*
X629920D01*
X604520Y224790D02*
Y275590D01*
X629920Y224790D02*
Y275590D01*
X544830Y204470D02*
X570230D01*
X544830Y255270D02*
X570230D01*
X544830Y204470D02*
Y255270D01*
X570230Y204470D02*
Y255270D01*
X551181Y447038D02*
X548642Y449577D01*
X543563D01*
X541024Y447038D01*
Y436882D01*
X543563Y434342D01*
X548642D01*
X551181Y436882D01*
X556259Y447038D02*
X558798Y449577D01*
X563877D01*
X566416Y447038D01*
Y444499D01*
X563877Y441960D01*
X566416Y439421D01*
Y436882D01*
X563877Y434342D01*
X558798D01*
X556259Y436882D01*
Y439421D01*
X558798Y441960D01*
X556259Y444499D01*
Y447038D01*
X558798Y441960D02*
X563877D01*
X69854Y722630D02*
Y726862D01*
Y724746D01*
X82550D01*
Y722630D01*
Y726862D01*
X69854Y739558D02*
Y735326D01*
X71970Y733210D01*
X80434D01*
X82550Y735326D01*
Y739558D01*
X80434Y741674D01*
X71970D01*
X69854Y739558D01*
X82550Y752254D02*
X69854D01*
X76202Y745906D01*
Y754370D01*
X69854Y758602D02*
Y767066D01*
X71970D01*
X80434Y758602D01*
X82550D01*
X93984Y723900D02*
Y728132D01*
Y726016D01*
X106680D01*
Y723900D01*
Y728132D01*
X93984Y740828D02*
Y736596D01*
X96100Y734480D01*
X104564D01*
X106680Y736596D01*
Y740828D01*
X104564Y742944D01*
X96100D01*
X93984Y740828D01*
X106680Y753524D02*
X93984D01*
X100332Y747176D01*
Y755640D01*
X93984Y768336D02*
X96100Y764104D01*
X100332Y759872D01*
X104564D01*
X106680Y761988D01*
Y766220D01*
X104564Y768336D01*
X102448D01*
X100332Y766220D01*
Y759872D01*
X119384Y722630D02*
Y726862D01*
Y724746D01*
X132080D01*
Y722630D01*
Y726862D01*
X119384Y739558D02*
Y735326D01*
X121500Y733210D01*
X129964D01*
X132080Y735326D01*
Y739558D01*
X129964Y741674D01*
X121500D01*
X119384Y739558D01*
X132080Y752254D02*
X119384D01*
X125732Y745906D01*
Y754370D01*
X119384Y767066D02*
Y758602D01*
X125732D01*
X123616Y762834D01*
Y764950D01*
X125732Y767066D01*
X129964D01*
X132080Y764950D01*
Y760718D01*
X129964Y758602D01*
X143514Y723900D02*
Y728132D01*
Y726016D01*
X156210D01*
Y723900D01*
Y728132D01*
X143514Y740828D02*
Y736596D01*
X145630Y734480D01*
X154094D01*
X156210Y736596D01*
Y740828D01*
X154094Y742944D01*
X145630D01*
X143514Y740828D01*
X156210Y753524D02*
X143514D01*
X149862Y747176D01*
Y755640D01*
X156210Y768336D02*
Y759872D01*
X147746Y768336D01*
X145630D01*
X143514Y766220D01*
Y761988D01*
X145630Y759872D01*
X168914Y723900D02*
Y728132D01*
Y726016D01*
X181610D01*
Y723900D01*
Y728132D01*
X168914Y740828D02*
Y736596D01*
X171030Y734480D01*
X179494D01*
X181610Y736596D01*
Y740828D01*
X179494Y742944D01*
X171030D01*
X168914Y740828D01*
X181610Y753524D02*
X168914D01*
X175262Y747176D01*
Y755640D01*
X181610Y759872D02*
Y764104D01*
Y761988D01*
X168914D01*
X171030Y759872D01*
X196854Y723900D02*
Y728132D01*
Y726016D01*
X209550D01*
Y723900D01*
Y728132D01*
X196854Y740828D02*
Y736596D01*
X198970Y734480D01*
X207434D01*
X209550Y736596D01*
Y740828D01*
X207434Y742944D01*
X198970D01*
X196854Y740828D01*
X209550Y753524D02*
X196854D01*
X203202Y747176D01*
Y755640D01*
X198970Y759872D02*
X196854Y761988D01*
Y766220D01*
X198970Y768336D01*
X207434D01*
X209550Y766220D01*
Y761988D01*
X207434Y759872D01*
X198970D01*
X226064Y723900D02*
Y728132D01*
Y726016D01*
X238760D01*
Y723900D01*
Y728132D01*
X226064Y740828D02*
Y736596D01*
X228180Y734480D01*
X236644D01*
X238760Y736596D01*
Y740828D01*
X236644Y742944D01*
X228180D01*
X226064Y740828D01*
X228180Y747176D02*
X226064Y749292D01*
Y753524D01*
X228180Y755640D01*
X230296D01*
X232412Y753524D01*
Y751408D01*
Y753524D01*
X234528Y755640D01*
X236644D01*
X238760Y753524D01*
Y749292D01*
X236644Y747176D01*
Y759872D02*
X238760Y761988D01*
Y766220D01*
X236644Y768336D01*
X228180D01*
X226064Y766220D01*
Y761988D01*
X228180Y759872D01*
X230296D01*
X232412Y761988D01*
Y768336D01*
X251464Y722630D02*
Y726862D01*
Y724746D01*
X264160D01*
Y722630D01*
Y726862D01*
X251464Y739558D02*
Y735326D01*
X253580Y733210D01*
X262044D01*
X264160Y735326D01*
Y739558D01*
X262044Y741674D01*
X253580D01*
X251464Y739558D01*
X253580Y745906D02*
X251464Y748022D01*
Y752254D01*
X253580Y754370D01*
X255696D01*
X257812Y752254D01*
Y750138D01*
Y752254D01*
X259928Y754370D01*
X262044D01*
X264160Y752254D01*
Y748022D01*
X262044Y745906D01*
X253580Y758602D02*
X251464Y760718D01*
Y764950D01*
X253580Y767066D01*
X255696D01*
X257812Y764950D01*
X259928Y767066D01*
X262044D01*
X264160Y764950D01*
Y760718D01*
X262044Y758602D01*
X259928D01*
X257812Y760718D01*
X255696Y758602D01*
X253580D01*
X257812Y760718D02*
Y764950D01*
X271784Y721360D02*
Y725592D01*
Y723476D01*
X284480D01*
Y721360D01*
Y725592D01*
X271784Y738288D02*
Y734056D01*
X273900Y731940D01*
X282364D01*
X284480Y734056D01*
Y738288D01*
X282364Y740404D01*
X273900D01*
X271784Y738288D01*
X273900Y744636D02*
X271784Y746752D01*
Y750984D01*
X273900Y753100D01*
X276016D01*
X278132Y750984D01*
Y748868D01*
Y750984D01*
X280248Y753100D01*
X282364D01*
X284480Y750984D01*
Y746752D01*
X282364Y744636D01*
X271784Y757332D02*
Y765796D01*
X273900D01*
X282364Y757332D01*
X284480D01*
X300994Y721360D02*
Y725592D01*
Y723476D01*
X313690D01*
Y721360D01*
Y725592D01*
X300994Y738288D02*
Y734056D01*
X303110Y731940D01*
X311574D01*
X313690Y734056D01*
Y738288D01*
X311574Y740404D01*
X303110D01*
X300994Y738288D01*
X303110Y744636D02*
X300994Y746752D01*
Y750984D01*
X303110Y753100D01*
X305226D01*
X307342Y750984D01*
Y748868D01*
Y750984D01*
X309458Y753100D01*
X311574D01*
X313690Y750984D01*
Y746752D01*
X311574Y744636D01*
X300994Y765796D02*
X303110Y761564D01*
X307342Y757332D01*
X311574D01*
X313690Y759448D01*
Y763680D01*
X311574Y765796D01*
X309458D01*
X307342Y763680D01*
Y757332D01*
X322584Y722630D02*
Y726862D01*
Y724746D01*
X335280D01*
Y722630D01*
Y726862D01*
X322584Y739558D02*
Y735326D01*
X324700Y733210D01*
X333164D01*
X335280Y735326D01*
Y739558D01*
X333164Y741674D01*
X324700D01*
X322584Y739558D01*
X324700Y745906D02*
X322584Y748022D01*
Y752254D01*
X324700Y754370D01*
X326816D01*
X328932Y752254D01*
Y750138D01*
Y752254D01*
X331048Y754370D01*
X333164D01*
X335280Y752254D01*
Y748022D01*
X333164Y745906D01*
X322584Y767066D02*
Y758602D01*
X328932D01*
X326816Y762834D01*
Y764950D01*
X328932Y767066D01*
X333164D01*
X335280Y764950D01*
Y760718D01*
X333164Y758602D01*
X347984Y723900D02*
Y728132D01*
Y726016D01*
X360680D01*
Y723900D01*
Y728132D01*
X347984Y740828D02*
Y736596D01*
X350100Y734480D01*
X358564D01*
X360680Y736596D01*
Y740828D01*
X358564Y742944D01*
X350100D01*
X347984Y740828D01*
X360680Y755640D02*
Y747176D01*
X352216Y755640D01*
X350100D01*
X347984Y753524D01*
Y749292D01*
X350100Y747176D01*
X360680Y759872D02*
Y764104D01*
Y761988D01*
X347984D01*
X350100Y759872D01*
X373384Y721360D02*
Y725592D01*
Y723476D01*
X386080D01*
Y721360D01*
Y725592D01*
X373384Y738288D02*
Y734056D01*
X375500Y731940D01*
X383964D01*
X386080Y734056D01*
Y738288D01*
X383964Y740404D01*
X375500D01*
X373384Y738288D01*
X386080Y744636D02*
Y748868D01*
Y746752D01*
X373384D01*
X375500Y744636D01*
Y755216D02*
X373384Y757332D01*
Y761564D01*
X375500Y763680D01*
X377616D01*
X379732Y761564D01*
X381848Y763680D01*
X383964D01*
X386080Y761564D01*
Y757332D01*
X383964Y755216D01*
X381848D01*
X379732Y757332D01*
X377616Y755216D01*
X375500D01*
X379732Y757332D02*
Y761564D01*
X372114Y617220D02*
Y621452D01*
Y619336D01*
X384810D01*
Y617220D01*
Y621452D01*
X372114Y634148D02*
Y629916D01*
X374230Y627800D01*
X382694D01*
X384810Y629916D01*
Y634148D01*
X382694Y636264D01*
X374230D01*
X372114Y634148D01*
X384810Y640496D02*
Y644728D01*
Y642612D01*
X372114D01*
X374230Y640496D01*
X372114Y651076D02*
Y659540D01*
X374230D01*
X382694Y651076D01*
X384810D01*
X346714Y617220D02*
Y621452D01*
Y619336D01*
X359410D01*
Y617220D01*
Y621452D01*
X346714Y634148D02*
Y629916D01*
X348830Y627800D01*
X357294D01*
X359410Y629916D01*
Y634148D01*
X357294Y636264D01*
X348830D01*
X346714Y634148D01*
X359410Y640496D02*
Y644728D01*
Y642612D01*
X346714D01*
X348830Y640496D01*
X346714Y659540D02*
X348830Y655308D01*
X353062Y651076D01*
X357294D01*
X359410Y653192D01*
Y657424D01*
X357294Y659540D01*
X355178D01*
X353062Y657424D01*
Y651076D01*
X322584Y615950D02*
Y620182D01*
Y618066D01*
X335280D01*
Y615950D01*
Y620182D01*
X322584Y632878D02*
Y628646D01*
X324700Y626530D01*
X333164D01*
X335280Y628646D01*
Y632878D01*
X333164Y634994D01*
X324700D01*
X322584Y632878D01*
X335280Y639226D02*
Y643458D01*
Y641342D01*
X322584D01*
X324700Y639226D01*
X322584Y658270D02*
Y649806D01*
X328932D01*
X326816Y654038D01*
Y656154D01*
X328932Y658270D01*
X333164D01*
X335280Y656154D01*
Y651922D01*
X333164Y649806D01*
X295914Y615950D02*
Y620182D01*
Y618066D01*
X308610D01*
Y615950D01*
Y620182D01*
X295914Y632878D02*
Y628646D01*
X298030Y626530D01*
X306494D01*
X308610Y628646D01*
Y632878D01*
X306494Y634994D01*
X298030D01*
X295914Y632878D01*
X308610Y639226D02*
Y643458D01*
Y641342D01*
X295914D01*
X298030Y639226D01*
X308610Y656154D02*
X295914D01*
X302262Y649806D01*
Y658270D01*
X267974Y615950D02*
Y620182D01*
Y618066D01*
X280670D01*
Y615950D01*
Y620182D01*
X267974Y632878D02*
Y628646D01*
X270090Y626530D01*
X278554D01*
X280670Y628646D01*
Y632878D01*
X278554Y634994D01*
X270090D01*
X267974Y632878D01*
X280670Y639226D02*
Y643458D01*
Y641342D01*
X267974D01*
X270090Y639226D01*
Y649806D02*
X267974Y651922D01*
Y656154D01*
X270090Y658270D01*
X272206D01*
X274322Y656154D01*
Y654038D01*
Y656154D01*
X276438Y658270D01*
X278554D01*
X280670Y656154D01*
Y651922D01*
X278554Y649806D01*
X243844Y617220D02*
Y621452D01*
Y619336D01*
X256540D01*
Y617220D01*
Y621452D01*
X243844Y634148D02*
Y629916D01*
X245960Y627800D01*
X254424D01*
X256540Y629916D01*
Y634148D01*
X254424Y636264D01*
X245960D01*
X243844Y634148D01*
X256540Y640496D02*
Y644728D01*
Y642612D01*
X243844D01*
X245960Y640496D01*
X256540Y659540D02*
Y651076D01*
X248076Y659540D01*
X245960D01*
X243844Y657424D01*
Y653192D01*
X245960Y651076D01*
X217174Y617220D02*
Y621452D01*
Y619336D01*
X229870D01*
Y617220D01*
Y621452D01*
X217174Y634148D02*
Y629916D01*
X219290Y627800D01*
X227754D01*
X229870Y629916D01*
Y634148D01*
X227754Y636264D01*
X219290D01*
X217174Y634148D01*
X229870Y640496D02*
Y644728D01*
Y642612D01*
X217174D01*
X219290Y640496D01*
X229870Y651076D02*
Y655308D01*
Y653192D01*
X217174D01*
X219290Y651076D01*
X193044Y617220D02*
Y621452D01*
Y619336D01*
X205740D01*
Y617220D01*
Y621452D01*
X193044Y634148D02*
Y629916D01*
X195160Y627800D01*
X203624D01*
X205740Y629916D01*
Y634148D01*
X203624Y636264D01*
X195160D01*
X193044Y634148D01*
X205740Y640496D02*
Y644728D01*
Y642612D01*
X193044D01*
X195160Y640496D01*
Y651076D02*
X193044Y653192D01*
Y657424D01*
X195160Y659540D01*
X203624D01*
X205740Y657424D01*
Y653192D01*
X203624Y651076D01*
X195160D01*
X167644Y627380D02*
Y631612D01*
Y629496D01*
X180340D01*
Y627380D01*
Y631612D01*
X167644Y644308D02*
Y640076D01*
X169760Y637960D01*
X178224D01*
X180340Y640076D01*
Y644308D01*
X178224Y646424D01*
X169760D01*
X167644Y644308D01*
X178224Y650656D02*
X180340Y652772D01*
Y657004D01*
X178224Y659120D01*
X169760D01*
X167644Y657004D01*
Y652772D01*
X169760Y650656D01*
X171876D01*
X173992Y652772D01*
Y659120D01*
X142244Y626110D02*
Y630342D01*
Y628226D01*
X154940D01*
Y626110D01*
Y630342D01*
X142244Y643038D02*
Y638806D01*
X144360Y636690D01*
X152824D01*
X154940Y638806D01*
Y643038D01*
X152824Y645154D01*
X144360D01*
X142244Y643038D01*
X144360Y649386D02*
X142244Y651502D01*
Y655734D01*
X144360Y657850D01*
X146476D01*
X148592Y655734D01*
X150708Y657850D01*
X152824D01*
X154940Y655734D01*
Y651502D01*
X152824Y649386D01*
X150708D01*
X148592Y651502D01*
X146476Y649386D01*
X144360D01*
X148592Y651502D02*
Y655734D01*
X119384Y627380D02*
Y631612D01*
Y629496D01*
X132080D01*
Y627380D01*
Y631612D01*
X119384Y644308D02*
Y640076D01*
X121500Y637960D01*
X129964D01*
X132080Y640076D01*
Y644308D01*
X129964Y646424D01*
X121500D01*
X119384Y644308D01*
Y650656D02*
Y659120D01*
X121500D01*
X129964Y650656D01*
X132080D01*
X92714Y627380D02*
Y631612D01*
Y629496D01*
X105410D01*
Y627380D01*
Y631612D01*
X92714Y644308D02*
Y640076D01*
X94830Y637960D01*
X103294D01*
X105410Y640076D01*
Y644308D01*
X103294Y646424D01*
X94830D01*
X92714Y644308D01*
Y659120D02*
X94830Y654888D01*
X99062Y650656D01*
X103294D01*
X105410Y652772D01*
Y657004D01*
X103294Y659120D01*
X101178D01*
X99062Y657004D01*
Y650656D01*
X68584Y626110D02*
Y630342D01*
Y628226D01*
X81280D01*
Y626110D01*
Y630342D01*
X68584Y643038D02*
Y638806D01*
X70700Y636690D01*
X79164D01*
X81280Y638806D01*
Y643038D01*
X79164Y645154D01*
X70700D01*
X68584Y643038D01*
Y657850D02*
Y649386D01*
X74932D01*
X72816Y653618D01*
Y655734D01*
X74932Y657850D01*
X79164D01*
X81280Y655734D01*
Y651502D01*
X79164Y649386D01*
X41914Y627380D02*
Y631612D01*
Y629496D01*
X54610D01*
Y627380D01*
Y631612D01*
X41914Y644308D02*
Y640076D01*
X44030Y637960D01*
X52494D01*
X54610Y640076D01*
Y644308D01*
X52494Y646424D01*
X44030D01*
X41914Y644308D01*
X54610Y657004D02*
X41914D01*
X48262Y650656D01*
Y659120D01*
X16514Y627380D02*
Y631612D01*
Y629496D01*
X29210D01*
Y627380D01*
Y631612D01*
X16514Y644308D02*
Y640076D01*
X18630Y637960D01*
X27094D01*
X29210Y640076D01*
Y644308D01*
X27094Y646424D01*
X18630D01*
X16514Y644308D01*
X18630Y650656D02*
X16514Y652772D01*
Y657004D01*
X18630Y659120D01*
X20746D01*
X22862Y657004D01*
Y654888D01*
Y657004D01*
X24978Y659120D01*
X27094D01*
X29210Y657004D01*
Y652772D01*
X27094Y650656D01*
X41914Y722630D02*
Y726862D01*
Y724746D01*
X54610D01*
Y722630D01*
Y726862D01*
X41914Y739558D02*
Y735326D01*
X44030Y733210D01*
X52494D01*
X54610Y735326D01*
Y739558D01*
X52494Y741674D01*
X44030D01*
X41914Y739558D01*
X54610Y752254D02*
X41914D01*
X48262Y745906D01*
Y754370D01*
X44030Y758602D02*
X41914Y760718D01*
Y764950D01*
X44030Y767066D01*
X46146D01*
X48262Y764950D01*
X50378Y767066D01*
X52494D01*
X54610Y764950D01*
Y760718D01*
X52494Y758602D01*
X50378D01*
X48262Y760718D01*
X46146Y758602D01*
X44030D01*
X48262Y760718D02*
Y764950D01*
X19900Y729824D02*
X17784Y727708D01*
Y723476D01*
X19900Y721360D01*
X28364D01*
X30480Y723476D01*
Y727708D01*
X28364Y729824D01*
X24132D01*
Y725592D01*
X30480Y734056D02*
X17784D01*
X30480Y742520D01*
X17784D01*
Y746752D02*
X30480D01*
Y753100D01*
X28364Y755216D01*
X19900D01*
X17784Y753100D01*
Y746752D01*
X592238Y415282D02*
X575310D01*
Y389890D01*
X592238D01*
X575310Y402586D02*
X583774D01*
X600702Y389890D02*
X609166D01*
X604934D01*
Y415282D01*
X600702D01*
X621862Y389890D02*
X630326D01*
X626094D01*
Y415282D01*
X621862D01*
X647253Y406818D02*
X655717D01*
X659949Y402586D01*
Y389890D01*
X647253D01*
X643021Y394122D01*
X647253Y398354D01*
X659949D01*
X710733Y411050D02*
X706501Y415282D01*
X698037D01*
X693805Y411050D01*
Y394122D01*
X698037Y389890D01*
X706501D01*
X710733Y394122D01*
Y402586D01*
X702269D01*
X719197Y406818D02*
Y389890D01*
Y398354D01*
X723429Y402586D01*
X727661Y406818D01*
X731893D01*
X757284Y389890D02*
X748821D01*
X744589Y394122D01*
Y402586D01*
X748821Y406818D01*
X757284D01*
X761516Y402586D01*
Y398354D01*
X744589D01*
X782676Y389890D02*
X774212D01*
X769980Y394122D01*
Y402586D01*
X774212Y406818D01*
X782676D01*
X786908Y402586D01*
Y398354D01*
X769980D01*
X799604Y411050D02*
Y406818D01*
X795372D01*
X803836D01*
X799604D01*
Y394122D01*
X803836Y389890D01*
X816532D02*
X824996D01*
X820764D01*
Y406818D01*
X816532D01*
X837692Y389890D02*
X850388D01*
X854620Y394122D01*
X850388Y398354D01*
X841924D01*
X837692Y402586D01*
X841924Y406818D01*
X854620D01*
X496567Y302255D02*
X491488D01*
X494027D01*
Y289559D01*
X491488Y287020D01*
X488949D01*
X486410Y289559D01*
X511802Y287020D02*
X501645D01*
X511802Y297177D01*
Y299716D01*
X509263Y302255D01*
X504184D01*
X501645Y299716D01*
X620011Y827020D02*
X617472Y829559D01*
X612393D01*
X609854Y827020D01*
Y816863D01*
X612393Y814324D01*
X617472D01*
X620011Y816863D01*
X625089Y829559D02*
X635246D01*
Y827020D01*
X625089Y816863D01*
Y814324D01*
X133347Y490216D02*
X130808Y492755D01*
X125729D01*
X123190Y490216D01*
Y480059D01*
X125729Y477520D01*
X130808D01*
X133347Y480059D01*
X148582Y477520D02*
X138425D01*
X148582Y487677D01*
Y490216D01*
X146043Y492755D01*
X140964D01*
X138425Y490216D01*
X482851Y615438D02*
X480312Y617977D01*
X475233D01*
X472694Y615438D01*
Y605281D01*
X475233Y602742D01*
X480312D01*
X482851Y605281D01*
X498086Y617977D02*
X493007Y615438D01*
X487929Y610359D01*
Y605281D01*
X490468Y602742D01*
X495547D01*
X498086Y605281D01*
Y607820D01*
X495547Y610359D01*
X487929D01*
X199641Y562352D02*
X197101Y564891D01*
X192023D01*
X189484Y562352D01*
Y552195D01*
X192023Y549656D01*
X197101D01*
X199641Y552195D01*
X204719Y549656D02*
X209797D01*
X207258D01*
Y564891D01*
X204719Y562352D01*
X679196Y867151D02*
Y851916D01*
X689353D01*
X694431D02*
X699509D01*
X696970D01*
Y867151D01*
X694431Y864612D01*
X143507Y322576D02*
X140968Y325115D01*
X135889D01*
X133350Y322576D01*
Y312419D01*
X135889Y309880D01*
X140968D01*
X143507Y312419D01*
X158742Y325115D02*
X148585D01*
Y317498D01*
X153663Y320037D01*
X156203D01*
X158742Y317498D01*
Y312419D01*
X156203Y309880D01*
X151124D01*
X148585Y312419D01*
X101597Y408174D02*
X99058Y410713D01*
X93979D01*
X91440Y408174D01*
Y398017D01*
X93979Y395478D01*
X99058D01*
X101597Y398017D01*
X114293Y395478D02*
Y410713D01*
X106675Y403096D01*
X116832D01*
X198879Y516886D02*
X196339Y519425D01*
X191261D01*
X188722Y516886D01*
Y506729D01*
X191261Y504190D01*
X196339D01*
X198879Y506729D01*
X203957Y516886D02*
X206496Y519425D01*
X211575D01*
X214114Y516886D01*
Y514347D01*
X211575Y511808D01*
X209035D01*
X211575D01*
X214114Y509268D01*
Y506729D01*
X211575Y504190D01*
X206496D01*
X203957Y506729D01*
X605282Y475996D02*
Y491231D01*
X612900D01*
X615439Y488692D01*
Y483614D01*
X612900Y481074D01*
X605282D01*
X610360D02*
X615439Y475996D01*
X630674Y491231D02*
X625595Y488692D01*
X620517Y483614D01*
Y478535D01*
X623056Y475996D01*
X628135D01*
X630674Y478535D01*
Y481074D01*
X628135Y483614D01*
X620517D01*
X423418Y880867D02*
Y868171D01*
X425957Y865632D01*
X431035D01*
X433575Y868171D01*
Y880867D01*
X448810Y865632D02*
X438653D01*
X448810Y875789D01*
Y878328D01*
X446271Y880867D01*
X441192D01*
X438653Y878328D01*
X9144Y404617D02*
Y391921D01*
X11683Y389382D01*
X16761D01*
X19301Y391921D01*
Y404617D01*
X34536Y402078D02*
X31997Y404617D01*
X26918D01*
X24379Y402078D01*
Y399539D01*
X26918Y397000D01*
X31997D01*
X34536Y394460D01*
Y391921D01*
X31997Y389382D01*
X26918D01*
X24379Y391921D01*
X39614Y404617D02*
Y389382D01*
X47232D01*
X49771Y391921D01*
Y394460D01*
X47232Y397000D01*
X39614D01*
X47232D01*
X49771Y399539D01*
Y402078D01*
X47232Y404617D01*
X39614D01*
X54849Y397000D02*
X65006D01*
X70084Y404617D02*
Y389382D01*
X77702D01*
X80241Y391921D01*
Y394460D01*
X77702Y397000D01*
X70084D01*
X77702D01*
X80241Y399539D01*
Y402078D01*
X77702Y404617D01*
X70084D01*
X803656Y220975D02*
Y205740D01*
X811273D01*
X813813Y208279D01*
Y218436D01*
X811273Y220975D01*
X803656D01*
X818891Y218436D02*
X821430Y220975D01*
X826509D01*
X829048Y218436D01*
Y215897D01*
X826509Y213358D01*
X823969D01*
X826509D01*
X829048Y210818D01*
Y208279D01*
X826509Y205740D01*
X821430D01*
X818891Y208279D01*
X466852Y505206D02*
Y520441D01*
X474469D01*
X477009Y517902D01*
Y512823D01*
X474469Y510284D01*
X466852D01*
X471930D02*
X477009Y505206D01*
X482087Y517902D02*
X484626Y520441D01*
X489705D01*
X492244Y517902D01*
Y515363D01*
X489705Y512823D01*
X487165D01*
X489705D01*
X492244Y510284D01*
Y507745D01*
X489705Y505206D01*
X484626D01*
X482087Y507745D01*
X468122Y352806D02*
Y368041D01*
X475740D01*
X478279Y365502D01*
Y360424D01*
X475740Y357884D01*
X468122D01*
X473200D02*
X478279Y352806D01*
X493514D02*
X483357D01*
X493514Y362963D01*
Y365502D01*
X490975Y368041D01*
X485896D01*
X483357Y365502D01*
X684784Y705866D02*
Y721101D01*
X692402D01*
X694941Y718562D01*
Y713484D01*
X692402Y710944D01*
X684784D01*
X689862D02*
X694941Y705866D01*
X707637D02*
Y721101D01*
X700019Y713484D01*
X710176D01*
X681990Y654299D02*
Y639064D01*
X692147D01*
X707382Y654299D02*
X697225D01*
Y639064D01*
X707382D01*
X697225Y646682D02*
X702303D01*
X712460Y654299D02*
Y639064D01*
X720078D01*
X722617Y641603D01*
Y651760D01*
X720078Y654299D01*
X712460D01*
X727695Y651760D02*
X730234Y654299D01*
X735313D01*
X737852Y651760D01*
Y649221D01*
X735313Y646682D01*
X732774D01*
X735313D01*
X737852Y644142D01*
Y641603D01*
X735313Y639064D01*
X730234D01*
X727695Y641603D01*
X527050Y520187D02*
Y504952D01*
X537207D01*
X552442Y520187D02*
X542285D01*
Y504952D01*
X552442D01*
X542285Y512570D02*
X547363D01*
X557520Y520187D02*
Y504952D01*
X565138D01*
X567677Y507491D01*
Y517648D01*
X565138Y520187D01*
X557520D01*
X582912Y504952D02*
X572755D01*
X582912Y515109D01*
Y517648D01*
X580373Y520187D01*
X575294D01*
X572755Y517648D01*
X523240Y367787D02*
Y352552D01*
X533397D01*
X548632Y367787D02*
X538475D01*
Y352552D01*
X548632D01*
X538475Y360169D02*
X543553D01*
X553710Y367787D02*
Y352552D01*
X561328D01*
X563867Y355091D01*
Y365248D01*
X561328Y367787D01*
X553710D01*
X568945Y352552D02*
X574024D01*
X571484D01*
Y367787D01*
X568945Y365248D01*
X615947Y299715D02*
X610868D01*
X613408D01*
Y287019D01*
X610868Y284480D01*
X608329D01*
X605790Y287019D01*
X621025Y284480D02*
X626103D01*
X623564D01*
Y299715D01*
X621025Y297176D01*
X556257Y279395D02*
X551178D01*
X553717D01*
Y266699D01*
X551178Y264160D01*
X548639D01*
X546100Y266699D01*
X561335Y276856D02*
X563874Y279395D01*
X568953D01*
X571492Y276856D01*
Y274317D01*
X568953Y271777D01*
X566413D01*
X568953D01*
X571492Y269238D01*
Y266699D01*
X568953Y264160D01*
X563874D01*
X561335Y266699D01*
X11430Y793745D02*
Y778510D01*
X19047D01*
X21587Y781049D01*
Y791206D01*
X19047Y793745D01*
X11430D01*
X26665D02*
Y778510D01*
X34283D01*
X36822Y781049D01*
Y783588D01*
X34283Y786127D01*
X26665D01*
X34283D01*
X36822Y788667D01*
Y791206D01*
X34283Y793745D01*
X26665D01*
X41900D02*
Y778510D01*
Y786127D01*
X52057D01*
Y793745D01*
Y778510D01*
X773176Y714497D02*
Y699262D01*
X780794D01*
X783333Y701801D01*
Y711958D01*
X780794Y714497D01*
X773176D01*
X798568D02*
X788411D01*
Y706880D01*
X793489Y709419D01*
X796029D01*
X798568Y706880D01*
Y701801D01*
X796029Y699262D01*
X790950D01*
X788411Y701801D01*
X359156Y215895D02*
Y200660D01*
X366773D01*
X369313Y203199D01*
Y213356D01*
X366773Y215895D01*
X359156D01*
X384548Y200660D02*
X374391D01*
X384548Y210817D01*
Y213356D01*
X382009Y215895D01*
X376930D01*
X374391Y213356D01*
X568960Y720085D02*
Y704850D01*
X576577D01*
X579117Y707389D01*
Y717546D01*
X576577Y720085D01*
X568960D01*
X584195Y704850D02*
X589273D01*
X586734D01*
Y720085D01*
X584195Y717546D01*
X91440Y325115D02*
Y309880D01*
X99058D01*
X101597Y312419D01*
Y322576D01*
X99058Y325115D01*
X91440D01*
X114293Y309880D02*
Y325115D01*
X106675Y317498D01*
X116832D01*
X658876Y204465D02*
Y189230D01*
X666494D01*
X669033Y191769D01*
Y201926D01*
X666494Y204465D01*
X658876D01*
X684268D02*
X679189Y201926D01*
X674111Y196847D01*
Y191769D01*
X676650Y189230D01*
X681729D01*
X684268Y191769D01*
Y194308D01*
X681729Y196847D01*
X674111D01*
X11938Y127757D02*
Y115061D01*
X14477Y112522D01*
X19555D01*
X22095Y115061D01*
Y127757D01*
X27173Y112522D02*
Y127757D01*
X34791D01*
X37330Y125218D01*
Y120140D01*
X34791Y117600D01*
X27173D01*
X52565Y125218D02*
X50026Y127757D01*
X44947D01*
X42408Y125218D01*
Y122679D01*
X44947Y120140D01*
X50026D01*
X52565Y117600D01*
Y115061D01*
X50026Y112522D01*
X44947D01*
X42408Y115061D01*
X57643Y127757D02*
X67800D01*
X62722D01*
Y112522D01*
X72878D02*
Y127757D01*
X80496D01*
X83035Y125218D01*
Y120140D01*
X80496Y117600D01*
X72878D01*
X77957D02*
X83035Y112522D01*
X98270Y127757D02*
X88113D01*
Y112522D01*
X98270D01*
X88113Y120140D02*
X93192D01*
X103348Y112522D02*
Y122679D01*
X108427Y127757D01*
X113505Y122679D01*
Y112522D01*
Y120140D01*
X103348D01*
X118583Y112522D02*
Y127757D01*
X123662Y122679D01*
X128740Y127757D01*
Y112522D01*
X673100Y502412D02*
Y517647D01*
X680717D01*
X683257Y515108D01*
Y510029D01*
X680717Y507490D01*
X673100D01*
X678178D02*
X683257Y502412D01*
X698492Y517647D02*
X688335D01*
Y510029D01*
X693413Y512569D01*
X695953D01*
X698492Y510029D01*
Y504951D01*
X695953Y502412D01*
X690874D01*
X688335Y504951D01*
X424181Y207008D02*
X419103D01*
X421642D01*
Y194312D01*
X419103Y191772D01*
X416563D01*
X414024Y194312D01*
X429259Y204468D02*
X431798Y207008D01*
X436877D01*
X439416Y204468D01*
Y201929D01*
X434338Y196851D01*
Y194312D02*
Y191772D01*
X685038Y132837D02*
Y117602D01*
X692655D01*
X695195Y120141D01*
Y130298D01*
X692655Y132837D01*
X685038D01*
X707891D02*
X702812D01*
X700273Y130298D01*
Y120141D01*
X702812Y117602D01*
X707891D01*
X710430Y120141D01*
Y130298D01*
X707891Y132837D01*
X715508D02*
Y117602D01*
X720586Y122680D01*
X725665Y117602D01*
Y132837D01*
X730743Y117602D02*
Y132837D01*
X740900Y117602D01*
Y132837D01*
X756135Y130298D02*
X753596Y132837D01*
X748518D01*
X745978Y130298D01*
Y127759D01*
X748518Y125219D01*
X753596D01*
X756135Y122680D01*
Y120141D01*
X753596Y117602D01*
X748518D01*
X745978Y120141D01*
X761213Y132837D02*
X771370D01*
X766292D01*
Y117602D01*
X776448D02*
Y132837D01*
X784066D01*
X786605Y130298D01*
Y125219D01*
X784066Y122680D01*
X776448D01*
X781527D02*
X786605Y117602D01*
X801840Y132837D02*
X791684D01*
Y117602D01*
X801840D01*
X791684Y125219D02*
X796762D01*
X806919Y117602D02*
Y127759D01*
X811997Y132837D01*
X817075Y127759D01*
Y117602D01*
Y125219D01*
X806919D01*
X822154Y117602D02*
Y132837D01*
X827232Y127759D01*
X832310Y132837D01*
Y117602D01*
X779015Y514854D02*
X776476Y517393D01*
X771397D01*
X768858Y514854D01*
Y512315D01*
X771397Y509776D01*
X776476D01*
X779015Y507236D01*
Y504697D01*
X776476Y502158D01*
X771397D01*
X768858Y504697D01*
X784093Y517393D02*
Y502158D01*
X789171Y507236D01*
X794250Y502158D01*
Y517393D01*
X799328Y502158D02*
X804407D01*
X801867D01*
Y517393D01*
X799328Y514854D01*
X156718Y487172D02*
Y502407D01*
X164335D01*
X166875Y499868D01*
Y494790D01*
X164335Y492250D01*
X156718D01*
X161796D02*
X166875Y487172D01*
X171953D02*
X177031D01*
X174492D01*
Y502407D01*
X171953Y499868D01*
X257299Y122423D02*
X247142D01*
Y114805D01*
X252220D01*
X247142D01*
Y107188D01*
X262377D02*
X267455D01*
X264916D01*
Y122423D01*
X262377Y119884D01*
X261871Y600959D02*
X251714D01*
Y585724D01*
X261871D01*
X251714Y593341D02*
X256792D01*
X277106Y598420D02*
X274567Y600959D01*
X269488D01*
X266949Y598420D01*
Y595881D01*
X269488Y593341D01*
X274567D01*
X277106Y590802D01*
Y588263D01*
X274567Y585724D01*
X269488D01*
X266949Y588263D01*
X282184Y585724D02*
Y600959D01*
X289802D01*
X292341Y598420D01*
Y593341D01*
X289802Y590802D01*
X282184D01*
X297419Y598420D02*
X299958Y600959D01*
X305037D01*
X307576Y598420D01*
Y595881D01*
X305037Y593341D01*
X302498D01*
X305037D01*
X307576Y590802D01*
Y588263D01*
X305037Y585724D01*
X299958D01*
X297419Y588263D01*
X322811Y585724D02*
X312654D01*
X322811Y595881D01*
Y598420D01*
X320272Y600959D01*
X315194D01*
X312654Y598420D01*
D16*
X452800Y2850D02*
Y147950D01*
Y2850D02*
X542800D01*
Y34900D01*
Y104800D02*
Y147950D01*
X517500D02*
X542800D01*
X452800D02*
X478100D01*
X690490Y465740D02*
Y479140D01*
X673490Y465740D02*
Y479140D01*
X626990Y803940D02*
X635390D01*
X626990Y775940D02*
X635390D01*
X489130Y592430D02*
X498930D01*
X489130Y573430D02*
X498930D01*
X263190Y575280D02*
X443190D01*
Y508080D02*
Y575280D01*
X263190Y508080D02*
Y575280D01*
Y320280D02*
Y327580D01*
Y320280D02*
X275640D01*
X443190D02*
Y327580D01*
X430740Y320280D02*
X443190D01*
X618560Y451470D02*
X620960D01*
X618560Y465470D02*
X620960D01*
X685150Y679980D02*
Y682380D01*
X699150Y679980D02*
Y682380D01*
X481400Y342280D02*
X483800D01*
X481400Y328280D02*
X483800D01*
X480130Y494680D02*
X482530D01*
X480130Y480680D02*
X482530D01*
X157040Y450500D02*
Y463900D01*
X174040Y450500D02*
Y463900D01*
M02*
