G04*
G04 #@! TF.GenerationSoftware,Altium Limited,Altium Designer,25.3.3 (18)*
G04*
G04 Layer_Color=8421504*
%FSLAX44Y44*%
%MOMM*%
G71*
G04*
G04 #@! TF.SameCoordinates,CF0063C5-59CE-4EC0-ACCE-DCAF0012FED6*
G04*
G04*
G04 #@! TF.FilePolarity,Positive*
G04*
G01*
G75*
%ADD17R,1.0668X1.3462*%
%ADD18R,4.2418X3.8100*%
%ADD19R,0.8890X0.9525*%
%ADD20R,3.3000X4.0600*%
%ADD21R,3.3000X6.3500*%
%ADD22R,3.8100X6.3500*%
%ADD23R,1.4500X1.3500*%
%ADD24R,1.7300X0.9700*%
%ADD25R,1.4500X1.1500*%
%ADD26R,1.3700X2.8100*%
%ADD27R,1.2900X1.9100*%
%ADD28R,2.7000X4.1000*%
%ADD29R,1.3500X1.4500*%
%ADD30R,0.9000X0.9000*%
%ADD31R,1.5000X0.9000*%
%ADD32R,0.9000X1.5000*%
%ADD33R,1.0000X1.4200*%
%ADD34R,1.0000X2.0500*%
%ADD35R,6.7000X9.7000*%
%ADD36R,1.4200X1.0000*%
%ADD37R,1.7500X1.5000*%
%ADD38R,1.5000X1.7500*%
%ADD39R,1.2000X1.0000*%
D17*
X195707Y532130D02*
D03*
X213233D02*
D03*
D18*
X332867Y71120D02*
D03*
X269113D02*
D03*
D19*
X666750Y153225D02*
D03*
Y133794D02*
D03*
X781050Y663321D02*
D03*
Y643890D02*
D03*
X99060Y274764D02*
D03*
Y294195D02*
D03*
X811530Y170625D02*
D03*
Y190056D02*
D03*
X367030Y164655D02*
D03*
Y145225D02*
D03*
X576580Y669734D02*
D03*
Y689165D02*
D03*
D20*
X497800Y161250D02*
D03*
D21*
X558800Y69850D02*
D03*
D22*
X425900D02*
D03*
D23*
X527050Y442600D02*
D03*
Y459100D02*
D03*
X140970Y276230D02*
D03*
Y292730D02*
D03*
X99060Y378450D02*
D03*
Y361950D02*
D03*
D24*
X681990Y487240D02*
D03*
Y457640D02*
D03*
X165540Y442400D02*
D03*
Y472000D02*
D03*
D25*
X130810Y443120D02*
D03*
Y461120D02*
D03*
D26*
X616990Y789940D02*
D03*
X645390D02*
D03*
D27*
X479430Y582930D02*
D03*
X508630D02*
D03*
D28*
X780350Y789940D02*
D03*
X692850D02*
D03*
D29*
X212090Y486410D02*
D03*
X195590D02*
D03*
D30*
X338190Y423180D02*
D03*
X324190D02*
D03*
X352190D02*
D03*
X324190Y409180D02*
D03*
X338190D02*
D03*
X352190D02*
D03*
X324190Y437180D02*
D03*
X338190D02*
D03*
X352190D02*
D03*
D31*
X265690Y500380D02*
D03*
Y487680D02*
D03*
Y474980D02*
D03*
Y462280D02*
D03*
Y449580D02*
D03*
Y436880D02*
D03*
Y424180D02*
D03*
Y411480D02*
D03*
Y398780D02*
D03*
Y386080D02*
D03*
Y373380D02*
D03*
Y360680D02*
D03*
Y347980D02*
D03*
Y335280D02*
D03*
X440690D02*
D03*
Y347980D02*
D03*
Y360680D02*
D03*
Y373380D02*
D03*
Y386080D02*
D03*
Y398780D02*
D03*
Y411480D02*
D03*
Y424180D02*
D03*
Y436880D02*
D03*
Y449580D02*
D03*
Y462280D02*
D03*
Y474980D02*
D03*
Y487680D02*
D03*
Y500380D02*
D03*
D32*
X283340Y322780D02*
D03*
X296040D02*
D03*
X308740D02*
D03*
X321440D02*
D03*
X334140D02*
D03*
X346840D02*
D03*
X359540D02*
D03*
X372240D02*
D03*
X384940D02*
D03*
X397640D02*
D03*
X410340D02*
D03*
X423040D02*
D03*
D33*
X629110Y458470D02*
D03*
X610410D02*
D03*
X473250Y335280D02*
D03*
X491950D02*
D03*
X471980Y487680D02*
D03*
X490680D02*
D03*
D34*
X440400Y688340D02*
D03*
X458700D02*
D03*
X477000D02*
D03*
X495300D02*
D03*
X513600D02*
D03*
D35*
X477000Y807340D02*
D03*
D36*
X692150Y671830D02*
D03*
Y690530D02*
D03*
D37*
Y622300D02*
D03*
Y595300D02*
D03*
D38*
X530060Y335280D02*
D03*
X557060D02*
D03*
X533870Y487680D02*
D03*
X560870D02*
D03*
D39*
X830640Y483260D02*
D03*
Y466260D02*
D03*
X774640Y483260D02*
D03*
Y466260D02*
D03*
M02*
