%FSTAX23Y23*%
%MOMM*%
%SFA1B1*%

%IPPOS*%
%ADD60C,1.727197*%
%ADD61C,1.701797*%
%ADD62C,2.235196*%
%ADD63C,1.103198*%
%ADD64O,2.053196X1.103198*%
%ADD65C,0.953198*%
%ADD66C,1.473197*%
%LNpcb1_soldermask_bot-1*%
%LPD*%
G54D60*
X49784Y24003D03*
Y26543D03*
X61722Y23749D03*
Y26289D03*
X55753Y21717D03*
Y24257D03*
G54D61*
X0635Y04445D03*
X0889D03*
X1143D03*
X1397D03*
X0635Y06985D03*
X0889D03*
X1143D03*
X1397D03*
X7366Y04953D03*
X762D03*
X7874D03*
X8128D03*
X7366Y07493D03*
X762D03*
X7874D03*
X8128D03*
G54D62*
X37846Y67691D03*
Y70231D03*
X35306Y67691D03*
Y70231D03*
X32766Y67691D03*
Y70231D03*
X30226Y67691D03*
Y70231D03*
X27686Y67691D03*
Y70231D03*
X25146Y67691D03*
Y70231D03*
X22606Y67691D03*
Y70231D03*
X20066Y67691D03*
Y70231D03*
X17526Y67691D03*
Y70231D03*
X14986Y67691D03*
Y70231D03*
X12446Y67691D03*
Y70231D03*
X09906Y67691D03*
Y70231D03*
X07366Y67691D03*
Y70231D03*
X04826Y67691D03*
Y70231D03*
X02286Y67691D03*
Y70231D03*
G54D63*
X02286Y32893D03*
Y34192D03*
X03285Y32242D03*
Y33542D03*
Y34842D03*
G54D64*
X03065Y37117D03*
Y29967D03*
G54D65*
X80264Y4885D03*
Y46101D03*
G54D66*
X12446Y17526D03*
X72136Y28321D03*
X41021Y27686D03*
X29464Y25273D03*
X28194Y28956D03*
X63627Y19558D03*
X55753Y29845D03*
X61341Y03302D03*
X14351Y13208D03*
X77597Y21653D03*
X14351Y56769D03*
X1651Y52324D03*
X17272Y39878D03*
X19134D03*
X20997D03*
X2286D03*
X30861Y27686D03*
X07493Y78232D03*
X54529Y58266D03*
X34671Y29845D03*
X37211D03*
X32131D03*
X38481Y27686D03*
X40005Y36068D03*
X40006Y43559D03*
X40005Y41063D03*
X41715Y4248D03*
X41783Y39878D03*
Y37338D03*
X40005Y38565D03*
X41783Y34798D03*
X68326Y53594D03*
X57658Y62992D03*
X09906Y22479D03*
X46482Y24003D03*
X07366Y29464D03*
X42291Y29845D03*
X39751D03*
X35941Y27686D03*
X33401D03*
M02*