%FSTAX23Y23*%
%MOMM*%
%SFA1B1*%

%IPPOS*%
%ADD17R,1.449997X1.249998*%
%ADD18R,1.249998X1.449997*%
%ADD19R,1.066798X1.346197*%
%ADD20R,4.241792X3.809992*%
%ADD21R,0.888998X0.952498*%
%ADD22R,3.299993X4.059992*%
%ADD23R,3.299993X6.349987*%
%ADD24R,3.809992X6.349987*%
%ADD25R,1.729997X0.969998*%
%ADD26R,1.449997X1.149998*%
%ADD27R,1.369997X2.809994*%
%ADD28R,1.289997X1.909996*%
%ADD29R,2.699995X4.099992*%
%ADD30R,0.899998X0.899998*%
%ADD31R,1.499997X0.899998*%
%ADD32R,0.899998X1.499997*%
%ADD33R,0.999998X1.419997*%
%ADD34R,0.999998X2.049996*%
%ADD35R,6.699987X9.699981*%
%ADD36R,1.419997X0.999998*%
%ADD37R,1.749997X1.499997*%
%ADD38R,1.499997X1.749997*%
%ADD39R,1.199998X0.999998*%
%ADD61C,1.701797*%
%ADD67C,0.761998*%
%ADD68C,1.015998*%
%ADD69C,0.380999*%
%ADD70C,1.523997*%
%ADD71C,2.031996*%
%ADD72C,0.399999*%
%ADD73C,0.899998*%
%ADD74O,1.849996X0.899998*%
%ADD75C,0.749999*%
%ADD76C,1.269997*%
%LNpcb1_copper_signal_top-1*%
%LPD*%
G36*
X32305Y66578D02*
X32608Y66497D01*
X32923*
X33085Y6654*
X33283Y66199*
X25608Y58524*
X25527Y58403*
X25498Y58259*
Y51343*
X25527Y512*
X25579Y51122*
X25564Y50741*
Y50165*
X26568*
Y49911*
X25564*
Y49459*
X22075*
Y49543*
X21892*
Y52362*
X22034*
Y54063*
X20612*
X20358Y5414*
X20262*
X19697*
Y53213*
Y52285*
X20358*
X20577Y52351*
X20753Y52037*
Y49623*
X20373Y49619*
X2012*
X19621*
Y48641*
Y47661*
X19767*
X19971Y4728*
X19899Y47173*
X17596*
Y47862*
X17201*
Y51896*
X17267Y5201*
X17322Y52216*
Y5243*
X17267Y52637*
X1716Y52823*
X17009Y52974*
X16823Y53081*
X16715Y5311*
X16596Y53377*
X16583Y53517*
X20072Y57006*
X22456*
X226Y57035*
X22722Y57116*
X32228Y66622*
X32305Y66578*
G37*
G36*
X89154Y0D02*
X0D01*
Y26965*
X00381Y27094*
X00399Y27069*
X10432Y17036*
X10576Y16926*
X10742Y16857*
X10922Y16834*
X12018*
X12132Y16768*
X12338Y16713*
X12552*
X12759Y16768*
X12945Y16875*
X13096Y17026*
X13203Y17212*
X13258Y17418*
Y17632*
X13203Y17839*
X13096Y18025*
X12945Y18176*
X12759Y18283*
X12552Y18338*
X12338*
X12132Y18283*
X12018Y18217*
X11208*
X0158Y27845*
Y29663*
X01961Y29779*
X01999Y29722*
X02012Y29703*
X02031Y29675*
X02138Y29515*
X02346Y29376*
X0259Y29327*
X0354*
X03785Y29376*
X03993Y29515*
X04132Y29722*
X04181Y29967*
X04132Y30212*
X03993Y3042*
X03785Y30559*
X0354Y30608*
X0259*
X02346Y30559*
X02138Y3042*
X02031Y3026*
X01999Y30212*
X01961Y30156*
X0158Y30272*
Y32063*
X01659Y3214*
X01961Y32267*
X02014Y32236*
X02159Y32198*
Y32893*
X02413*
Y32182*
X02581Y3215*
X02629Y31971*
X02722Y3181*
X02853Y31679*
X03014Y31586*
X03158Y31548*
Y32242*
X03285*
Y32369*
X0398*
X03941Y32514*
X03849Y32675*
X03826Y32697*
X03749Y32827*
X03918Y33159*
X13721*
Y30139*
X13194*
Y28787*
X13117Y28437*
Y28184*
Y27686*
X15075*
Y28184*
Y28437*
X14999Y28787*
Y30139*
X14472*
Y33159*
X25641*
Y329*
X27325*
X27496*
X27706Y32605*
Y3135*
X27888*
Y29715*
X2788Y29713*
X27694Y29606*
X27543Y29455*
X27436Y29269*
X27381Y29062*
Y28848*
X27436Y28642*
X27543Y28456*
X27694Y28305*
X2788Y28198*
X28086Y28143*
X283*
X28507Y28198*
X28693Y28305*
X28777Y28389*
X29054Y28321*
X29158Y28254*
Y26032*
X2915Y2603*
X28964Y25923*
X28813Y25772*
X28706Y25586*
X28651Y25379*
Y25165*
X28706Y24959*
X28813Y24773*
X28964Y24622*
X2915Y24515*
X29356Y2446*
X2957*
X29777Y24515*
X29963Y24622*
X30114Y24773*
X30221Y24959*
X30276Y25165*
Y25379*
X30221Y25586*
X30114Y25772*
X29963Y25923*
X29909Y25954*
Y26974*
X29957Y27008*
X3029Y27106*
X30361Y27035*
X30547Y26928*
X30753Y26873*
X30967*
X31174Y26928*
X3136Y27035*
X31511Y27186*
X31618Y27372*
X31673Y27578*
Y27792*
X31618Y27999*
X31511Y28185*
X3136Y28336*
X31242Y28403*
Y29044*
X31623Y29202*
X31631Y29194*
X31817Y29087*
X32023Y29032*
X32237*
X32444Y29087*
X3263Y29194*
X3265Y29215*
X33031Y29057*
Y28411*
X32901Y28336*
X3275Y28185*
X32643Y27999*
X32588Y27792*
Y27578*
X32643Y27372*
X3275Y27186*
X32901Y27035*
X33087Y26928*
X33293Y26873*
X33507*
X33714Y26928*
X339Y27035*
X34051Y27186*
X34158Y27372*
X34213Y27578*
Y27792*
X34158Y27999*
X34051Y28185*
X339Y28336*
X33782Y28403*
Y29044*
X34163Y29202*
X34171Y29194*
X34357Y29087*
X34563Y29032*
X34777*
X34984Y29087*
X3517Y29194*
X3519Y29215*
X35571Y29057*
Y28411*
X35441Y28336*
X3529Y28185*
X35183Y27999*
X35128Y27792*
Y27578*
X35183Y27372*
X3529Y27186*
X35441Y27035*
X35627Y26928*
X35833Y26873*
X36047*
X36254Y26928*
X3644Y27035*
X36591Y27186*
X36698Y27372*
X36753Y27578*
Y27792*
X36698Y27999*
X36591Y28185*
X3644Y28336*
X36322Y28403*
Y29044*
X36703Y29202*
X36711Y29194*
X36897Y29087*
X37103Y29032*
X37317*
X37524Y29087*
X3771Y29194*
X3773Y29215*
X38111Y29057*
Y28411*
X37981Y28336*
X3783Y28185*
X37723Y27999*
X37668Y27792*
Y27578*
X37723Y27372*
X3783Y27186*
X37981Y27035*
X38167Y26928*
X38373Y26873*
X38587*
X38794Y26928*
X3898Y27035*
X39131Y27186*
X39238Y27372*
X39293Y27578*
Y27792*
X39238Y27999*
X39131Y28185*
X3898Y28336*
X38862Y28403*
Y29044*
X39243Y29202*
X39251Y29194*
X39437Y29087*
X39643Y29032*
X39857*
X40064Y29087*
X4025Y29194*
X4027Y29215*
X40651Y29057*
Y28411*
X40521Y28336*
X4037Y28185*
X40263Y27999*
X40208Y27792*
Y27578*
X40263Y27372*
X4037Y27186*
X40521Y27035*
X40707Y26928*
X40913Y26873*
X41127*
X41334Y26928*
X4152Y27035*
X41671Y27186*
X41778Y27372*
X41833Y27578*
Y27792*
X41778Y27999*
X41671Y28185*
X4152Y28336*
X41402Y28403*
Y29044*
X41783Y29202*
X41791Y29194*
X41977Y29087*
X42183Y29032*
X42397*
X42604Y29087*
X4279Y29194*
X42941Y29345*
X43048Y29531*
X43103Y29737*
Y29951*
X43048Y30158*
X42941Y30344*
X4279Y30495*
X42672Y30562*
Y3135*
X42931*
Y32605*
X43141Y329*
X43312*
X44996*
Y33152*
X46647*
Y3264*
X48002*
Y34415*
X46647*
Y33903*
X45267*
X44996Y3417*
Y34536*
Y35425*
Y35806*
Y36695*
Y37076*
Y37965*
Y38346*
Y39235*
Y39616*
Y40505*
Y40886*
Y41775*
Y42156*
Y43045*
Y4306*
Y43559*
X45348Y43705*
X53824Y35229*
Y3458*
X52078*
Y33903*
X49872*
Y34415*
X48517*
Y3264*
X48969*
X49127Y32259*
X36674Y19806*
X23876*
X23732Y19777*
X2361Y19696*
X11846Y07932*
X11827Y07943*
X11565Y08013*
X11294*
X11032Y07943*
X10798Y07808*
X10606Y07616*
X10471Y07382*
X10401Y0712*
Y06849*
X10471Y06587*
X10606Y06353*
X10798Y06161*
X11032Y06026*
X11294Y05956*
X11565*
X11827Y06026*
X12061Y06161*
X12253Y06353*
X12388Y06587*
X12458Y06849*
Y0712*
X12388Y07382*
X12377Y07401*
X24031Y19055*
X3683*
X36973Y19084*
X37095Y19165*
X49762Y31832*
X5394*
X54083Y31861*
X54205Y31942*
X5442Y32158*
X54497Y32223*
X54698Y32354*
X5492Y32398*
X55578*
Y33528*
Y34656*
X54956*
X54701*
X54575Y34985*
Y35385*
X54547Y35528*
X54465Y3565*
X45152Y44963*
X4503Y45045*
X44996Y45052*
Y45585*
X45267Y45852*
X45691*
X56505Y35037*
X56348Y34656*
X55832*
Y33655*
X56709*
Y34295*
X5709Y34452*
X78364Y13179*
Y08457*
X78342Y08451*
X78108Y08316*
X77916Y08124*
X77781Y0789*
X77711Y07628*
Y07357*
X77781Y07095*
X77916Y06861*
X78108Y06669*
X78342Y06534*
X78604Y06464*
X78875*
X79137Y06534*
X79371Y06669*
X79563Y06861*
X79698Y07095*
X79768Y07357*
Y07628*
X79698Y0789*
X79563Y08124*
X79371Y08316*
X79137Y08451*
X79115Y08457*
Y13335*
X79086Y13478*
X79005Y136*
X46112Y46493*
X4599Y46574*
X45847Y46603*
X45283*
X45197Y46697*
Y46777*
X45539Y47122*
X50911*
X51802Y46231*
Y45424*
X51725Y45074*
Y44821*
Y44323*
X52705*
X53683*
Y44821*
Y45074*
X5368Y4509*
X53987Y45471*
X60363*
Y44959*
X61718*
Y46734*
X60363*
Y46222*
X53607*
Y46776*
X52319*
X51332Y47763*
X5121Y47844*
X51066Y47873*
X50123*
X49745Y4788*
Y48392*
X52459*
Y47715*
X54314*
Y4982*
X52459*
Y49143*
X49745*
Y49655*
X4839*
Y48217*
X48133Y48056*
X47875Y48217*
Y49655*
X4652*
Y49143*
X45375*
X45072Y49333*
Y49911*
X43064*
Y49333*
X43141*
Y48506*
Y4814*
Y47759*
Y4687*
Y46489*
Y456*
Y45219*
Y4433*
X43018Y43999*
X4069*
X40656Y44058*
X40505Y4421*
X40319Y44317*
X40113Y44372*
X39899*
X39692Y44317*
X39507Y4421*
X39355Y44058*
X39248Y43873*
X39193Y43666*
Y43452*
X39248Y43245*
X39355Y4306*
X39507Y42909*
X39692Y42802*
X39899Y42746*
X40113*
X40319Y42802*
X40505Y42909*
X40549Y42953*
X40623Y42947*
X40635Y42942*
X40902Y42587*
Y42373*
X40958Y42166*
X41065Y41981*
X41184Y41862*
X41167Y4172*
X41058Y41481*
X40702*
X40655Y41562*
X40504Y41713*
X40318Y4182*
X40111Y41876*
X39897*
X39691Y4182*
X39505Y41713*
X39354Y41562*
X39247Y41377*
X39192Y4117*
Y40956*
X39247Y40749*
X39354Y40564*
X39505Y40412*
X39691Y40305*
X39897Y4025*
X40111*
X40318Y40305*
X40504Y40412*
X40621Y4053*
X40791Y40543*
X40818Y40519*
X40969Y4028*
X41009Y40131*
X4097Y39984*
Y3977*
X41025Y39564*
X41103Y39429*
X41017Y39212*
X40915Y39066*
X40658Y39059*
X40655Y39064*
X40504Y39216*
X40318Y39323*
X40111Y39378*
X39897*
X39691Y39323*
X39505Y39216*
X39354Y39064*
X39247Y38879*
X39192Y38672*
Y38458*
X39247Y38251*
X39354Y38066*
X39505Y37915*
X39691Y37808*
X39897Y37752*
X40111*
X40318Y37808*
X40504Y37915*
X40627Y38038*
X4078Y38047*
X4082Y3804*
X41021Y37659*
X4102Y37632*
X4097Y37444*
Y3723*
X41025Y37024*
X41049Y36981*
X40888Y36619*
X40854Y36589*
X40655Y36567*
X40504Y36718*
X40318Y36825*
X40111Y3688*
X39897*
X39691Y36825*
X39505Y36718*
X39354Y36567*
X39247Y36381*
X39192Y36174*
Y3596*
X39247Y35754*
X39354Y35568*
X39505Y35417*
X39691Y3531*
X39897Y35255*
X40111*
X40318Y3531*
X40504Y35417*
X40655Y35568*
X40854Y35546*
X40888Y35516*
X41049Y35153*
X41025Y35111*
X4097Y34904*
Y3469*
X41025Y34484*
X41132Y34298*
X41283Y34147*
X41469Y3404*
X41675Y33985*
X41889*
X42096Y3404*
X42282Y34147*
X42433Y34298*
X42504Y34422*
X4287*
X43141Y34155*
Y33789*
Y335*
X42931Y33205*
X4276*
X41676*
X41295*
X40406*
X40025*
X39136*
X38755*
X37866*
X37485*
X36596*
X36215*
X35326*
X34945*
X34056*
X33675*
X32786*
X32405*
X31516*
X31135*
X30246*
X29865*
X28976*
X28595*
X27706*
X27496Y335*
Y34155*
Y3417*
Y35059*
Y35425*
Y35806*
Y36695*
Y37076*
Y37965*
Y38513*
X2753Y3852*
X27652Y38601*
X31362Y42312*
X31714Y42166*
Y41613*
Y41044*
X32418*
Y40917*
X32545*
Y40213*
X33691*
Y40917*
X33945*
Y40213*
X35091*
Y40917*
X35218*
Y41044*
X35922*
Y41613*
Y4219*
X35218*
Y42444*
X35922*
Y43013*
Y4359*
X35218*
Y43717*
X35091*
Y44421*
X33945*
Y43717*
X33691*
Y44421*
X32623*
X32477Y44773*
X3826Y50556*
X43064*
Y50165*
X45072*
Y50741*
X45058Y51122*
X4511Y512*
X45138Y51343*
Y60773*
X4511Y60917*
X45028Y61038*
X38914Y67153*
X38958Y6723*
X39039Y67533*
Y67848*
X38958Y68151*
X38801Y68423*
X38578Y68646*
X384Y68749*
X38363Y68896*
Y69024*
X384Y69172*
X38578Y69275*
X38801Y69497*
X38958Y6977*
X39039Y70073*
Y70388*
X38958Y70691*
X38801Y70963*
X38578Y71186*
X38306Y71343*
X38003Y71424*
X37688*
X37385Y71343*
X37112Y71186*
X3689Y70963*
X36787Y70785*
X36639Y70748*
X36511*
X36364Y70785*
X36261Y70963*
X36038Y71186*
X35766Y71343*
X35463Y71424*
X35148*
X34845Y71343*
X34572Y71186*
X3435Y70963*
X34247Y70785*
X34099Y70748*
X33971*
X33824Y70785*
X33721Y70963*
X33498Y71186*
X33226Y71343*
X32923Y71424*
X32608*
X32305Y71343*
X32032Y71186*
X3181Y70963*
X31707Y70785*
X31559Y70748*
X31431*
X31284Y70785*
X31181Y70963*
X30958Y71186*
X30686Y71343*
X30383Y71424*
X30068*
X29765Y71343*
X29492Y71186*
X2927Y70963*
X29167Y70785*
X29019Y70748*
X28891*
X28744Y70785*
X28641Y70963*
X28418Y71186*
X28146Y71343*
X27843Y71424*
X27528*
X27225Y71343*
X26952Y71186*
X2673Y70963*
X26627Y70785*
X26479Y70748*
X26351*
X26204Y70785*
X26101Y70963*
X25878Y71186*
X25606Y71343*
X25303Y71424*
X24988*
X24685Y71343*
X24412Y71186*
X2419Y70963*
X24087Y70785*
X23939Y70748*
X23811*
X23664Y70785*
X23561Y70963*
X23338Y71186*
X23066Y71343*
X22763Y71424*
X22448*
X22145Y71343*
X21872Y71186*
X2165Y70963*
X21547Y70785*
X21399Y70748*
X21271*
X21124Y70785*
X21021Y70963*
X20798Y71186*
X20526Y71343*
X20223Y71424*
X19908*
X19605Y71343*
X19332Y71186*
X1911Y70963*
X19007Y70785*
X18859Y70748*
X18731*
X18584Y70785*
X18481Y70963*
X18258Y71186*
X17986Y71343*
X17683Y71424*
X17368*
X17065Y71343*
X16792Y71186*
X1657Y70963*
X16467Y70785*
X16319Y70748*
X16191*
X16044Y70785*
X15941Y70963*
X15718Y71186*
X15446Y71343*
X15143Y71424*
X14828*
X14525Y71343*
X14252Y71186*
X1403Y70963*
X13927Y70785*
X13779Y70748*
X13651*
X13504Y70785*
X13401Y70963*
X13178Y71186*
X12906Y71343*
X12603Y71424*
X12288*
X12126Y71381*
X11928Y71722*
X27714Y87508*
X73018*
X78952Y81573*
X78806Y81221*
X76507*
Y76766*
X79031*
X80681Y75116*
Y69471*
X78196Y66986*
X77482*
Y65795*
X77457*
X77387Y65781*
X77329Y65742*
X77289Y65683*
X77275Y65614*
Y65106*
X77289Y65037*
X77329Y64978*
X77387Y64939*
X77406Y64935*
Y64516*
X78105*
X78803*
Y64882*
X78916Y64982*
X79197Y65015*
X79302Y65007*
X7938Y64955*
Y62258*
X74797Y57675*
X59314*
X57378Y59611*
X57256Y59693*
X57112Y59721*
X54988*
X47507Y67202*
X47652Y67554*
X48453*
Y68707*
X47699*
X46945*
Y68701*
X46564Y68497*
X46547Y68509*
Y70036*
X45192*
Y67631*
X46016*
X54226Y59421*
X54221Y59243*
X54158Y59022*
X54124Y58984*
X51685*
Y59425*
X51018*
X44731Y65712*
Y68834*
X44717Y68939*
Y70036*
X43362*
Y68939*
X43348Y68834*
Y65425*
X43371Y65246*
X4344Y6508*
X4355Y64936*
X48604Y59882*
X48446Y59501*
X48069*
Y5842*
X48841*
Y59106*
X49222Y59264*
X5004Y58447*
Y5716*
X51685*
Y57601*
X54056*
X54215Y57509*
X54422Y57453*
X54636*
X54843Y57509*
X55028Y57616*
X55179Y57767*
X55286Y57953*
X55342Y58159*
Y58373*
X55286Y5858*
X55281Y58589*
X5549Y5897*
X56957*
X58893Y57034*
X59015Y56952*
X59159Y56924*
X74952*
X75096Y56952*
X75218Y57034*
X80021Y61837*
X80102Y61959*
X80131Y62103*
Y6543*
X80102Y65574*
X80021Y65695*
X79264Y66453*
X79202Y66667*
X79203Y66923*
X79207Y66935*
X81322Y6905*
X81403Y69171*
X81432Y69315*
Y75311*
X81403Y75454*
X81322Y75576*
X81205Y75654*
X79562Y77297*
Y80465*
X79914Y80611*
X83732Y76793*
Y49003*
X82286*
Y48701*
X81436*
X81293Y48672*
X81171Y48591*
X81164Y48584*
X80907Y487*
X80816Y48775*
Y4896*
X80732Y49164*
X80577Y49319*
X80373Y49403*
X80153*
X7995Y49319*
X79795Y49164*
X79721Y48985*
X79692Y48944*
X7936Y48701*
X79359Y48701*
X78241*
Y49003*
X76686*
Y48179*
X74646Y46139*
X69241*
Y46426*
X67156*
Y46139*
X63588*
Y46734*
X62233*
Y44959*
X63588*
Y45388*
X67156*
Y45101*
X69241*
Y45388*
X74801*
X74945Y45417*
X75067Y45498*
X76257Y46688*
X76609Y46543*
Y45871*
X77336*
Y46625*
X77463*
Y46752*
X78317*
Y47379*
X78272Y47587*
X78451Y4795*
X79205*
X79389Y47765*
X79511Y47684*
X79655Y47655*
X81142*
X81285Y47684*
X81407Y47765*
X81592Y4795*
X82076*
X82263Y47569*
X82209Y47379*
Y47298*
Y46752*
X83063*
Y46625*
X8319*
Y45871*
X83732*
Y36004*
X76425Y28696*
X72857*
X72786Y2882*
X72635Y28971*
X72449Y29078*
X72242Y29133*
X72028*
X71822Y29078*
X71636Y28971*
X71485Y2882*
X71378Y28634*
X71323Y28427*
Y28213*
X71378Y28007*
X71485Y27821*
X71636Y2767*
X71822Y27563*
X72028Y27508*
X72242*
X72449Y27563*
X72635Y2767*
X72786Y27821*
X72857Y27945*
X76581*
X76724Y27974*
X76846Y28055*
X84373Y35582*
X84455Y35704*
X84483Y35848*
Y76949*
X84455Y77092*
X84373Y77214*
X73439Y88149*
X73317Y8823*
X73173Y88259*
X27559*
X27415Y8823*
X27293Y88149*
X10443Y71299*
X10366Y71343*
X10063Y71424*
X09748*
X09445Y71343*
X09172Y71186*
X0895Y70963*
X08847Y70785*
X08699Y70748*
X08571*
X08424Y70785*
X08321Y70963*
X08098Y71186*
X07826Y71343*
X07804Y71349*
Y77474*
X07806Y77474*
X07992Y77581*
X08143Y77732*
X0825Y77918*
X08305Y78124*
Y78338*
X0825Y78545*
X08143Y78731*
X07992Y78882*
X07806Y78989*
X07599Y79044*
X07385*
X07179Y78989*
X06993Y78882*
X06842Y78731*
X06735Y78545*
X0668Y78338*
Y78124*
X06735Y77918*
X06842Y77732*
X06993Y77581*
X07053Y77546*
Y71383*
X06905Y71343*
X06632Y71186*
X0641Y70963*
X06307Y70785*
X06159Y70748*
X06031*
X05884Y70785*
X05781Y70963*
X05558Y71186*
X05286Y71343*
X04983Y71424*
X04668*
X04365Y71343*
X04092Y71186*
X0387Y70963*
X03808Y70856*
X03801Y70853*
X03382Y70872*
X03302Y7101*
X03065Y71247*
X02776Y71414*
X02453Y71501*
X02413*
Y70231*
X02286*
Y70104*
X01016*
Y70063*
X01102Y6974*
X01269Y69451*
X01506Y69214*
X01644Y69134*
X01662Y68715*
X01659Y68708*
X01552Y68646*
X0133Y68423*
X01173Y68151*
X01092Y67848*
Y67533*
X01173Y6723*
X0133Y66957*
X01552Y66735*
X01825Y66578*
X02128Y66497*
X02443*
X02746Y66578*
X03018Y66735*
X03241Y66957*
X03344Y67136*
X03491Y67173*
X03619*
X03767Y67136*
X0387Y66957*
X04092Y66735*
X04365Y66578*
X04668Y66497*
X04983*
X05286Y66578*
X05558Y66735*
X05781Y66957*
X05884Y67136*
X06031Y67173*
X06159*
X06307Y67136*
X0641Y66957*
X06632Y66735*
X06905Y66578*
X07208Y66497*
X07523*
X07826Y66578*
X08098Y66735*
X08321Y66957*
X08424Y67136*
X08571Y67173*
X08699*
X08847Y67136*
X0895Y66957*
X09172Y66735*
X09445Y66578*
X09748Y66497*
X10063*
X10366Y66578*
X10638Y66735*
X10861Y66957*
X10964Y67136*
X11111Y67173*
X11239*
X11387Y67136*
X1149Y66957*
X11712Y66735*
X11985Y66578*
X12288Y66497*
X12603*
X12906Y66578*
X13178Y66735*
X13401Y66957*
X13504Y67136*
X13651Y67173*
X13779*
X13927Y67136*
X1403Y66957*
X14252Y66735*
X14525Y66578*
X14828Y66497*
X15143*
X15446Y66578*
X15523Y66622*
X17277Y64868*
Y5667*
X10402Y49795*
X10321Y49673*
X10292Y4953*
Y3937*
X10321Y39226*
X10359Y39168*
X10242Y38787*
X10033*
Y38035*
X10884*
Y38124*
X11236Y38269*
X13704Y35802*
X13826Y35721*
X1397Y35692*
X2537*
X25641Y35425*
Y34798*
X10281*
Y35328*
X10808*
Y3668*
X10884Y37029*
Y37283*
Y37781*
X09906*
X08926*
Y37283*
Y37029*
X09003Y3668*
Y35328*
X0953*
Y34798*
X05127*
X03921Y36002*
X038Y36084*
X03656Y36112*
X03621Y36493*
X03785Y36526*
X03993Y36665*
X04132Y36873*
X04181Y37117*
X04132Y37362*
X03993Y3757*
X03785Y37709*
X0354Y37758*
X0259*
X02346Y37709*
X02138Y3757*
X01999Y37362*
X01961Y37172*
X0158Y37209*
Y4302*
X14537Y55977*
X14664Y56011*
X1485Y56118*
X15001Y56269*
X15108Y56455*
X15163Y56661*
Y56875*
X15108Y57082*
X15001Y57268*
X1485Y57419*
X14664Y57526*
X14457Y57581*
X14243*
X14037Y57526*
X13851Y57419*
X137Y57268*
X13593Y57082*
X13559Y56955*
X00399Y43796*
X00381Y43771*
X0Y439*
Y89154*
X89154*
Y0*
G37*
G36*
X15456Y52237D02*
X15723Y52118D01*
X15752Y5201*
X15818Y51896*
Y47862*
X15511*
Y46537*
X16238*
X16782Y45992*
X16926Y45882*
X17092Y45813*
X17272Y4579*
X20032*
X2019Y45409*
X19396Y44615*
X17596*
Y44902*
X15511*
Y44615*
X13983*
Y45064*
X14059Y45282*
Y45414*
Y45984*
X13081*
Y46111*
X12954*
Y4694*
X12286*
Y4922*
X15316Y5225*
X15456Y52237*
G37*
%LNpcb1_copper_signal_top-2*%
%LPC*%
G36*
X19443Y5414D02*
X18783D01*
Y5334*
X19443*
Y5414*
G37*
G36*
Y53086D02*
X18783D01*
Y52285*
X19443*
Y53086*
G37*
G36*
X19367Y49619D02*
X18615D01*
Y48768*
X19367*
Y49619*
G37*
G36*
Y48514D02*
X18615D01*
Y47661*
X19367*
Y48514*
G37*
G36*
X51303Y85837D02*
X47826D01*
Y8086*
X51303*
Y85837*
G37*
G36*
X47572D02*
X44095D01*
Y8086*
X47572*
Y85837*
G37*
G36*
X70812Y81221D02*
X67757D01*
Y79369*
X65401*
Y80576*
X63676*
Y77411*
X64163*
Y75984*
X57779Y696*
X57084Y70295*
X56899Y70419*
X56681Y70462*
X5605*
X55832Y70419*
X55647Y70295*
X51955Y66604*
X51467*
X50898Y67173*
X51055Y67554*
X51232*
Y68707*
X50605*
Y68459*
X50224Y68256*
X50221Y68258*
Y68834*
X50207Y68939*
Y70036*
X48852*
Y68939*
X48838Y68834*
Y67564*
X48861Y67384*
X4893Y67218*
X4904Y67074*
X50691Y65423*
X50835Y65313*
X51001Y65244*
X51181Y65221*
X5207*
X52248Y65244*
X52415Y65313*
X52559Y65423*
X52668Y65567*
X52738Y65733*
X52744Y65781*
X56286Y69323*
X56445*
X57008Y6876*
X57009Y68563*
X56981Y68374*
X5694Y68366*
X56882Y68327*
X56842Y68268*
X56828Y68199*
Y67691*
X56842Y67621*
X56882Y67562*
X5694Y67523*
X5701Y67509*
X57035*
Y66319*
X57088*
Y63571*
X57007Y63491*
X569Y63305*
X56845Y63098*
Y62884*
X569Y62678*
X57007Y62492*
X57158Y62341*
X57344Y62234*
X5755Y62179*
X57764*
X57971Y62234*
X58157Y62341*
X58308Y62492*
X58415Y62678*
X5847Y62884*
Y63098*
X58415Y63305*
X58308Y63491*
X58227Y63571*
Y66319*
X5828*
Y67509*
X58305*
X58375Y67523*
X58433Y67562*
X58473Y67621*
X58486Y67691*
Y68199*
X58473Y68268*
X58433Y68327*
X58375Y68366*
X58305Y6838*
X5828*
Y69039*
X64804Y75563*
X64885Y75685*
X64914Y75829*
Y77411*
X65401*
Y78618*
X67757*
Y77297*
X66409Y75949*
X66328Y75827*
X66299Y75683*
Y71592*
X66328Y71449*
X66409Y71327*
X68319Y69416*
Y69362*
X68327Y69326*
Y68375*
X70102*
Y6973*
X69032*
X68961Y69837*
X6705Y71748*
Y75528*
X68288Y76766*
X70812*
Y81221*
G37*
G36*
X62637Y80652D02*
X61825D01*
Y79121*
X62637*
Y80652*
G37*
G36*
X61571D02*
X60759D01*
Y79121*
X61571*
Y80652*
G37*
G36*
X62637Y78867D02*
X61825D01*
Y77334*
X62637*
Y78867*
G37*
G36*
X61571D02*
X60759D01*
Y77334*
X61571*
Y78867*
G37*
G36*
X51303Y80606D02*
X47826D01*
Y75629*
X51303*
Y80606*
G37*
G36*
X47572D02*
X44095D01*
Y75629*
X47572*
Y80606*
G37*
G36*
X02159Y71501D02*
X02118D01*
X01795Y71414*
X01506Y71247*
X01269Y7101*
X01102Y70721*
X01016Y70398*
Y70358*
X02159*
Y71501*
G37*
G36*
X48453Y70112D02*
X47826D01*
Y68961*
X48453*
Y70112*
G37*
G36*
X52113D02*
X51486D01*
Y68961*
X52113*
Y70112*
G37*
G36*
X51232D02*
X50605D01*
Y68961*
X51232*
Y70112*
G37*
G36*
X47572D02*
X46945D01*
Y68961*
X47572*
Y70112*
G37*
G36*
X52113Y68707D02*
X51486D01*
Y67554*
X52113*
Y68707*
G37*
G36*
X78803Y64262D02*
X78232D01*
Y63658*
X78803*
Y64262*
G37*
G36*
X77978D02*
X77406D01*
Y63658*
X77978*
Y64262*
G37*
G36*
X70102Y6786D02*
X68327D01*
Y66505*
X68839*
Y63157*
X68162*
Y61302*
X70267*
Y63157*
X6959*
Y66505*
X70102*
Y6786*
G37*
G36*
X70343Y60533D02*
X69342D01*
Y59656*
X70343*
Y60533*
G37*
G36*
X69088D02*
X68085D01*
Y59656*
X69088*
Y60533*
G37*
G36*
X70343Y59402D02*
X69342D01*
Y58525*
X70343*
Y59402*
G37*
G36*
X69088D02*
X68085D01*
Y58525*
X69088*
Y59402*
G37*
G36*
X47815Y59501D02*
X47043D01*
Y5842*
X47815*
Y59501*
G37*
G36*
X48841Y58166D02*
X48069D01*
Y57083*
X48841*
Y58166*
G37*
G36*
X47815D02*
X47043D01*
Y57083*
X47815*
Y58166*
G37*
G36*
X5709Y49896D02*
X56213D01*
Y48895*
X5709*
Y49896*
G37*
G36*
X55959D02*
X55082D01*
Y48895*
X55959*
Y49896*
G37*
G36*
X68432Y54406D02*
X68218D01*
X68012Y54351*
X67826Y54244*
X67675Y54093*
X67568Y53907*
X67513Y537*
Y53486*
X67568Y5328*
X67675Y53094*
X67826Y52943*
X6795Y52872*
Y49386*
X67156*
Y48061*
X69241*
Y49386*
X68701*
Y52872*
X68825Y52943*
X68976Y53094*
X69083Y5328*
X69138Y53486*
Y537*
X69083Y53907*
X68976Y54093*
X68825Y54244*
X68639Y54351*
X68432Y54406*
G37*
G36*
X5709Y48641D02*
X56213D01*
Y47638*
X5709*
Y48641*
G37*
G36*
X55959D02*
X55082D01*
Y47638*
X55959*
Y48641*
G37*
G36*
X82936Y46498D02*
X82209D01*
Y45871*
X82936*
Y46498*
G37*
G36*
X78317D02*
X7759D01*
Y45871*
X78317*
Y46498*
G37*
G36*
X80373Y46653D02*
X80153D01*
X7995Y46569*
X79795Y46414*
X79711Y4621*
Y4599*
X79795Y45787*
X7995Y45632*
X80153Y45548*
X80373*
X80577Y45632*
X80732Y45787*
X80816Y4599*
Y4621*
X80732Y46414*
X80577Y46569*
X80373Y46653*
G37*
G36*
X35922Y44421D02*
X35345D01*
Y43844*
X35922*
Y44421*
G37*
G36*
X53683Y44069D02*
X52832D01*
Y43316*
X53683*
Y44069*
G37*
G36*
X52578D02*
X51725D01*
Y43316*
X52578*
Y44069*
G37*
G36*
X35922Y4079D02*
X35345D01*
Y40213*
X35922*
Y4079*
G37*
G36*
X32291D02*
X31714D01*
Y40213*
X32291*
Y4079*
G37*
G36*
X09779Y38787D02*
X08926D01*
Y38035*
X09779*
Y38787*
G37*
G36*
X56709Y33401D02*
X55832D01*
Y32398*
X56709*
Y33401*
G37*
G36*
X0398Y32115D02*
X03412D01*
Y31548*
X03557Y31586*
X03718Y31679*
X03849Y3181*
X03941Y31971*
X0398Y32115*
G37*
G36*
X15075Y27432D02*
X14224D01*
Y26679*
X15075*
Y27432*
G37*
G36*
X1397D02*
X13117D01*
Y26679*
X1397*
Y27432*
G37*
G36*
X55859Y30657D02*
X55645D01*
X55439Y30602*
X55253Y30495*
X55102Y30344*
X54995Y30158*
X5494Y29951*
Y29737*
X54995Y29531*
X55061Y29417*
Y26424*
X54709Y26278*
X53956Y27032*
X53812Y27141*
X53645Y27211*
X53467Y27234*
X50421*
X5036Y27294*
X50146Y27418*
X49907Y27482*
X4966*
X49421Y27418*
X49206Y27294*
X49031Y2712*
X48908Y26905*
X48844Y26666*
Y26419*
X48908Y2618*
X49031Y25965*
X49206Y2579*
X49421Y25667*
X4966Y25603*
X49907*
X50146Y25667*
X5036Y2579*
X50421Y25851*
X5318*
X54813Y24218*
Y24133*
X54877Y23894*
X55Y23679*
X55175Y23504*
X5539Y23381*
X55629Y23317*
X55876*
X56115Y23381*
X5633Y23504*
X56504Y23679*
X56628Y23894*
X56692Y24133*
Y24218*
X58071Y25597*
X61084*
X61144Y25536*
X61359Y25413*
X61598Y25349*
X61845*
X62084Y25413*
X62298Y25536*
X62473Y25711*
X62597Y25926*
X62661Y26165*
Y26412*
X62597Y26651*
X62473Y26866*
X62298Y2704*
X62084Y27164*
X61845Y27228*
X61598*
X61359Y27164*
X61144Y2704*
X61084Y2698*
X57785*
X57605Y26957*
X57439Y26888*
X57295Y26778*
X56796Y26278*
X56444Y26424*
Y29417*
X5651Y29531*
X56565Y29737*
Y29951*
X5651Y30158*
X56403Y30344*
X56252Y30495*
X56066Y30602*
X55859Y30657*
G37*
G36*
X49907Y24942D02*
X4966D01*
X49421Y24878*
X49206Y24754*
X49146Y24694*
X46909*
X46795Y2476*
X46588Y24815*
X46374*
X46168Y2476*
X45982Y24653*
X45831Y24502*
X45724Y24316*
X45669Y24109*
Y23895*
X45724Y23689*
X45831Y23503*
X45982Y23352*
X46168Y23245*
X46374Y2319*
X46588*
X46795Y23245*
X46909Y23311*
X49146*
X49206Y2325*
X49421Y23127*
X4966Y23063*
X49907*
X50146Y23127*
X5036Y2325*
X50535Y23425*
X50659Y2364*
X50723Y23879*
Y24126*
X50659Y24365*
X50535Y24579*
X5036Y24754*
X50146Y24878*
X49907Y24942*
G37*
G36*
X07472Y30276D02*
X07258D01*
X07052Y30221*
X06866Y30114*
X06715Y29963*
X06608Y29777*
X06553Y2957*
Y29356*
X06608Y2915*
X06715Y28964*
X06866Y28813*
X07052Y28706*
X07258Y28651*
X07472*
X07679Y28706*
X07865Y28813*
X07901Y28849*
X08719*
X09076Y28702*
Y28194*
X0909Y28124*
X0913Y28065*
X09188Y28026*
X09258Y28012*
X09283*
Y26822*
X09336*
Y23058*
X09255Y22978*
X09148Y22792*
X09093Y22585*
Y22371*
X09148Y22165*
X09255Y21979*
X09406Y21828*
X09592Y21721*
X09798Y21666*
X10012*
X10219Y21721*
X10405Y21828*
X10556Y21979*
X10663Y22165*
X10718Y22371*
Y22585*
X10663Y22792*
X10556Y22978*
X10475Y23058*
Y26822*
X10528*
Y28012*
X10553*
X10623Y28026*
X10681Y28065*
X10721Y28124*
X10734Y28194*
Y28702*
X10721Y28771*
X10681Y2883*
X10623Y28869*
X10553Y28883*
X10528*
Y30073*
X09283*
Y29989*
X0799*
X07865Y30114*
X07679Y30221*
X07472Y30276*
G37*
G36*
X61845Y24688D02*
X61598D01*
X61359Y24624*
X61144Y245*
X60969Y24325*
X60846Y24111*
X60782Y23872*
Y23625*
X60846Y23386*
X60969Y23171*
X61144Y22996*
X61359Y22873*
X61598Y22809*
X61683*
X63745Y20746*
X63583Y2037*
X63519*
X63313Y20315*
X63199Y20249*
X58198*
X56692Y21755*
Y2184*
X56628Y22079*
X56504Y22294*
X5633Y22468*
X56115Y22592*
X55876Y22656*
X55629*
X5539Y22592*
X55175Y22468*
X55115Y22408*
X41541*
X41362Y22385*
X41195Y22315*
X41052Y22206*
X37127Y18281*
X3702*
X36841Y18257*
X36674Y18188*
X36531Y18078*
X3634Y17888*
X3623Y17744*
X36161Y17577*
X36147Y17472*
X3608Y17119*
Y15929*
X36055*
X35985Y15915*
X35927Y15876*
X35887Y15817*
X35873Y15748*
Y1524*
X35887Y1517*
X35927Y15111*
X35985Y15072*
X36055Y15058*
X3608*
Y13868*
X36133*
Y08515*
X35966Y08385*
X35585Y08572*
Y09194*
X30988*
Y05029*
X35585*
Y0642*
X35814*
X35992Y06443*
X36159Y06512*
X36303Y06622*
X37192Y07511*
X37302Y07655*
X37371Y07821*
X37394Y08001*
X37371Y08179*
X37302Y08346*
X37272Y08384*
Y13868*
X37325*
Y15058*
X3735*
X3742Y15072*
X37478Y15111*
X37518Y1517*
X37531Y1524*
Y15748*
X37518Y15817*
X37478Y15876*
X3742Y15915*
X3735Y15929*
X37325*
Y1683*
X37334Y16897*
X37414*
X37593Y16921*
X3776Y1699*
X37903Y171*
X41828Y21025*
X55115*
X55175Y20964*
X5539Y20841*
X55629Y20777*
X55714*
X57422Y19068*
X57566Y18958*
X57732Y18889*
X57912Y18866*
X63199*
X63313Y188*
X63519Y18745*
X63733*
X6394Y188*
X64126Y18907*
X64277Y19058*
X64384Y19244*
X64439Y1945*
Y19514*
X64815Y19676*
X65983Y18509*
Y1583*
X66006Y15651*
X66052Y1554*
Y14786*
X66027*
X65957Y14772*
X65899Y14733*
X65859Y14674*
X65845Y14605*
Y14097*
X65859Y14027*
X65899Y13968*
X65957Y13929*
X66027Y13915*
X66052*
Y1295*
X66034Y12906*
X66011Y12727*
Y11109*
X62657Y07756*
X57707*
Y10337*
X54052*
Y03677*
X44748*
Y06858*
X4043*
Y03677*
X15268*
X14917Y04028*
X14928Y04047*
X14998Y04309*
Y0458*
X14928Y04842*
X14793Y05076*
X14601Y05268*
X14367Y05403*
X14105Y05473*
X13834*
X13572Y05403*
X13338Y05268*
X13146Y05076*
X13011Y04842*
X12941Y0458*
Y04309*
X13011Y04047*
X13146Y03813*
X13338Y03621*
X13572Y03486*
X13834Y03416*
X14105*
X14367Y03486*
X14386Y03497*
X14847Y03036*
X14969Y02955*
X15113Y02926*
X60619*
X6069Y02802*
X60841Y02651*
X61027Y02544*
X61233Y02489*
X61447*
X61654Y02544*
X6184Y02651*
X61991Y02802*
X62098Y02988*
X62153Y03194*
Y03408*
X62098Y03615*
X61991Y03801*
X6184Y03952*
X61654Y04059*
X61447Y04114*
X61233*
X61027Y04059*
X60841Y03952*
X6069Y03801*
X60619Y03677*
X57707*
Y06372*
X62944*
X63123Y06396*
X6329Y06465*
X63433Y06575*
X67191Y10333*
X67301Y10476*
X6737Y10643*
X67394Y10822*
Y12472*
X674Y12481*
X6747Y12647*
X67493Y12827*
X6747Y13005*
X674Y13172*
X67297Y13308*
Y13915*
X67322*
X67392Y13929*
X6745Y13968*
X6749Y14027*
X67503Y14097*
Y14605*
X6749Y14674*
X6745Y14733*
X67392Y14772*
X67322Y14786*
X67297*
Y1554*
X67343Y15651*
X67366Y1583*
Y18796*
X67343Y18974*
X67273Y19141*
X67164Y19285*
X62661Y23787*
Y23872*
X62597Y24111*
X62473Y24325*
X62298Y245*
X62084Y24624*
X61845Y24688*
G37*
G36*
X51683Y18408D02*
X49906D01*
Y16251*
X51683*
Y18408*
G37*
G36*
X49652D02*
X47875D01*
Y16251*
X49652*
Y18408*
G37*
G36*
X51683Y15997D02*
X49906D01*
Y1384*
X51683*
Y15997*
G37*
G36*
X49652D02*
X47875D01*
Y1384*
X49652*
Y15997*
G37*
G36*
X14457Y1402D02*
X14243D01*
X14037Y13965*
X13851Y13858*
X137Y13707*
X13629Y13583*
X12573*
X12429Y13554*
X12307Y13473*
X06766Y07932*
X06747Y07943*
X06485Y08013*
X06214*
X05952Y07943*
X05718Y07808*
X05526Y07616*
X05391Y07382*
X05321Y0712*
Y06849*
X05391Y06587*
X05526Y06353*
X05718Y06161*
X05952Y06026*
X06214Y05956*
X06485*
X06747Y06026*
X06981Y06161*
X07173Y06353*
X07308Y06587*
X07378Y06849*
Y0712*
X07308Y07382*
X07297Y07401*
X12728Y12832*
X13629*
X137Y12708*
X13851Y12557*
X14037Y1245*
X14243Y12395*
X14457*
X14664Y1245*
X1485Y12557*
X15001Y12708*
X15108Y12894*
X15163Y131*
Y13314*
X15108Y13521*
X15001Y13707*
X1485Y13858*
X14664Y13965*
X14457Y1402*
G37*
G36*
X2921Y09194D02*
X24612D01*
Y07676*
X14733*
X14601Y07808*
X14367Y07943*
X14105Y08013*
X13834*
X13572Y07943*
X13338Y07808*
X13146Y07616*
X13011Y07382*
X12941Y0712*
Y06849*
X13011Y06587*
X13146Y06353*
X13338Y06161*
X13572Y06026*
X13834Y05956*
X14105*
X14367Y06026*
X14601Y06161*
X14733Y06293*
X24612*
Y05029*
X2921*
Y09194*
G37*
G36*
X44748Y10414D02*
X42716D01*
Y07112*
X44748*
Y10414*
G37*
G36*
X42462D02*
X4043D01*
Y07112*
X42462*
Y10414*
G37*
G36*
X77703Y22466D02*
X77489D01*
X77283Y2241*
X77097Y22303*
X76946Y22152*
X76839Y21967*
X76784Y2176*
Y21546*
X76839Y21339*
X76946Y21154*
X77097Y21003*
X77283Y20896*
X77489Y2084*
X77703*
X7791Y20896*
X77993Y20943*
X78236*
X80355Y18824*
X80377Y18721*
X80377Y18426*
X80346Y18369*
X80337Y18357*
X80323Y18288*
Y1778*
X80337Y1771*
X80377Y17651*
X80435Y17612*
X80505Y17598*
X8053*
Y16408*
X80646*
Y08314*
X80456Y08124*
X80321Y0789*
X80251Y07628*
Y07357*
X80321Y07095*
X80456Y06861*
X80648Y06669*
X80882Y06534*
X81144Y06464*
X81415*
X81677Y06534*
X81911Y06669*
X82103Y06861*
X82238Y07095*
X82308Y07357*
Y07628*
X82238Y0789*
X82103Y08124*
X81911Y08316*
X81786Y08388*
Y16998*
X81775Y17053*
Y17598*
X818*
X8187Y17612*
X81928Y17651*
X81968Y1771*
X81981Y1778*
Y18288*
X81968Y18357*
X81928Y18416*
X8187Y18455*
X818Y18469*
X81775*
Y19659*
X81449*
X81356Y1978*
X79012Y22124*
X78868Y22234*
X78702Y22303*
X78523Y22327*
X78055*
X7791Y2241*
X77703Y22466*
G37*
G36*
X76335Y08521D02*
X76064D01*
X75802Y08451*
X75568Y08316*
X75376Y08124*
X75241Y0789*
X75171Y07628*
Y07357*
X75241Y07095*
X75376Y06861*
X75568Y06669*
X75802Y06534*
X76064Y06464*
X76335*
X76597Y06534*
X76831Y06669*
X77023Y06861*
X77158Y07095*
X77228Y07357*
Y07628*
X77158Y0789*
X77023Y08124*
X76831Y08316*
X76597Y08451*
X76335Y08521*
G37*
G36*
X73795D02*
X73524D01*
X73262Y08451*
X73028Y08316*
X72836Y08124*
X72701Y0789*
X72631Y07628*
Y07357*
X72701Y07095*
X72836Y06861*
X73028Y06669*
X73262Y06534*
X73524Y06464*
X73795*
X74057Y06534*
X74291Y06669*
X74483Y06861*
X74618Y07095*
X74688Y07357*
Y07628*
X74618Y0789*
X74483Y08124*
X74291Y08316*
X74057Y08451*
X73795Y08521*
G37*
G36*
X09025Y08013D02*
X08754D01*
X08492Y07943*
X08258Y07808*
X08066Y07616*
X07931Y07382*
X07861Y0712*
Y06849*
X07931Y06587*
X08066Y06353*
X08258Y06161*
X08492Y06026*
X08754Y05956*
X09025*
X09287Y06026*
X09521Y06161*
X09713Y06353*
X09848Y06587*
X09918Y06849*
Y0712*
X09848Y07382*
X09713Y07616*
X09521Y07808*
X09287Y07943*
X09025Y08013*
G37*
G36*
X73805Y06057D02*
X73787D01*
Y0508*
X74764*
Y05098*
X74689Y05379*
X74544Y05631*
X74338Y05837*
X74086Y05982*
X73805Y06057*
G37*
G36*
X73533D02*
X73514D01*
X73233Y05982*
X72981Y05837*
X72775Y05631*
X7263Y05379*
X72555Y05098*
Y0508*
X73533*
Y06057*
G37*
G36*
X06495Y05549D02*
X06477D01*
Y04572*
X07454*
Y0459*
X07379Y04871*
X07234Y05123*
X07028Y05329*
X06776Y05474*
X06495Y05549*
G37*
G36*
X06223D02*
X06204D01*
X05923Y05474*
X05671Y05329*
X05465Y05123*
X0532Y04871*
X05245Y0459*
Y04572*
X06223*
Y05549*
G37*
G36*
X81415Y05981D02*
X81144D01*
X80882Y05911*
X80648Y05776*
X80456Y05584*
X80321Y0535*
X80251Y05088*
Y04817*
X80321Y04555*
X80456Y04321*
X80648Y04129*
X80882Y03994*
X81144Y03924*
X81415*
X81677Y03994*
X81911Y04129*
X82103Y04321*
X82238Y04555*
X82308Y04817*
Y05088*
X82238Y0535*
X82103Y05584*
X81911Y05776*
X81677Y05911*
X81415Y05981*
G37*
G36*
X76335D02*
X76064D01*
X75802Y05911*
X75568Y05776*
X75376Y05584*
X75241Y0535*
X75171Y05088*
Y04817*
X75241Y04555*
X75376Y04321*
X75568Y04129*
X75802Y03994*
X76064Y03924*
X76335*
X76597Y03994*
X76831Y04129*
X77023Y04321*
X77158Y04555*
X77228Y04817*
Y05088*
X77158Y0535*
X77023Y05584*
X76831Y05776*
X76597Y05911*
X76335Y05981*
G37*
G36*
X74764Y04826D02*
X73787D01*
Y03848*
X73805*
X74086Y03923*
X74338Y04068*
X74544Y04274*
X74689Y04526*
X74764Y04807*
Y04826*
G37*
G36*
X73533D02*
X72555D01*
Y04807*
X7263Y04526*
X72775Y04274*
X72981Y04068*
X73233Y03923*
X73514Y03848*
X73533*
Y04826*
G37*
G36*
X09025Y05473D02*
X08754D01*
X08492Y05403*
X08258Y05268*
X08066Y05076*
X07931Y04842*
X07861Y0458*
Y04309*
X07931Y04047*
X08066Y03813*
X08258Y03621*
X08492Y03486*
X08754Y03416*
X09025*
X09287Y03486*
X09521Y03621*
X09713Y03813*
X09848Y04047*
X09918Y04309*
Y0458*
X09848Y04842*
X09713Y05076*
X09521Y05268*
X09287Y05403*
X09025Y05473*
G37*
G36*
X07454Y04318D02*
X06477D01*
Y0334*
X06495*
X06776Y03415*
X07028Y0356*
X07234Y03766*
X07379Y04018*
X07454Y04299*
Y04318*
G37*
G36*
X06223D02*
X05245D01*
Y04299*
X0532Y04018*
X05465Y03766*
X05671Y0356*
X05923Y03415*
X06204Y0334*
X06223*
Y04318*
G37*
G36*
X78875Y05981D02*
X78604D01*
X78342Y05911*
X78108Y05776*
X77916Y05584*
X77781Y0535*
X77711Y05088*
Y04817*
X77781Y04555*
X77792Y04536*
X75155Y01899*
X14506*
X12377Y04028*
X12388Y04047*
X12458Y04309*
Y0458*
X12388Y04842*
X12253Y05076*
X12061Y05268*
X11827Y05403*
X11565Y05473*
X11294*
X11032Y05403*
X10798Y05268*
X10606Y05076*
X10471Y04842*
X10401Y0458*
Y04309*
X10471Y04047*
X10606Y03813*
X10798Y03621*
X11032Y03486*
X11294Y03416*
X11565*
X11827Y03486*
X11846Y03497*
X14085Y01258*
X14207Y01177*
X14351Y01148*
X75311*
X75454Y01177*
X75576Y01258*
X78323Y04005*
X78342Y03994*
X78604Y03924*
X78875*
X79137Y03994*
X79371Y04129*
X79563Y04321*
X79698Y04555*
X79768Y04817*
Y05088*
X79698Y0535*
X79563Y05584*
X79371Y05776*
X79137Y05911*
X78875Y05981*
G37*
G36*
X14059Y4694D02*
X13208D01*
Y46238*
X14059*
Y4694*
G37*
%LNpcb1_copper_signal_top-3*%
%LPD*%
G54D17*
X52705Y44196D03*
Y45974D03*
X14097Y29337D03*
Y27559D03*
X09906Y3613D03*
Y37908D03*
G54D18*
X19494Y48641D03*
X21272D03*
G54D19*
X1957Y53213D03*
X21323D03*
G54D20*
X33286Y07112D03*
X26911D03*
G54D21*
X66675Y15322D03*
Y13379D03*
X78105Y66332D03*
Y64389D03*
X09906Y27476D03*
Y29419D03*
X81153Y17062D03*
Y19005D03*
X36703Y16465D03*
Y14522D03*
X57658Y66973D03*
Y68916D03*
G54D22*
X49779Y16124D03*
G54D23*
X5588Y06985D03*
G54D24*
X42589Y06985D03*
G54D25*
X68199Y48723D03*
Y45763D03*
X16553Y44239D03*
Y47199D03*
G54D26*
X13081Y44311D03*
Y46111D03*
G54D27*
X61698Y78994D03*
X64538D03*
G54D28*
X47942Y58293D03*
X50862D03*
G54D29*
X78034Y78994D03*
X69284D03*
G54D30*
X33818Y42317D03*
X32418D03*
X35218D03*
X32418Y40917D03*
X33818D03*
X35218D03*
X32418Y43717D03*
X33818D03*
X35218D03*
G54D31*
X26568Y50038D03*
Y48768D03*
Y47498D03*
Y46228D03*
Y44958D03*
Y43688D03*
Y42418D03*
Y41148D03*
Y39878D03*
Y38608D03*
Y37338D03*
Y36068D03*
Y34798D03*
Y33528D03*
X44069D03*
Y34798D03*
Y36068D03*
Y37338D03*
Y38608D03*
Y39878D03*
Y41148D03*
Y42418D03*
Y43688D03*
Y44958D03*
Y46228D03*
Y47498D03*
Y48768D03*
Y50038D03*
G54D32*
X28333Y32277D03*
X29603D03*
X30873D03*
X32143D03*
X33413D03*
X34683D03*
X35953D03*
X37223D03*
X38493D03*
X39763D03*
X41033D03*
X42303D03*
G54D33*
X6291Y45847D03*
X6104D03*
X47324Y33528D03*
X49194D03*
X47197Y48768D03*
X49067D03*
G54D34*
X44039Y68834D03*
X45869D03*
X47699D03*
X4953D03*
X51359D03*
G54D35*
X47699Y80733D03*
G54D36*
X69215Y67183D03*
Y69052D03*
G54D37*
X69215Y6223D03*
Y59529D03*
G54D38*
X53005Y33528D03*
X55705D03*
X53386Y48768D03*
X56086D03*
G54D39*
X83063Y48325D03*
Y46625D03*
X77463Y48325D03*
Y46625D03*
G54D61*
X0635Y04445D03*
X0889D03*
X1143D03*
X1397D03*
X0635Y06985D03*
X0889D03*
X1143D03*
X1397D03*
X7366Y04953D03*
X762D03*
X7874D03*
X8128D03*
X7366Y07493D03*
X762D03*
X7874D03*
X8128D03*
G54D67*
X57594Y69011D02*
X57658Y68948D01*
X56681Y69893D02*
X57562Y69011D01*
X5207Y65913D02*
X5605Y69893D01*
X57658Y68916D02*
Y68948D01*
X57562Y69011D02*
X57594D01*
X5605Y69893D02*
X56681D01*
X36703Y16497D02*
X3683Y17399D01*
X0741Y29419D02*
X09906D01*
X36703Y08001D02*
Y14522D01*
X21323Y48755D02*
Y53213D01*
X57658Y62992D02*
Y66973D01*
X09906Y22479D02*
Y27476D01*
X81216Y07556D02*
Y16998D01*
G54D68*
X51181Y65913D02*
X5207D01*
X3683Y17399D02*
X3702Y17589D01*
X37414*
X41541Y21717*
X21209Y47244D02*
Y48641D01*
X20447Y46482D02*
X21209Y47244D01*
X17272Y46482D02*
X20447D01*
X16553Y47199D02*
X17272Y46482D01*
X4953Y67564D02*
X51181Y65913D01*
X4953Y67564D02*
Y68834D01*
X00889Y43307D02*
X14351Y56769D01*
X00889Y27559D02*
X10922Y17526D01*
X00889Y27559D02*
Y43307D01*
X10922Y17526D02*
X12446D01*
X55816Y21653D02*
X57912Y19558D01*
X63627*
X55753Y24257D02*
Y29845D01*
X77615Y21635D02*
X78523D01*
X80867Y19291*
X1651Y47244D02*
Y52324D01*
X50862Y58293D02*
X54503D01*
X33286Y07112D02*
X35814D01*
X36703Y08001*
X41541Y21717D02*
X55753D01*
X1397Y06985D02*
X26784D01*
X66702Y12727D02*
X66802Y12827D01*
X66702Y10822D02*
Y12727D01*
X66675Y1583D02*
Y18796D01*
X61722Y23749D02*
X66675Y18796D01*
X55959Y07064D02*
X62944D01*
X66702Y10822*
X44039Y65425D02*
X50862Y58602D01*
X44039Y65425D02*
Y68834D01*
X21336Y48768D02*
X26568D01*
X55753Y24257D02*
X57785Y26289D01*
X61722*
X53467Y26543D02*
X55753Y24257D01*
X49784Y26543D02*
X53467D01*
X46482Y24003D02*
X49784D01*
G54D69*
X16553Y44239D02*
X19551D01*
X22809Y47498*
X26568*
X57112Y59346D02*
X59159Y57299D01*
X54832Y59346D02*
X57112D01*
X59159Y57299D02*
X74952D01*
X79756Y62103*
X07366Y29464D02*
X0741Y29419D01*
X72136Y28321D02*
X76581D01*
X84108Y35848*
Y76949*
X41027Y27692D02*
Y32271D01*
X41033Y32277*
X41021Y27686D02*
X41027Y27692D01*
X29533Y25342D02*
Y32207D01*
X29464Y25273D02*
X29533Y25342D01*
X28194Y28956D02*
X28263Y29025D01*
Y32207*
X28333Y32277*
X29533Y32207D02*
X29603Y32277D01*
X81153Y19005D02*
Y19037D01*
X80867Y19291D02*
X80899D01*
X77597Y21653D02*
X77615Y21635D01*
X80899Y19291D02*
X81153Y19037D01*
X1397Y04445D02*
X15113Y03302D01*
X61341*
X1143Y04445D02*
X14351Y01524D01*
X75311*
X7874Y04953*
X0635Y06985D02*
X12573Y13208D01*
X14351*
X1651Y47244D02*
X16553Y47199D01*
X10668Y4953D02*
X17653Y56515D01*
X14986Y67691D02*
X17653Y65024D01*
Y56515D02*
Y65024D01*
X10668Y3937D02*
Y4953D01*
X11911Y49376D02*
X19916Y57381D01*
X11911Y43552D02*
Y49376D01*
X19916Y57381D02*
X22456D01*
X17272Y39878D02*
X23622Y46228D01*
X26568*
X19134Y39878D02*
X24214Y44958D01*
X26568*
X20997Y39878D02*
X24807Y43688D01*
X26568*
X2286Y39878D02*
X254Y42418D01*
X26568*
X16856Y38608D02*
X24028D01*
X11911Y43552D02*
X16856Y38608D01*
X24028D02*
X25374Y39953D01*
Y40512*
X26268Y41148D02*
X26568D01*
X25893Y40772D02*
X26268Y41148D01*
X25374Y40512D02*
X25634Y40772D01*
X25893*
X09906Y70231D02*
X27559Y87884D01*
X73173*
X84108Y76949*
X81056Y69315D02*
Y75311D01*
X78034Y78293D02*
X81017Y75311D01*
X78054Y66312D02*
X81056Y69315D01*
X81017Y75311D02*
X81056D01*
X30867Y27692D02*
Y32271D01*
X30873Y32277*
X30861Y27686D02*
X30867Y27692D01*
X07429Y70294D02*
Y78168D01*
X07493Y78232*
X07366Y70231D02*
X07429Y70294D01*
X45869Y68308D02*
X54832Y59346D01*
X54503Y58293D02*
X54529Y58266D01*
X10668Y3937D02*
X1397Y36068D01*
X37217Y29851D02*
Y32271D01*
X37211Y29845D02*
X37217Y29851D01*
X34677D02*
Y32271D01*
X34671Y29845D02*
X34677Y29851D01*
X32137D02*
Y32271D01*
X32131Y29845D02*
X32137Y29851D01*
X38481Y27686D02*
X38487Y27692D01*
Y32271*
X40005Y36068D02*
X44069D01*
X40006Y43559D02*
X40071Y43624D01*
X44005*
X38104Y50932D02*
X44352D01*
X31524Y44352D02*
X38104Y50932D01*
X44352D02*
X44763Y51343D01*
X37846Y67691D02*
X44763Y60773D01*
Y51343D02*
Y60773D01*
X31524Y43004D02*
Y44352D01*
X27387Y38867D02*
X31524Y43004D01*
X26828Y38867D02*
X27387D01*
X26568Y38608D02*
X26828Y38867D01*
X25874Y58259D02*
X35306Y67691D01*
X25874Y51343D02*
Y58259D01*
Y51343D02*
X2621Y51007D01*
X27427*
X27763Y50672*
Y40513D02*
Y50672D01*
X27387Y40137D02*
X27763Y40513D01*
X26828Y40137D02*
X27387D01*
X26568Y39878D02*
X26828Y40137D01*
X22456Y57381D02*
X32766Y67691D01*
X1397Y36068D02*
X26568D01*
X23876Y19431D02*
X3683D01*
X49607Y32208*
X1143Y06985D02*
X23876Y19431D01*
X36703Y16465D02*
Y16497D01*
X26784Y06985D02*
X26911Y07112D01*
X55753Y21717D02*
X55816Y21653D01*
X5588Y06985D02*
X55959Y07064D01*
X41746Y42449D02*
X44037D01*
X40047Y41105D02*
X44026D01*
X41715Y4248D02*
X41746Y42449D01*
X40005Y41063D02*
X40047Y41105D01*
X44037Y42449D02*
X44069Y42418D01*
X44005Y43624D02*
X44069Y43688D01*
X50862Y58293D02*
Y58602D01*
X44026Y41105D02*
X44069Y41148D01*
X41783Y39878D02*
X44069D01*
X40005Y38565D02*
X40026Y38586D01*
X44047*
X44069Y38608*
X41783Y37338D02*
X44069D01*
X41783Y34798D02*
X44069D01*
X13081Y44311D02*
X13152Y44239D01*
X16553*
X09906Y34422D02*
Y36195D01*
Y34422D02*
X1397D01*
X21209Y48641D02*
X21336Y48768D01*
X21209Y48641D02*
X21323Y48755D01*
X77363Y48325D02*
X7936D01*
X79655Y48031*
X81142*
X81436Y48325*
X83063*
X68199Y48723D02*
X68326Y4885D01*
Y53594*
X74801Y45763D02*
X77363Y48325D01*
X68199Y45763D02*
X74801D01*
X62993D02*
X68199D01*
X6291Y45847D02*
X62993Y45763D01*
X52767Y45847D02*
X6104D01*
X52705Y45909D02*
X52767Y45847D01*
X52654Y45909D02*
X52705D01*
X51066Y47498D02*
X52654Y45909D01*
X44069Y47498D02*
X51066D01*
X57658Y68916D02*
Y68948D01*
X64538Y75829*
Y78994*
X7874Y07493D02*
Y13335D01*
X44069Y46228D02*
X45847D01*
X7874Y13335*
X44069Y44958D02*
X44328Y44698D01*
X44887*
X542Y35385*
Y32468D02*
Y35385D01*
X5394Y32208D02*
X542Y32468D01*
X49607Y32208D02*
X5394D01*
X49194Y33528D02*
X53005D01*
X81216Y07556D02*
X8128Y07493D01*
X81153Y17062D02*
X81216Y16998D01*
X61722Y23749D02*
X61785Y23685D01*
X79756Y62103D02*
Y6543D01*
X78936Y66249D02*
X79756Y6543D01*
X78054Y66312D02*
X78117Y66249D01*
X78936*
X45869Y68308D02*
Y68834D01*
X33286Y07112D02*
X34918Y08743D01*
X1397Y33535D02*
X14097Y33408D01*
Y29272D02*
Y33408D01*
X1397Y33535D02*
X26561D01*
X1397Y34422D02*
X25893D01*
X78034Y78293D02*
Y78994D01*
X69215Y6223D02*
Y67183D01*
X69004Y69052D02*
X69215D01*
X68695Y69362D02*
X69004Y69052D01*
X68695Y69362D02*
Y69572D01*
X66675Y71592D02*
X68695Y69572D01*
X66675Y71592D02*
Y75683D01*
X69284Y78293*
Y78994*
X64538D02*
X69284D01*
X42291Y29845D02*
X42297Y29851D01*
Y32271*
X42303Y32277*
X39751Y29845D02*
X39757Y29851D01*
Y32271*
X39763Y32277*
X38487Y32271D02*
X38493Y32277D01*
X37217Y32271D02*
X37223Y32277D01*
X35941Y27686D02*
X35947Y27692D01*
Y32271*
X35953Y32277*
X34677Y32271D02*
X34683Y32277D01*
X33401Y27686D02*
X33407Y27692D01*
Y32271*
X33413Y32277*
X32137Y32271D02*
X32143Y32277D01*
X26268Y34798D02*
X26568D01*
X02391Y34665D02*
Y35213D01*
X25893Y34422D02*
X26268Y34798D01*
X02286Y34192D02*
X02385Y34292D01*
X04971Y34422D02*
X09906D01*
X02385Y34659D02*
X02391Y34665D01*
Y35213D02*
X02915Y35737D01*
X03656*
X02385Y34292D02*
Y34659D01*
X03656Y35737D02*
X04971Y34422D01*
X03285Y33542D02*
X03293Y33535D01*
X1397*
X26561D02*
X26568Y33528D01*
X44069D02*
X47324D01*
X49067Y48768D02*
X53386D01*
X44069D02*
X47197D01*
G54D70*
X49784Y24003D03*
Y26543D03*
X61722Y23749D03*
Y26289D03*
X55753Y21717D03*
Y24257D03*
G54D71*
X37846Y67691D03*
Y70231D03*
X35306Y67691D03*
Y70231D03*
X32766Y67691D03*
Y70231D03*
X30226Y67691D03*
Y70231D03*
X27686Y67691D03*
Y70231D03*
X25146Y67691D03*
Y70231D03*
X22606Y67691D03*
Y70231D03*
X20066Y67691D03*
Y70231D03*
X17526Y67691D03*
Y70231D03*
X14986Y67691D03*
Y70231D03*
X12446Y67691D03*
Y70231D03*
X09906Y67691D03*
Y70231D03*
X07366Y67691D03*
Y70231D03*
X04826Y67691D03*
Y70231D03*
X02286Y67691D03*
Y70231D03*
G54D72*
X33818Y43017D03*
X32418D03*
X35218D03*
X32418Y41617D03*
X33818D03*
X35218D03*
X33118Y43717D03*
X34518D03*
X33118Y42317D03*
X34518D03*
X33118Y40917D03*
X34518D03*
G54D73*
X02286Y32893D03*
Y34192D03*
X03285Y32242D03*
Y33542D03*
Y34842D03*
G54D74*
X03065Y37117D03*
Y29967D03*
G54D75*
X80264Y4885D03*
Y46101D03*
G54D76*
X12446Y17526D03*
X72136Y28321D03*
X41021Y27686D03*
X29464Y25273D03*
X28194Y28956D03*
X63627Y19558D03*
X55753Y29845D03*
X61341Y03302D03*
X14351Y13208D03*
X77597Y21653D03*
X14351Y56769D03*
X1651Y52324D03*
X17272Y39878D03*
X19134D03*
X20997D03*
X2286D03*
X30861Y27686D03*
X07493Y78232D03*
X54529Y58266D03*
X34671Y29845D03*
X37211D03*
X32131D03*
X38481Y27686D03*
X40005Y36068D03*
X40006Y43559D03*
X40005Y41063D03*
X41715Y4248D03*
X41783Y39878D03*
Y37338D03*
X40005Y38565D03*
X41783Y34798D03*
X68326Y53594D03*
X57658Y62992D03*
X09906Y22479D03*
X46482Y24003D03*
X07366Y29464D03*
X42291Y29845D03*
X39751D03*
X35941Y27686D03*
X33401D03*
M02*